<svg width="150" height="25" viewBox="0 0 150 25" fill="none" xmlns="http://www.w3.org/2000/svg">
<g clip-path="url(#clip0_3550_1152)">
<path fill-rule="evenodd" clip-rule="evenodd" d="M14.729 19.4817H11.0839V11.3428L7.458 16.1451L3.77429 11.285V19.4817H0.109863V5.55688H3.77429V5.57617H4.02501L7.41943 10.0313L10.8524 5.55688H14.6904C13.4561 7.58196 12.7232 9.97348 12.7232 12.5193C12.7618 15.0651 13.4754 17.4566 14.729 19.4817ZM45.568 9.89634C44.9894 9.10559 44.1601 8.68129 43.1572 8.68129H41.2093V16.2223H42.1543C42.3279 16.2223 42.4822 16.2223 42.6558 16.2223C43.6201 16.2223 44.6423 16.0873 45.5102 15.1808C46.1081 14.5637 46.4745 13.5415 46.4745 12.4807C46.4552 11.5164 46.1466 10.6485 45.568 9.89634ZM43.1572 19.4817H37.5449V19.4624C38.7792 17.4373 39.4928 15.0651 39.4928 12.5193C39.4928 9.97348 38.7792 7.60125 37.5449 5.57617V5.55688H43.1572C45.0666 5.55688 46.6674 6.23191 48.0753 7.60125C49.4253 8.9513 50.1196 10.6099 50.1196 12.5193C50.1196 14.4479 49.4446 16.0873 48.0753 17.4759C46.6867 18.826 45.0859 19.4817 43.1572 19.4817ZM57.0821 19.4046C55.462 19.4046 54.0927 18.826 52.8969 17.6495C51.759 16.5309 51.1804 15.123 51.1804 13.4643V5.55688H54.8641V13.6186C54.8641 14.853 55.867 15.8558 57.0821 15.8558C58.3357 15.8558 59.3386 14.8722 59.3386 13.6186V5.55688H63.0223V13.4643C63.0223 15.123 62.4437 16.5309 61.3058 17.6495C60.1293 18.826 58.7214 19.4046 57.0821 19.4046ZM64.1409 5.55688H67.8053V16.1644H72.5305V19.4817H64.1409V5.55688ZM77.2943 11.015H83.2923V13.7922H77.3135V16.2223H83.3888V19.4431H73.6105L73.6298 5.55688H83.4081V8.68129H77.3135V11.015H77.2943ZM90.3512 11.3235C91.6241 11.8443 92.897 12.5579 93.5913 13.4643C94.3821 14.5444 94.3242 15.6823 94.1699 16.4344C93.9578 17.5531 93.1863 18.4981 92.357 18.8452C91.3734 19.2888 90.274 19.3853 89.2711 19.4431H88.8276C87.2075 19.4431 85.4139 19.4431 84.3917 19.4431V16.2416C85.1824 16.2416 87.0339 16.2416 88.5768 16.2416C89.869 16.2416 90.2548 16.1066 90.409 15.798C90.5633 15.5858 90.5826 15.3544 90.4862 15.0844C90.274 14.4865 89.3676 14.1779 88.249 13.7151C87.0725 13.2715 85.6646 12.4807 84.8545 11.4778C84.0831 10.4749 84.1988 9.3756 84.3338 8.58486C84.4688 7.67839 85.2403 6.79122 86.2817 6.19334C87.2268 5.6726 88.3647 5.61474 89.3676 5.55688H89.869C91.1998 5.55688 92.6656 5.65332 93.5335 5.78832L93.572 8.83558C92.9934 8.68129 91.5662 8.54628 90.1969 8.54628C88.8276 8.54628 88.4033 8.60414 88.0561 9.16345C87.9211 9.39489 87.8825 9.56847 87.979 9.81919C88.2297 10.4556 89.1554 10.8221 90.3512 11.3235Z" fill="#004A95"/>
<path fill-rule="evenodd" clip-rule="evenodd" d="M101.344 13.5415C101.518 13.3486 101.749 13.1172 102.135 13.0015C102.521 12.8857 105.317 13.2908 105.703 13.3293C105.78 13.5993 106.012 13.8115 105.992 14.3515C105.935 15.1037 105.896 18.2088 105.896 18.2088C105.896 18.2088 105.182 18.9417 105.067 18.4981C104.912 17.9774 104.893 16.3766 104.893 16.3766C104.912 16.3766 104.122 19.6167 99.6086 19.5203C94.8834 19.4238 94.4784 13.6765 95.5199 10.5714C96.4071 7.96769 98.3357 5.19044 102.482 5.46045C103.755 5.61474 104.507 5.82689 105.202 6.63692C105.954 7.5241 105.877 8.54628 105.877 8.54628C105.877 8.54628 105.317 8.93201 104.45 9.00915C104.7 8.33413 104.739 6.63692 102.135 6.3862C101.074 6.28977 99.7629 6.65621 98.8757 7.40838C96.5999 9.33702 95.9442 11.4971 96.0021 14.1779C96.0599 16.878 97.6607 18.4402 99.4929 18.4595C104.43 18.5174 104.7 14.3901 104.7 14.3901C104.7 14.3901 101.152 13.7536 101.344 13.5415ZM110.351 13.9658C108.365 14.0815 107.709 15.2194 107.767 16.7623C107.825 17.9388 109.155 18.7681 110.486 18.6524C111.508 18.556 112.839 17.6881 113.341 16.6852C113.341 16.2994 113.36 15.933 113.398 15.5666C113.302 15.2194 112.55 13.8308 110.351 13.9658ZM113.553 18.0352C113.514 17.8809 113.476 17.7459 113.456 17.5916C113.071 18.1317 112.068 19.2888 110.563 19.4431C109.059 19.5974 107.072 19.2888 106.88 16.7045C106.687 13.8308 109.136 12.8857 110.93 13.1365C112.511 13.3679 113.244 14.1972 113.553 14.7179C113.611 14.2744 113.688 13.7922 113.726 13.2522C113.881 11.6321 112.299 10.5714 110.544 10.4942C108.789 10.4171 108.153 11.3621 107.96 11.7093C107.767 12.0757 107.362 12.0757 107.362 12.0757C107.362 12.0757 107.67 9.62632 110.486 9.58775C112.955 9.54918 114.71 10.9185 114.594 13.2522C114.517 14.853 114.054 15.663 114.266 17.4952C114.382 18.5174 115.231 19.1731 115.906 18.9803C115.52 19.3081 113.958 19.5781 113.553 18.0352ZM123.003 12.1721C122.733 11.9986 122.598 11.5935 122.154 11.3042C121.73 11.0342 120.978 10.6678 119.724 11.4585C117.969 12.5579 117.41 15.8366 117.082 16.9745C116.754 18.1124 116.831 19.2696 116.831 19.2696C116.831 19.2696 116.812 19.3467 116.658 19.4046C116.176 19.1924 115.964 18.7295 116.118 18.1702C116.272 17.6109 116.079 16.3187 116.156 15.0072C116.253 13.3293 116.06 9.99276 115.886 9.62632C115.713 9.25988 116.909 8.68129 117.024 9.18273C117.14 9.68418 117.121 12.5772 116.87 15.2001C117.333 12.8279 118.741 10.0506 121.017 9.87705C123.292 9.70347 123.717 12.0564 123.659 12.23C123.601 12.4229 123.273 12.3457 123.003 12.1721ZM127.304 10.9378C125.452 11.1885 123.929 13.31 124.064 16.2416C124.18 18.9417 126.494 18.9803 128.018 18.4402C129.233 18.0159 129.831 17.0902 130.004 16.7623C129.869 15.663 129.908 14.3322 130.004 13.1172C129.985 11.8443 129.194 10.6678 127.304 10.9378ZM130.776 16.9166C130.968 17.9966 131.952 18.5367 133.379 18.0738C131.47 19.906 130.563 19.2696 130.158 17.7459C129.155 19.0767 127.208 19.6939 125.838 19.6553C123.64 19.5974 122.926 17.5338 122.926 15.9523C122.926 14.1008 124.141 10.4942 127.304 10.1663C127.67 10.1278 129.233 10.0699 130.023 11.0342C130.081 11.1114 130.139 11.2078 130.197 11.3235C130.274 10.7449 130.351 10.2628 130.409 9.95419C130.968 7.2348 131.026 6.0969 131.412 5.78832C131.798 5.47973 132.492 5.3833 132.685 5.3833C132.858 5.3833 131.586 9.33703 131.181 11.4007C130.718 13.5029 130.563 15.663 130.776 16.9166ZM132.164 13.7922C132.203 13.8501 132.261 13.8886 132.318 13.9658C132.145 13.7922 132.087 13.7536 132.164 13.7922ZM133.746 13.7922C134.884 14.1201 136.349 14.3708 137.603 14.3901C139.628 14.4287 140.399 13.1557 140.168 12.0757C139.917 10.7642 138.259 10.2821 136.793 10.5521C135.539 10.7835 134.382 11.9214 133.669 13.8115C133.707 13.7922 133.726 13.7922 133.746 13.7922ZM132.627 15.7594C132.55 15.2001 132.588 14.6022 132.666 14.0622C132.666 14.0429 132.666 14.0622 132.666 14.0429C132.396 13.9079 132.222 13.8115 132.164 13.7729C131.952 13.5029 132.048 13.3679 132.203 13.0979C132.376 13.2329 132.627 13.3486 132.916 13.4836L132.936 13.4643C133.437 11.5164 134.826 10.0313 136.465 9.72275C138.683 9.29845 140.689 10.4364 140.92 11.6707C141.152 12.905 140.824 15.2001 137.719 15.2194C135.925 15.2387 134.479 14.7951 133.514 14.4094C133.514 14.4094 133.36 14.7758 133.495 15.798C133.784 18.1317 137.95 19.8867 140.862 17.3988C141.094 17.4181 141.345 17.3988 141.306 17.5916C137.719 20.9668 133.051 19.2503 132.627 15.7594ZM149.194 18.7102C148.943 19.4046 148.249 19.5203 148.249 19.5203L148.153 19.1538C148.153 19.1538 150.911 11.4392 146.822 11.2271C144.411 11.15 143.08 13.6765 142.598 15.9909C142.56 17.0323 142.54 18.2088 142.56 19.5588C142.251 19.4817 141.788 19.3853 141.788 19.3853C141.788 19.3853 141.152 12.9436 142.521 9.85776C143.119 9.68418 143.562 9.93491 143.562 9.93491C143.562 9.93491 143.08 10.9571 142.791 13.5993C143.37 12.1336 144.662 9.87705 147.092 9.93491C150.66 10.0121 150.139 15.5858 149.194 18.7102Z" fill="#5BC758"/>
<path fill-rule="evenodd" clip-rule="evenodd" d="M26.1275 3.8211C21.3252 3.8211 17.4293 7.71696 17.4293 12.5193C17.4293 17.3216 21.3252 21.2175 26.1275 21.2175C30.9298 21.2175 34.8257 17.3216 34.8257 12.5193C34.8257 7.71696 30.9298 3.8211 26.1275 3.8211ZM26.1275 24.8433C19.3194 24.8433 13.7842 19.3081 13.7842 12.5C13.7842 5.69189 19.3194 0.156677 26.1275 0.156677C32.9356 0.156677 38.4708 5.69189 38.4708 12.5C38.4708 19.3081 32.9356 24.8433 26.1275 24.8433Z" fill="#5BC758"/>
<path fill-rule="evenodd" clip-rule="evenodd" d="M28.7694 7.6398C29.348 8.68127 30.6788 9.067 31.7203 8.48841C31.9324 8.37269 32.106 8.23768 32.2603 8.0641C32.5496 8.44983 32.781 8.87413 32.9932 9.29844L33.1667 9.95418C33.1667 9.97346 33.1475 10.012 33.1282 10.0313L32.2989 10.4942C32.2603 10.5135 32.241 10.5135 32.2217 10.4942L31.6045 9.85774C31.2381 9.95418 30.8717 10.012 30.5052 9.99275L30.0616 10.7642C30.0423 10.7835 30.0038 10.8028 29.9845 10.7835L29.0587 10.5135C29.0202 10.5135 29.0009 10.4749 29.0009 10.4556L29.0202 9.56845C28.6923 9.39487 28.403 9.16343 28.133 8.87413L27.2844 9.10557C27.2651 9.10557 27.2265 9.08629 27.2072 9.067L26.7444 8.23768C26.7251 8.19911 26.7251 8.17982 26.7444 8.16054L27.3808 7.54337C27.2651 7.17693 27.2265 6.7912 27.2458 6.42476L26.4936 5.98117C26.4743 5.96188 26.4551 5.92331 26.4743 5.90402L26.7444 4.99756C26.7444 4.99756 26.7444 4.99756 26.7444 4.97827C27.4772 5.03613 28.1716 5.20971 28.8273 5.46043C28.4223 6.0776 28.3837 6.9262 28.7694 7.6398ZM21.7492 6.9262C21.7685 6.9262 21.807 6.94549 21.8263 6.96478L22.2699 7.71695C22.2892 7.73623 22.2892 7.77481 22.2699 7.79409L21.7299 8.33411C21.807 8.66198 21.807 9.00914 21.7492 9.33701L22.2892 9.85774C22.3085 9.87703 22.3085 9.9156 22.2892 9.93489L21.8649 10.7063C21.8456 10.7256 21.8263 10.7449 21.7877 10.7449L21.0741 10.5521C20.9584 10.6678 20.8041 10.7642 20.6691 10.8606C20.5148 10.9571 20.3605 11.0149 20.2063 11.0728L20.0327 11.7864C20.0327 11.8057 19.9941 11.825 19.9748 11.825H19.0876C19.0491 11.825 19.0298 11.8057 19.0298 11.7864L18.8369 11.0728C18.7983 11.0535 18.7598 11.0535 18.7212 11.0342C18.7791 10.7642 18.8369 10.4749 18.9333 10.2242C19.3576 10.3978 19.8398 10.3785 20.2641 10.147C20.9777 9.72274 21.2091 8.81628 20.7848 8.12196C20.6691 7.9291 20.5148 7.77481 20.3413 7.65909C20.5148 7.44694 20.7077 7.23479 20.9198 7.04192C20.9584 7.08049 21.0163 7.11907 21.0549 7.15764L21.7492 6.9262ZM19.6084 9.08629C19.5312 9.14415 19.4348 9.14415 19.3576 9.08629C19.4348 8.93199 19.5312 8.75842 19.6084 8.60413C19.6469 8.62341 19.6855 8.66198 19.7048 8.70056C19.7819 8.85485 19.7434 9.02843 19.6084 9.08629ZM20.6498 8.16054C21.0356 8.79699 20.8234 9.64559 20.1677 10.012C19.7819 10.2435 19.3191 10.2628 18.9333 10.0892C18.9912 9.9156 19.0491 9.74203 19.1262 9.56845C19.3576 9.68417 19.6469 9.68416 19.8784 9.52987C20.2641 9.29844 20.3798 8.81627 20.1677 8.43055C20.0905 8.31483 20.0134 8.2184 19.8977 8.16054C20.0134 8.00624 20.1291 7.85195 20.2448 7.69766C20.3991 7.85195 20.5341 7.98696 20.6498 8.16054ZM26.8408 12.5578L27.593 13.3293C27.998 13.175 28.4416 13.0593 28.8852 12.9821L29.1552 11.9407C29.1552 11.9021 29.1937 11.8828 29.2516 11.8828H30.4281C30.4666 11.8828 30.5052 11.9021 30.5245 11.9407L30.7945 12.9821C31.2381 13.0593 31.6817 13.175 32.0867 13.3293L32.8389 12.5578C32.8582 12.5386 32.916 12.5386 32.9353 12.5578L33.7068 13.0014C33.6296 14.2165 33.2632 15.3544 32.6846 16.338C31.971 15.6051 30.9488 15.1422 29.8495 15.1422C27.6701 15.1422 25.8958 16.9166 25.8958 19.096C25.8958 19.4431 25.9343 19.771 26.0308 20.0988C24.7964 20.0796 23.6585 19.771 22.6363 19.231V18.4981C22.6363 18.4595 22.6556 18.4209 22.6942 18.4016L23.7357 18.1316C23.8128 17.688 23.9285 17.2637 24.0828 16.8394L23.3114 16.0873C23.2921 16.068 23.2921 16.0101 23.3114 15.9908L23.9092 14.9687C23.9285 14.9301 23.9671 14.9108 24.0057 14.9108L25.0471 15.2001C25.3172 14.8529 25.645 14.5444 25.9922 14.2551L25.7029 13.2136C25.7029 13.175 25.7222 13.1364 25.7607 13.1172L26.7829 12.5193C26.7829 12.5386 26.8215 12.5386 26.8408 12.5578ZM29.8302 15.4701C30.8909 15.4701 31.836 15.9137 32.4917 16.6466C32.2217 17.0709 31.8938 17.4759 31.5467 17.8423C31.161 17.3216 30.5438 16.9937 29.8495 16.9937C28.673 16.9937 27.7087 17.9388 27.7087 19.1152C27.7087 19.3853 27.7665 19.6553 27.863 19.906C27.3615 20.0217 26.8601 20.0796 26.3393 20.0988C26.2429 19.771 26.2043 19.4431 26.2043 19.096C26.2043 17.1094 27.8244 15.4701 29.8302 15.4701ZM29.8495 18.3824C30.1195 18.3824 30.3509 18.5366 30.4666 18.7488C30.0809 19.0188 29.6566 19.2695 29.213 19.4624C29.1552 19.366 29.1166 19.2502 29.1166 19.1152C29.1166 18.7102 29.4445 18.3824 29.8495 18.3824ZM30.8717 6.9262C30.6788 7.04192 30.4281 6.96478 30.3316 6.77191C30.2352 6.59833 30.2931 6.38618 30.4474 6.27046C30.6595 6.40547 30.8524 6.57905 31.0452 6.73334C31.0067 6.81048 30.9488 6.88763 30.8717 6.9262ZM31.6431 8.31483C30.6788 8.85485 29.4637 8.50769 28.9237 7.54337C28.5573 6.86834 28.6151 6.0776 29.0009 5.47972C29.2709 5.59544 29.5216 5.71116 29.7723 5.84616C29.483 6.2126 29.4252 6.71405 29.6566 7.13835C29.9652 7.69766 30.6788 7.90981 31.2381 7.60123C31.3924 7.52408 31.5081 7.40836 31.6045 7.27336C31.7974 7.46622 31.971 7.67837 32.1446 7.89052C32.0096 8.0641 31.836 8.19911 31.6431 8.31483Z" fill="#5BC758"/>
</g>
<defs>
<clipPath id="clip0_3550_1152">
<rect width="150" height="25" fill="white"/>
</clipPath>
</defs>
</svg>
