<svg width="72" height="72" viewBox="0 0 72 72" fill="none" xmlns="http://www.w3.org/2000/svg">
    <g clip-path="url(#clip0_1103_2309)">
        <path fill-rule="evenodd" clip-rule="evenodd" d="M61.4501 61.414C58.0417 64.8267 53.9783 67.5149 49.5044 69.3169C45.0304 71.1189 40.2383 71.9975 35.416 71.9C40.4167 71.6815 45.2897 70.2525 49.6164 67.7358C53.9431 65.219 57.5943 61.6896 60.2565 57.4508C62.9186 53.2119 64.5121 48.3902 64.9001 43.3998C65.2881 38.4094 64.459 33.3994 62.4841 28.8C61.9421 28.31 61.5278 27.6952 61.2774 27.0088C61.0269 26.3225 60.9478 25.5853 61.0468 24.8614C61.1458 24.1375 61.4201 23.4488 61.8457 22.8549C62.2713 22.2611 62.8355 21.7801 63.4892 21.4537C64.1429 21.1273 64.8663 20.9655 65.5968 20.9821C66.3272 20.9988 67.0426 21.1935 67.6807 21.5494C68.3188 21.9052 68.8605 22.4115 69.2585 23.0241C69.6566 23.6368 69.8991 24.3374 69.965 25.065L70.275 24.979C72.2937 31.2767 72.538 38.0089 70.9812 44.4363C69.4244 50.8638 66.1267 56.738 61.4501 61.414ZM19.0001 14.969H54V57.969H19.0001V14.969ZM23.0001 53.969H50V18.969H23.0001V53.969ZM42.0281 45.969H47V47.969H42.0281V45.969ZM42.0281 40.969H47V42.969H42.0281V40.969ZM42.0281 35.969H47V37.969H42.0281V35.969ZM42.0281 30.969H47V32.969H42.0281V30.969ZM26.0001 40.969H39V42.969H26.0001V40.969ZM26.0001 35.969H39V37.969H26.0001V35.969ZM26.0001 30.969H39V32.969H26.0001V30.969ZM26.029 22.969H36V24.969H26.029V22.969ZM9.12905 42.185C9.67015 42.6076 10.1071 43.1487 10.4062 43.7667C10.7053 44.3847 10.8587 45.0631 10.8545 45.7497C10.8503 46.4362 10.6886 47.1127 10.3819 47.7269C10.0752 48.3412 9.63164 48.8769 9.08538 49.2929C8.53912 49.7088 7.9047 49.9938 7.23098 50.126C6.55725 50.2583 5.86216 50.2342 5.19921 50.0556C4.53626 49.877 3.92314 49.5487 3.407 49.096C2.89086 48.6432 2.48546 48.078 2.22204 47.444L1.90706 47.531C0.0315497 42.0323 -0.483273 36.1609 0.406698 30.4196C1.29667 24.6784 3.56492 19.2384 7.01717 14.5656C10.4694 9.89269 15.0028 6.12616 20.2291 3.58857C25.4555 1.05098 31.219 -0.182068 37.0261 -0.00499522C32.07 0.141194 27.2216 1.47648 22.8896 3.88838C18.5575 6.30027 14.8686 9.71809 12.1338 13.8539C9.39892 17.9896 7.69822 22.7222 7.17495 27.6527C6.65168 32.5833 7.32119 37.5673 9.12706 42.185H9.12905Z" fill="white"/>
    </g>
    <defs>
        <clipPath id="clip0_1103_2309">
            <rect width="71.969" height="71.907" fill="white"/>
        </clipPath>
    </defs>
</svg>
