<svg xmlns="http://www.w3.org/2000/svg" width="72" height="72" viewBox="0 0 72 72">
    <defs>
        <style>
            .cls-1 {
            fill: #fff;
            fill-rule: evenodd;
            }
        </style>
    </defs>
    <path id="Kształt_2376" data-name="Kształt 2376" class="cls-1"
          d="M2299.96,1699.81c-1.63,2.81-3.4,5.53-5.15,8.08l-7.95-4.7a113.4,113.4,0,0,1,5.62-10.54c9.95-16.36,21.76-30.41,22.52-29.65C2315.41,1663.41,2310.05,1682.44,2299.96,1699.81ZM2251,1671v2h-2v-2h2Zm4,0v2h-2v-2h2Zm4,0v2h-2v-2h2Zm32,14v-2h3.37c-0.42.66-.84,1.33-1.27,2H2291Zm-44-16v6h52.67q-1.335,1.935-2.7,4H2247v48h18.23a23.761,23.761,0,0,1-4.07,4H2243v-66h64.15c-1.02,1.21-2.08,2.56-3.17,4H2247Zm24,56c0.83-5.33,9-6,9-6l5,3s5.37,12-14,12h-7S2270.17,1730.33,2271,1725Zm-3-3.11V1704h13.63l0.78,0.46c-0.23.52-.46,1.03-0.68,1.54H2270v13.14A13.722,13.722,0,0,0,2268,1721.89Zm-6-17.89h2v19h-13v-19h11Zm-9,17h9v-15h-9v15Zm-2-38h8v2h-8v-2Zm26,0v2h-6v-2h6Zm10,0v2h-6v-2h6Zm-1.5,15c-0.35.67-.68,1.34-1.01,2H2251v-11h39.61c-0.33.54-.66,1.07-0.99,1.61-0.08.13-.15,0.26-0.23,0.39H2253v7h32.5Zm-3.52,17c0.88-2.42,2.03-5.42,3.48-8.73l7.4,4.38c-2.22,3.06-4.32,5.74-6.01,7.81L2282,1715h-0.02Zm22.52-15q1.3-2.325,2.5-4.65V1700h-2.5Zm2.5,6v17h-17.07a13.231,13.231,0,0,0-.42-1.68c0.48-.57.98-1.17,1.49-1.79V1721h14v-15h-4.1c0.42-.66.84-1.32,1.25-2H2307v2Zm-17.04,21H2311v-40.04c1.56-3.55,2.89-6.97,4-10.14V1731h-26.77A9.552,9.552,0,0,0,2289.96,1727Z"
          transform="translate(-2243 -1662.485)"/>
</svg>
