<svg xmlns="http://www.w3.org/2000/svg" width="72" height="72" viewBox="0 0 72 72">
    <defs>
        <style>
            .cls-1 {
            fill: #fff;
            fill-rule: evenodd;
            }
        </style>
    </defs>
    <path id="icon_kopiuj" data-name="icon kopiuj" class="cls-1"
          d="M856.4,188h-5.244l-0.844-4H855V126H809v58h25.688l-0.844,4H805V122h54v66h-2.6Zm-34.274-30.482a2.918,2.918,0,0,0,.988.785,3.011,3.011,0,0,0,1.318.328h1.778a0.943,0.943,0,0,1,.791.393,1.131,1.131,0,0,1,.2.916L826.078,164h-1.911a7.4,7.4,0,0,1-3.623-.851,7.878,7.878,0,0,1-2.766-2.292,8.308,8.308,0,0,1-1.515-3.274,7.957,7.957,0,0,1,.066-3.732l0.132-.393a8.109,8.109,0,0,1,1.119-2.422,7.334,7.334,0,0,1,1.779-1.965,8.641,8.641,0,0,1,2.3-1.244,8.854,8.854,0,0,1,2.635-.393h6.257l-0.987,3.667a2.331,2.331,0,0,1-2.24,1.7h-2.9a2.9,2.9,0,0,0-1.779.59,3.235,3.235,0,0,0-.988,1.571,3.331,3.331,0,0,0-.065,1.375A3.23,3.23,0,0,0,822.125,157.518Zm15.479-3.8a2.081,2.081,0,0,1,1.384-.458h1.581A2.907,2.907,0,0,0,843.4,151.1a2.875,2.875,0,0,0-.461-2.554,4.227,4.227,0,0,0-.988-0.851,3.02,3.02,0,0,0-1.318-.327h-3.1l-4.018,14.863a1.76,1.76,0,0,1-.857,1.178,2.072,2.072,0,0,1-1.383.459h-3.8l5.384-20.167A2.329,2.329,0,0,1,835.1,142h5.731a7.4,7.4,0,0,1,3.623.851,7.866,7.866,0,0,1,2.766,2.291,8.3,8.3,0,0,1,1.515,3.274,7.175,7.175,0,0,1-.132,3.733l-0.131.392a8.131,8.131,0,0,1-1.12,2.423,4.729,4.729,0,0,1-1.647,1.964,8.6,8.6,0,0,1-2.305,1.244,8.9,8.9,0,0,1-2.635.459H835.76l0.988-3.733A1.763,1.763,0,0,1,837.6,153.72Zm-10.143,10.149h0.017l-0.017.065v-0.065ZM842.5,182a5.5,5.5,0,1,1,5.5-5.5A5.5,5.5,0,0,1,842.5,182Zm0,3a8.446,8.446,0,0,0,4.131-1.075L848,194l-5.7-3.6L837,194l1.368-10.075A8.447,8.447,0,0,0,842.5,185Z"
          transform="translate(-796 -122)"/>
</svg>
