<svg xmlns="http://www.w3.org/2000/svg" width="72" height="72.094" viewBox="0 0 72 72.094">
    <defs>
        <style>
            .cls-1 {
            fill: #fff;
            fill-rule: evenodd;
            }
        </style>
    </defs>
    <path id="Kształt_93_kopia_3" data-name="Kształt 93 kopia 3" class="cls-1"
          d="M624,134v-5.172l-7.461,7.461-2.828-2.828,7.46-7.461H616v-4h12v12h-4Zm-6.071,9.571a14.651,14.651,0,0,1,2.72,5.8,12.6,12.6,0,0,1-.237,6.616l-0.236.7a14.331,14.331,0,0,1-2.011,4.295,8.419,8.419,0,0,1-2.956,3.482,15.532,15.532,0,0,1-4.139,2.205,16.137,16.137,0,0,1-4.73.813h-8.987l1.774-6.616a3.128,3.128,0,0,1,1.537-2.09,3.759,3.759,0,0,1,2.483-.812h2.838a5.249,5.249,0,0,0,3.193-1.045,5.175,5.175,0,0,0,1.892-2.785,5.049,5.049,0,0,0-.827-4.527,7.528,7.528,0,0,0-1.774-1.509,5.467,5.467,0,0,0-2.365-.58h-5.558l-7.213,26.348a3.127,3.127,0,0,1-1.538,2.089,3.758,3.758,0,0,1-2.483.813h-6.827l9.665-35.75a3.655,3.655,0,0,1,1.537-2.206,3.761,3.761,0,0,1,2.484-.812h10.287a13.413,13.413,0,0,1,6.5,1.509A14.068,14.068,0,0,1,617.929,143.571Zm-35.476,33.2h0.032l-0.032.116v-0.116Zm2.247-20.429a3.757,3.757,0,0,1-2.483.812h-5.2a5.255,5.255,0,0,0-3.193,1.045,5.72,5.72,0,0,0-1.773,2.786,5.816,5.816,0,0,0-.119,2.438,5.7,5.7,0,0,0,.946,2.089,5.225,5.225,0,0,0,1.774,1.392,5.454,5.454,0,0,0,2.365.581h3.193a1.7,1.7,0,0,1,1.419.7,1.986,1.986,0,0,1,.355,1.625L579.97,177h-3.429a13.424,13.424,0,0,1-6.5-1.509,14.078,14.078,0,0,1-4.966-4.063,14.639,14.639,0,0,1-2.72-5.8,13.919,13.919,0,0,1,.118-6.616l0.237-.7a14.329,14.329,0,0,1,2.01-4.3,13.053,13.053,0,0,1,3.193-3.482,15.53,15.53,0,0,1,4.139-2.2,16.082,16.082,0,0,1,4.73-.7h11.233l-1.773,6.5A3.651,3.651,0,0,1,584.7,156.339Zm-17.157-20.158-7.45-7.45V133.9H556.1V121.913h11.982v3.994h-5.164l7.45,7.45ZM560,187.171l6.359-6.358,2.828,2.828L562.828,190H568v4H556V182h4v5.171Zm57.651-6.53L624,186.99v-5.164H628v11.983H616.012v-3.994h5.164l-6.349-6.35Z"
          transform="translate(-556 -121.906)"/>
</svg>
