<svg xmlns="http://www.w3.org/2000/svg" width="72" height="72" viewBox="0 0 72 72">
    <defs>
        <style>
            .cls-1 {
            fill: #fff;
            fill-rule: evenodd;
            }
        </style>
    </defs>
    <path id="Kształt_1" data-name="Kształt 1" class="cls-1"
          d="M1561.52,131.007a16.508,16.508,0,0,0-4.34.49,15.068,15.068,0,0,0-4.58,2.122,15.591,15.591,0,0,0-5.71-2.367,46.994,46.994,0,0,0-6.83-.081c-2.9.056-4.8,1.575-7.87,2.774a33.228,33.228,0,0,1-12.62,2.367H1517v25.134l1.45,0.735,4.74,2.367,16.87,19.1,0.08,0.082a8.686,8.686,0,0,0,6.83,2.285,13.374,13.374,0,0,0,6.19-1.877c3.79-2.33,14.14-9.629,14.14-9.629l0.24-.164,0.17-.163a9.228,9.228,0,0,0,2.25-4.325l9.88-5.06,7.39-2.529,1.77-.572V136.312h-2.57a32.588,32.588,0,0,1-12.62-2.449c-3.07-1.224-4.94-2.717-7.87-2.774C1564.37,131.059,1562.94,131,1561.52,131.007Zm0.08,5.223c1.15-.007,2.49.049,4.18,0.082,0.26,0,2.74,1.077,6.18,2.448a39.947,39.947,0,0,0,11.9,2.53v16.647l-5.95,2.04h-0.16l-0.16.082-7.8,4a9.18,9.18,0,0,0-1.92-3.264l-0.16-.245-10.93-13.628-1.61-2.041-2.01,1.633-6.91,5.712c-2.32,1.636-4.2,1.166-6.11.245a5.046,5.046,0,0,1-.96-0.653l11.73-9.874,0.08-.082,0.08-.081c3.49-3.512,5.62-4.722,7.47-5.223A11.842,11.842,0,0,1,1561.6,136.23Zm-17.92.082a18.488,18.488,0,0,1,2.57.081,11.736,11.736,0,0,1,2.09.9c-0.26.25-.46,0.384-0.72,0.653a2.219,2.219,0,0,0-.16.163l-14.07,11.833-2.17,1.8,1.93,2.041a17.185,17.185,0,0,0,4.74,3.427,11.063,11.063,0,0,0,11.33-.653l0.08-.082,0.08-.081,4.99-4.162,9.48,11.833,0.08,0.163,0.08,0.082a4.346,4.346,0,0,1,0,6.12c-0.02.019,0.02,0.063,0,.082s-0.36.216-.4,0.245l-3.38-4.652-4.18,3.1,3.3,4.489c-1.33.916-1.94,1.392-3.38,2.366l-3.45-4.733-4.18,3.1,3.29,4.488c-0.29.186-.9,0.6-1.12,0.735a9.135,9.135,0,0,1-3.78,1.142,4.145,4.145,0,0,1-2.81-.652l-0.08-.082-17.2-19.341-0.32-.408-0.48-.245-3.7-1.877V141.29a41,41,0,0,0,11.9-2.449c3.43-1.34,5.89-2.442,6.18-2.448C1541.54,136.368,1542.69,136.329,1543.68,136.312Z"
          transform="translate(-1517 -122.516)"/>
</svg>
