<svg xmlns="http://www.w3.org/2000/svg" width="72" height="72" viewBox="0 0 72 72">
    <defs>
        <style>
            .cls-1 {
            fill: #fff;
            fill-rule: evenodd;
            }
        </style>
    </defs>
    <path id="Kształt_2148" data-name="Kształt 2148" class="cls-1" d="M1552,2939c-19.88,0-36-6.72-36-15,0-4.81,5.43-9.08,13.86-11.82,0.14,0.49.29,0.97,0.46,1.45-6.34,2.45-10.32,5.87-10.32,9.37,0,6.65,14.33,13,32,13s32-6.35,32-13c0-3.5-3.98-6.92-10.32-9.37,0.17-.48.32-0.96,0.46-1.45,8.43,2.74,13.86,7.01,13.86,11.82C1588,2932.28,1571.88,2939,1552,2939Zm0.5-13a20.453,20.453,0,0,1-20.5-20.65c0-13.87,20.5-38.35,20.5-38.35s20.5,24.48,20.5,38.35A20.453,20.453,0,0,1,1552.5,2926Zm-12.5-28c-2.01,7.03-.79,8.99,1.02,8.99,1.56,0,1.87-5.46,2.98-8.99,1.31-4.17,4-15,4-15S1542.81,2888.19,1540,2898Zm31.22,20.67c1.77,1.28,2.78,2.76,2.78,4.33,0,4.97-10.07,9-22.5,9s-22.5-4.03-22.5-9c0-1.77,1.29-3.41,3.5-4.8,0.39,0.63.82,1.25,1.27,1.84a3.176,3.176,0,0,0-.77,1.96c0,3.83,8.37,6.94,18.74,6.99,0.09,0,.17.01,0.26,0.01s0.17-.01.26-0.01c10.37-.05,18.74-3.16,18.74-6.99a3.176,3.176,0,0,0-.77-1.96C1570.57,2919.59,1570.91,2919.14,1571.22,2918.67Z" transform="translate(-1516 -2867)"/>
</svg>
