<svg xmlns="http://www.w3.org/2000/svg" width="72" height="72.094" viewBox="0 0 72 72.094">
    <defs>
        <style>
            .cls-1 {
            fill: #fff;
            fill-rule: evenodd;
            }
        </style>
    </defs>
    <path id="Kształt_93_kopia_6" data-name="Kształt 93 kopia 6" class="cls-1" d="M385,605v-5.172l-7.461,7.461-2.828-2.829,7.46-7.46H377v-4h12v12h-4Zm-35.554,51.9-8.107-8.092L361.686,628.5l-20.347-20.309,8.107-8.091L377.9,628.5Zm-12.24-12.217-8.106-8.092,8.106-8.091-8.106-8.092,8.106-8.092L353.579,628.5Zm-8.663-37.5-7.45-7.449V604.9H317.1V592.913h11.982v3.994h-5.164l7.45,7.45ZM321,658.171l6.359-6.359,2.828,2.829L323.828,661H329v4H317V653h4v5.171Zm57.651-6.53L385,657.99v-5.164H389v11.983H377.012v-3.994h5.164l-6.349-6.35Z" transform="translate(-317 -592.906)"/>
</svg>
