<svg xmlns="http://www.w3.org/2000/svg" width="72" height="72" viewBox="0 0 72 72">
    <defs>
        <style>
            .cls-1 {
            fill: #fff;
            fill-rule: evenodd;
            }
        </style>
    </defs>
    <path id="Kształt_7_kopiuj_2_kopia" data-name="Kształt 7 kopiuj 2 kopia" class="cls-1" d="M616.4,659h-5.245l-0.844-4H615V597H569v58h25.689l-0.845,4H565V593h54v66h-2.6Zm-13.9-3a8.446,8.446,0,0,0,4.131-1.075L608,665l-5.7-3.6L597,665l1.368-10.075A8.45,8.45,0,0,0,602.5,656Zm5.5-8.5a5.5,5.5,0,1,1-5.5-5.5A5.5,5.5,0,0,1,608,647.5Zm-2-23L589.674,641l-4.652-4.7L596.7,624.5l-11.675-11.8,4.652-4.7Zm-23.349-9.4,9.394,9.4-9.394,9.4L578,629.2l4.651-4.7L578,619.8Z" transform="translate(-556 -593)"/>
</svg>
