<svg xmlns="http://www.w3.org/2000/svg" width="72" height="72" viewBox="0 0 72 72">
    <defs>
        <style>
            .cls-1 {
            fill: #fff;
            fill-rule: evenodd;
            }
        </style>
    </defs>
    <path id="Kształt_2149" data-name="Kształt 2149" class="cls-1"
          d="M867.985,1698.47v0.05a1.994,1.994,0,0,1-2,1.96h-0.029a1.994,1.994,0,0,1-1.973-2.02v-0.05a2,2,0,0,1,2-1.98h0.026a2,2,0,0,1,1.973,2.03v0.01Zm-2.318-5.59a1.961,1.961,0,0,1-.416.04,2,2,0,0,1-1.955-1.58l-0.011-.05a2,2,0,1,1,3.91-.84,0.572,0.572,0,0,1,.014.07A2,2,0,0,1,865.667,1692.88Zm-1.968-7.34a2.089,2.089,0,0,1-.84.18,2,2,0,0,1-1.817-1.16l-0.02-.04a2.006,2.006,0,0,1,.971-2.66,2.086,2.086,0,0,1,.841-0.18,1.99,1.99,0,0,1,1.814,1.15h0c0,0.01.007,0.02,0.011,0.03h0l0.011,0.03A2,2,0,0,1,863.7,1685.54Zm-4.782-6.3a2,2,0,0,1-1.584-.78l-0.03-.04a2,2,0,1,1,3.158-2.45l0.029,0.03c0,0.01,0,.01.008,0.01A2,2,0,0,1,858.917,1679.24Zm-1.792,12.08-3.188,6.61,3.188,6.61,0.875,1.7-1.75.94-6.438,3.46-1.25,7.17-0.312,1.95-1.938-.31-7.187-1.01-5.25,5.1-1.375,1.38-1.375-1.38-5.25-5.1-7.188,1.01-1.937.31-0.313-1.95-1.25-7.17-6.437-3.46-1.75-.94,0.875-1.7,3.187-6.61-3.187-6.61-0.875-1.7,1.75-.94,6.437-3.46,1.25-7.17,0.313-1.95,1.937,0.31,7.188,1.01,5.25-5.1,1.375-1.38,1.375,1.38,5.25,5.1,7.187-1.01,1.938-.31,0.312,1.95,1.25,7.17,6.438,3.46,1.75,0.94Zm-7.25,5.73,2.75-5.73-5.5-2.95-0.875-.51-0.188-.94-1.125-6.29-6.25.94-0.937.13-0.688-.7-4.562-4.46-4.563,4.46-0.687.7-0.938-.13-6.25-.94-1.125,6.29-0.187.94-0.875.51-5.5,2.95,2.75,5.73,0.375,0.88-0.375.88-2.75,5.73,5.5,2.95,0.875,0.51,0.187,0.94,1.125,6.29,6.25-.94,0.938-.13,0.687,0.7,4.563,4.46,4.562-4.46,0.688-.7,0.937,0.13,6.25,0.94,1.125-6.29,0.188-.94,0.875-.51,5.5-2.95-2.75-5.73-0.375-.88Zm-10.375,8.93a3.02,3.02,0,1,1,3-3.02A3.009,3.009,0,0,1,839.5,1705.98Zm-15,4.03,12-24.16h4l-12,24.16h-4Zm1-14.09a3.02,3.02,0,1,1,3-3.02A3.015,3.015,0,0,1,825.5,1695.92Zm28.134-22.14a1.983,1.983,0,0,1-1.273-.46l-0.037-.03a2,2,0,0,1,1.272-3.55,1.975,1.975,0,0,1,1.269.46h0l0.032,0.03a0.109,0.109,0,0,1,.011.01A2,2,0,0,1,853.634,1673.78Zm-6.355-4.16a2.061,2.061,0,0,1-.9-0.21l-0.043-.02a2,2,0,0,1,1.788-3.58l0.063,0.03A2,2,0,0,1,847.279,1669.62Zm-7.112-2.63a1.977,1.977,0,0,1-.479-0.06l-0.048-.01a2,2,0,0,1,.473-3.94,1.956,1.956,0,0,1,.479.05,0.024,0.024,0,0,0,.022.01h0.021a0.109,0.109,0,0,0,.011.01A2,2,0,0,1,840.167,1666.99Zm-7.528-.98H832.6l-0.049-.01a1.956,1.956,0,0,0-.558,0h-0.051a2,2,0,0,1-.009-4H832c0.1,0,.209.01,0.31,0.02a2.537,2.537,0,0,1,.277-0.01h0.1A2,2,0,0,1,832.639,1666.01Zm-7.748.78-0.048.01a1.7,1.7,0,0,1-.445.05,2,2,0,0,1-.448-3.95h0.013c0.011,0,.021-0.01.032-0.01h0.012a2.264,2.264,0,0,1,.445-0.05A2,2,0,0,1,824.891,1666.79Zm-6.74,2.35-0.044.02a1.923,1.923,0,0,1-.867.2,2,2,0,0,1-.871-3.8h0.009l0.047-.03a2.011,2.011,0,0,1,2.661.94A2,2,0,0,1,818.151,1669.14Zm-6.09,3.83a2.009,2.009,0,0,1-1.246.43,1.979,1.979,0,0,1-1.565-.75,2,2,0,0,1,.314-2.81,0.176,0.176,0,0,0,.05-0.04,2,2,0,0,1,2.485,3.14Zm-5.06,5.05a2.007,2.007,0,0,1-1.563.75,1.968,1.968,0,0,1-1.249-.44,1.994,1.994,0,0,1-.315-2.8c0.013-.02.025-0.03,0.038-0.05h0a2,2,0,0,1,1.56-.75,1.968,1.968,0,0,1,1.25.44,2,2,0,0,1,.309,2.81Zm-3.815,6.04a2.009,2.009,0,0,1-1.8,1.13,2.081,2.081,0,0,1-.871-0.2,2,2,0,0,1-.928-2.67c0.009-.02.019-0.04,0.029-0.06a1.993,1.993,0,0,1,1.8-1.12,2.094,2.094,0,0,1,.873.2,2.008,2.008,0,0,1,.924,2.68Zm-2.361,6.69-0.011.05a2.007,2.007,0,0,1-1.948,1.55,2.324,2.324,0,0,1-.451-0.05,2,2,0,0,1-1.5-2.39,0.532,0.532,0,0,1,.016-0.07,2,2,0,0,1,1.943-1.54,1.751,1.751,0,0,1,.452.05A2,2,0,0,1,800.825,1690.75Zm-2.816,5.09a2,2,0,0,1,1.992,2.01v0.05a2,2,0,0,1-2,1.99h-0.007a2,2,0,0,1-1.992-2v-0.02c0-.01,0-0.03,0-0.04a2,2,0,0,1,2-1.99h0.009Zm0.363,7.6a2.157,2.157,0,0,1,.434-0.05,2.008,2.008,0,0,1,1.952,1.57l0.011,0.05a2,2,0,0,1-1.518,2.38,1.644,1.644,0,0,1-.437.05,2,2,0,0,1-1.949-1.56c0-.01,0-0.01,0-0.01v-0.01s0,0,0-.01h0l-0.006-.03A2,2,0,0,1,798.372,1703.44Zm2.038,7.32a2.011,2.011,0,0,1,2.666.95l0.021,0.04a2,2,0,0,1-.946,2.67,2.028,2.028,0,0,1-.858.2,2,2,0,0,1-1.8-1.14l-0.029-.06A2,2,0,0,1,800.41,1710.76Zm4.861,6.26a2,2,0,0,1,1.572.76l0.031,0.04a2,2,0,1,1-3.134,2.48,0.033,0.033,0,0,1-.018-0.02,0.039,0.039,0,0,0-.021-0.02A2,2,0,0,1,805.271,1717.02Zm5.334,5.41a1.988,1.988,0,0,1,1.258.44l0.038,0.03a2.01,2.01,0,0,1,.3,2.82,1.993,1.993,0,0,1-2.811.29h0l-0.044-.03A2,2,0,0,1,810.605,1722.43Zm6.393,4.09a1.99,1.99,0,0,1,.881.21l0.044,0.02a2,2,0,1,1-1.762,3.59h-0.008a0.072,0.072,0,0,0-.037-0.02h0A2,2,0,0,1,817,1726.52Zm7.137,2.57a2.435,2.435,0,0,1,.461.05l0.047,0.01a2,2,0,0,1-.454,3.95,2.334,2.334,0,0,1-.452-0.05c-0.011,0-.022-0.01-0.033-0.01a0.034,0.034,0,0,1-.029-0.01A2,2,0,0,1,824.135,1729.09Zm7.538,0.91h0.067a2,2,0,0,1-.014,4h-0.079A2,2,0,0,1,831.673,1730Zm7.131-.72,0.047-.01a1.567,1.567,0,0,1,.427-0.05,2,2,0,0,1,.434,3.95c-0.01,0-.023.01-0.033,0.01a0.035,0.035,0,0,0-.029.01,2.068,2.068,0,0,1-.426.04A2,2,0,0,1,838.8,1729.28Zm6.761-2.29,0.044-.02a2,2,0,0,1,1.7,3.62,0.1,0.1,0,0,0-.047.02H847.26a1.965,1.965,0,0,1-.845.19A2,2,0,0,1,845.565,1726.99Zm6.126-3.77a1.963,1.963,0,0,1,1.231-.42,1.995,1.995,0,0,1,1.234,3.57l-0.044.03a1.969,1.969,0,0,1-1.229.43,2,2,0,0,1-1.23-3.58Zm5.107-5a1.983,1.983,0,0,1,1.551-.74,2,2,0,0,1,1.548,3.27l-0.028.03s-0.008.01-.012,0.01a2,2,0,0,1-3.09-2.54Zm3.872-6.01a2,2,0,0,1,3.586,1.77l-0.031.06a2,2,0,0,1-1.787,1.11,2,2,0,0,1-1.789-2.9Zm2.425-6.66,0.012-.05a2,2,0,0,1,1.944-1.53,2.507,2.507,0,0,1,.468.05,2,2,0,0,1,1.476,2.41,0.248,0.248,0,0,1-.009.04,0.038,0.038,0,0,1,0,.02,2,2,0,0,1-1.939,1.53,1.907,1.907,0,0,1-.471-0.06A2,2,0,0,1,863.1,1705.55Z"
          transform="translate(-796 -1662)"/>
</svg>
