<svg xmlns="http://www.w3.org/2000/svg" width="72" height="72" viewBox="0 0 72 72">
    <defs>
        <style>
            .cls-1 {
            fill: #fff;
            fill-rule: evenodd;
            }
        </style>
    </defs>
    <path id="Elipsa_32" data-name="Elipsa 32" class="cls-1" d="M1759,2463v-64h72v64h-72Zm68-60h-64v6h64v-6Zm0,10h-64v46h64v-46Zm-39,14.66h15a3,3,0,0,1,3,3V2446a3,3,0,0,1-3,3h-15a3,3,0,0,1-3-3v-15.34A3,3,0,0,1,1788,2427.66Zm4.5,16.01h5.25l-1.21-5.53a2.986,2.986,0,1,0-2.21-.04Zm3-23.62c-2.21,0-4.05,2.3-4.43,5.33h-2.97c0.55-4.74,3.65-8.38,7.4-8.38s6.85,3.64,7.4,8.38h-2.97C1799.55,2422.35,1797.71,2420.05,1795.5,2420.05ZM1767,2407h-2v-2h2v2Zm4,0h-2v-2h2v2Zm4,0h-2v-2h2v2Z" transform="translate(-1759 -2395)"/>
</svg>
