<svg xmlns="http://www.w3.org/2000/svg" width="72" height="72" viewBox="0 0 72 72">
    <defs>
        <style>
            .cls-1 {
            fill: #fff;
            fill-rule: evenodd;
            }
        </style>
    </defs>
    <path id="Kształt_41" data-name="Kształt 41" class="cls-1"
          d="M353,194a36,36,0,1,1,36-36A36,36,0,0,1,353,194Zm29.519-24H366.853a49.934,49.934,0,0,1-7.832,19.31A31.916,31.916,0,0,0,382.519,170ZM353,189.886c0.551,0,1.1-.015,1.644-0.042A49.509,49.509,0,0,0,362.853,170H343.147a49.509,49.509,0,0,0,8.209,19.844C351.9,189.871,352.449,189.886,353,189.886Zm11-32.3a56.48,56.48,0,0,0-.826-9.584H342.821a56.48,56.48,0,0,0-.826,9.584,67.934,67.934,0,0,0,.517,8.416h20.976A67.934,67.934,0,0,0,364.005,157.584ZM346.979,189.31A49.934,49.934,0,0,1,339.147,170H323.48A31.919,31.919,0,0,0,346.979,189.31ZM321.114,158a31.876,31.876,0,0,0,1.029,8h16.364a68.168,68.168,0,0,1-.512-8.416,56.513,56.513,0,0,1,.824-9.584H322.746A31.773,31.773,0,0,0,321.114,158Zm3.248-14h15.293a55.494,55.494,0,0,1,7.6-17.359A31.923,31.923,0,0,0,324.362,144ZM353,126.114c-0.472,0-.941.015-1.408,0.036A55.124,55.124,0,0,0,343.651,144h18.7a55.124,55.124,0,0,0-7.941-17.85C353.941,126.129,353.472,126.114,353,126.114Zm5.749,0.527a55.494,55.494,0,0,1,7.6,17.359h15.293A31.923,31.923,0,0,0,358.749,126.641ZM383.254,148H367.181a56.513,56.513,0,0,1,.824,9.584,68.168,68.168,0,0,1-.512,8.416h16.364A31.524,31.524,0,0,0,383.254,148Z"
          transform="translate(-317 -122)"/>
</svg>
