<svg xmlns="http://www.w3.org/2000/svg" width="72" height="72.094" viewBox="0 0 72 72.094">
    <defs>
        <style>
            .cls-1 {
            fill: #fff;
            fill-rule: evenodd;
            }
        </style>
    </defs>
    <path id="Kształt_93_kopia_9" data-name="Kształt 93 kopia 9" class="cls-1"
          d="M385,844v-5.172l-5.186,5.186A35.966,35.966,0,0,1,386.176,854h-4.542a31.921,31.921,0,0,0-22.39-17.27A45.478,45.478,0,0,1,366.636,854h-4a44.973,44.973,0,0,0-7.807-17.83c-0.6-.034-1.214-0.056-1.828-0.056s-1.223.022-1.828,0.056A44.973,44.973,0,0,0,343.365,854h-4a45.492,45.492,0,0,1,7.392-17.271A31.926,31.926,0,0,0,324.365,854h-4.541a36,36,0,0,1,6.451-10.087l-5.182-5.182V843.9H317.1V831.913h11.982v3.994h-5.163l5.184,5.185a35.96,35.96,0,0,1,47.894.083L382.171,836H377v-4h12v12h-4Zm-49.367,31.864a1.526,1.526,0,0,1-.938.3h-2.324a1.4,1.4,0,0,1-.9-0.29,1.53,1.53,0,0,1-.5-0.668l-2.1-5.695-2.1,5.695a1.53,1.53,0,0,1-.5.668,1.4,1.4,0,0,1-.9.29h-2.324a1.526,1.526,0,0,1-.938-0.3,1.043,1.043,0,0,1-.462-0.655l-3.612-15.926-0.028-.2a0.512,0.512,0,0,1,.182-0.391,0.626,0.626,0,0,1,.434-0.163h3.668a0.942,0.942,0,0,1,.546.163,0.831,0.831,0,0,1,.322.517l1.792,8.518,1.652-4.562a0.98,0.98,0,0,1,.952-0.73h2.632a0.98,0.98,0,0,1,.952.73l1.652,4.562,1.792-8.518a0.831,0.831,0,0,1,.322-0.517,0.942,0.942,0,0,1,.546-0.163h3.668a0.626,0.626,0,0,1,.434.163,0.512,0.512,0,0,1,.182.391l-0.028.2L336.1,875.209A1.043,1.043,0,0,1,335.633,875.864Zm23.3,0a1.528,1.528,0,0,1-.938.3h-2.324a1.393,1.393,0,0,1-.9-0.29,1.53,1.53,0,0,1-.5-0.668l-2.1-5.695-2.1,5.695a1.546,1.546,0,0,1-.5.668,1.4,1.4,0,0,1-.9.29h-2.324a1.524,1.524,0,0,1-.938-0.3,1.043,1.043,0,0,1-.462-0.655l-3.612-15.926-0.028-.2a0.508,0.508,0,0,1,.182-0.391,0.626,0.626,0,0,1,.434-0.163h3.668a0.942,0.942,0,0,1,.546.163,0.836,0.836,0,0,1,.322.517l1.792,8.518,1.652-4.562a0.979,0.979,0,0,1,.952-0.73h2.632a0.98,0.98,0,0,1,.952.73l1.652,4.562,1.792-8.518a0.831,0.831,0,0,1,.322-0.517,0.938,0.938,0,0,1,.546-0.163h3.668a0.628,0.628,0,0,1,.434.163,0.512,0.512,0,0,1,.182.391l-0.028.2-3.612,15.926A1.051,1.051,0,0,1,358.929,875.864Zm23.3,0a1.524,1.524,0,0,1-.938.3h-2.324a1.4,1.4,0,0,1-.9-0.29,1.546,1.546,0,0,1-.5-0.668l-2.1-5.695-2.1,5.695a1.53,1.53,0,0,1-.5.668,1.393,1.393,0,0,1-.9.29h-2.324a1.528,1.528,0,0,1-.938-0.3,1.051,1.051,0,0,1-.462-0.655l-3.612-15.926-0.028-.2a0.512,0.512,0,0,1,.182-0.391,0.628,0.628,0,0,1,.434-0.163h3.668a0.938,0.938,0,0,1,.546.163,0.831,0.831,0,0,1,.322.517l1.792,8.518,1.652-4.562a0.98,0.98,0,0,1,.952-0.73h2.632a0.979,0.979,0,0,1,.952.73l1.652,4.562,1.792-8.518a0.836,0.836,0,0,1,.322-0.517,0.942,0.942,0,0,1,.546-0.163h3.668a0.626,0.626,0,0,1,.434.163,0.508,0.508,0,0,1,.182.391l-0.028.2-3.612,15.926A1.043,1.043,0,0,1,382.224,875.864ZM321,897.171l5.18-5.18A35.986,35.986,0,0,1,319.057,880h4.423A31.914,31.914,0,0,0,347.4,899.385,60.705,60.705,0,0,1,339.385,880h4a60.64,60.64,0,0,0,8.31,19.853c0.431,0.017.864,0.033,1.3,0.033s0.869-.016,1.3-0.033A60.64,60.64,0,0,0,362.61,880h4a60.705,60.705,0,0,1-8.013,19.385A31.914,31.914,0,0,0,382.52,880h4.423a36,36,0,0,1-7.035,11.9L385,896.99v-5.164H389v11.983H377.012v-4h5.164l-5.095-5.094a35.885,35.885,0,0,1-48.063.09l-5.19,5.19H329v4H317V892h4v5.171Z"
          transform="translate(-317 -831.906)"/>
</svg>
