<svg xmlns="http://www.w3.org/2000/svg" width="71.062" height="72" viewBox="0 0 71.062 72">
    <defs>
        <style>
            .cls-1 {
            fill: #fff;
            fill-rule: evenodd;
            }
        </style>
    </defs>
    <path id="www" class="cls-1"
          d="M598,2467v-23h30v23H598Zm5.111-20,9.46,7.88,9.2-7.88H603.111ZM625,2448.63l-12.375,10.6-0.039.18-0.087-.07-0.085.07-0.207-.32L601,2449.61V2464h24v-15.37Zm-2.112-9.63A29.919,29.919,0,0,0,594,2401a30.969,30.969,0,0,0-4.114.31,19.126,19.126,0,0,0-2.471-3.67A34,34,0,0,1,627.044,2439h-4.156ZM573,2395a14.99,14.99,0,0,1,13.743,9H559.256A14.991,14.991,0,0,1,573,2395Zm6.041,9h4.312a12.008,12.008,0,0,0-6.438-5.33A32.481,32.481,0,0,1,579.041,2404Zm-3.047,0a34.176,34.176,0,0,0-2.424-5.97c-0.191-.01-0.378-0.03-0.57-0.03s-0.38.02-.57,0.03a34.019,34.019,0,0,0-2.424,5.97h5.988Zm-9.035,0a32.49,32.49,0,0,1,2.125-5.33,12.011,12.011,0,0,0-6.438,5.33h4.313Zm-5.945,5.32-1.131-2.88H561.7l0.54,1.85,0.539-1.85h1.81l-1.125,2.88,0.393,1.36,1.523-4.24h2.151l-2.579,6.31h-1.863l-0.849-2.4-0.856,2.4h-1.857l-2.578-6.31h2.144l1.523,4.24ZM563.8,2455H558v-4h2.918A39.446,39.446,0,0,0,563.8,2455Zm12.61,10H562v-4h8.018A38.968,38.968,0,0,0,576.411,2465ZM560,2431a34.326,34.326,0,0,1,.643-6.59,19.43,19.43,0,0,0,3.672,2.48A29.747,29.747,0,0,0,593,2460.95v4.02A33.99,33.99,0,0,1,560,2431Zm16.957-9.68a12.051,12.051,0,0,0,6.921-6.32h3.25a14.98,14.98,0,0,1-28.256,0h3.25a12.052,12.052,0,0,0,6.92,6.32,28.991,28.991,0,0,1-2.4-6.32h2.971a28.1,28.1,0,0,0,2.764,6.97c0.208,0.01.414,0.03,0.625,0.03s0.417-.02.625-0.03a28.1,28.1,0,0,0,2.764-6.97h2.971A28.934,28.934,0,0,1,576.957,2421.32Zm-0.9-14.88h2.15l-2.578,6.31h-1.863l-0.85-2.4-0.855,2.4H570.2l-2.578-6.31h2.145l1.523,4.24,0.4-1.36-1.13-2.88h1.816l0.539,1.85,0.539-1.85h1.811l-1.125,2.88,0.392,1.36Zm10.675,0h2.151l-2.578,6.31h-1.864l-0.849-2.4-0.856,2.4h-1.857l-2.578-6.31h2.144l1.524,4.24,0.4-1.36-1.131-2.88h1.817l0.539,1.85,0.539-1.85h1.81l-1.125,2.88,0.393,1.36Zm8.264,12.57,12,11.99-12,11.99L592,2440l7-7H581v-4h18l-7-7Z"
          transform="translate(-556.938 -2395)"/>
</svg>
