<svg xmlns="http://www.w3.org/2000/svg" width="72" height="72" viewBox="0 0 72 72">
    <defs>
        <style>
            .cls-1 {
            fill: #fff;
            fill-rule: evenodd;
            }
        </style>
    </defs>
    <path id="Kształt_34" data-name="Kształt 34" class="cls-1"
          d="M1101,1461a6.99,6.99,0,0,1-6.68-5h-2.42a19.967,19.967,0,0,1-3.99,10.08l1.78,1.79a6.889,6.889,0,0,1,3.31-.87,7,7,0,1,1-7,7,6.889,6.889,0,0,1,.87-3.31l-1.69-1.68a19.967,19.967,0,0,1-11.18,4.89v2.43a7,7,0,1,1-4,0v-2.43a19.967,19.967,0,0,1-11.18-4.89l-1.69,1.68a6.889,6.889,0,0,1,.87,3.31,7,7,0,1,1-7-7,6.889,6.889,0,0,1,3.31.87l1.78-1.79a19.967,19.967,0,0,1-3.99-10.08h-2.43a7,7,0,1,1,0-4h2.43a19.967,19.967,0,0,1,3.99-10.08l-1.78-1.79a6.889,6.889,0,0,1-3.31.87,7,7,0,1,1,7-7,6.889,6.889,0,0,1-.87,3.31l1.69,1.68a19.967,19.967,0,0,1,11.18-4.89v-2.43a7,7,0,1,1,4,0v2.43a19.967,19.967,0,0,1,11.9,5.55l1.85-1.55a7.056,7.056,0,1,1,2.74,2.93l-2.01,1.67a20.027,20.027,0,0,1,3.42,9.3h2.43A6.984,6.984,0,1,1,1101,1461Zm-8,16a3,3,0,1,0-3-3A3,3,0,0,0,1093,1477Zm-42-6a3,3,0,1,0,3,3A3,3,0,0,0,1051,1471Zm-8-20a3,3,0,1,0,3,3A3,3,0,0,0,1043,1451Zm8-20a3,3,0,1,0,3,3A3,3,0,0,0,1051,1431Zm43,7a3,3,0,1,0-3-3A3,3,0,0,0,1094,1438Zm-25,45a3,3,0,1,0,3-3A3,3,0,0,0,1069,1483Zm6-58a3,3,0,1,0-3,3A3,3,0,0,0,1075,1425Zm-3,13a16,16,0,1,0,16,16A15.983,15.983,0,0,0,1072,1438Zm29,13a3,3,0,1,0,3,3A3,3,0,0,0,1101,1451Zm-19.91,6s-1.02-3.66-1.03-3.91h-0.03c-0.02.28-1.06,3.91-1.06,3.91h-1.47l-1.5-6h1.41s0.86,3.56.87,3.84c0.01-.21,1.16-3.84,1.16-3.84h1.37s0.98,3.53,1,3.81h0.03c0.01-.22.88-3.81,0.88-3.81H1084l-1.5,6h-1.41Zm-8,0s-1.02-3.66-1.03-3.91h-0.03c-0.02.28-1.06,3.91-1.06,3.91h-1.47l-1.5-6h1.41s0.86,3.56.87,3.84c0.01-.21,1.16-3.84,1.16-3.84h1.37s0.98,3.53,1,3.81h0.03c0.01-.22.88-3.81,0.88-3.81H1076l-1.5,6h-1.41Zm-8,0s-1.02-3.66-1.03-3.91h-0.03c-0.02.28-1.06,3.91-1.06,3.91h-1.47l-1.5-6h1.41s0.86,3.56.87,3.84c0.01-.21,1.16-3.84,1.16-3.84h1.37s0.98,3.53,1,3.81h0.03c0.01-.22.88-3.81,0.88-3.81H1068l-1.5,6h-1.41Zm10.85-12.19a14.544,14.544,0,0,1,1.56,4.19h-2.09c-0.76-3.04-2.13-5-3.41-5s-2.65,1.96-3.41,5h-2.09a14.544,14.544,0,0,1,1.56-4.19,10.122,10.122,0,0,0-4.72,4.19h-2.25a12,12,0,0,1,21.82,0h-2.25A10.122,10.122,0,0,0,1075.94,1444.81Zm-7.88,18.38a14.657,14.657,0,0,1-1.56-4.19h2.09c0.76,3.04,2.13,5,3.41,5s2.65-1.96,3.41-5h2.09a14.657,14.657,0,0,1-1.56,4.19,10.176,10.176,0,0,0,4.72-4.19h2.25a12,12,0,0,1-21.82,0h2.25A10.176,10.176,0,0,0,1068.06,1463.19Z"
          transform="translate(-1036 -1418)"/>
</svg>
