<svg xmlns="http://www.w3.org/2000/svg" width="72" height="72" viewBox="0 0 72 72">
    <defs>
        <style>
            .cls-1 {
            fill: #fff;
            fill-rule: evenodd;
            }
        </style>
    </defs>
    <path id="Prostokąt_95_kopia_4" data-name="Prostokąt 95 kopia 4" class="cls-1" d="M845.806,3157a41.74,41.74,0,0,0,3.41-4H861v-28H801v28h27.279l-4,4H797v-40h68v40H845.806Zm-25.534,4H798v-2h24.274Zm-4,4H800v-2h18.27Zm11.116-6.09,5.693,5.7-8.54,8.54h0c-0.043.04-.118,0.11-0.2,0.2l-0.508.51s0.472,0.47.711,0.71a1.013,1.013,0,0,0,1.424,0c0.237-.24.711-0.71,0.711-0.71l1.293-1.29,0.842-.85,8.54-8.54a1.009,1.009,0,0,1,1.424,1.43l-11.387,11.38a0.7,0.7,0,0,1-.158.13,2.98,2.98,0,0,1-4.693-.97l-0.131.13c-1.965,1.97-4.833,2.29-6.4.71s-1.253-4.44.712-6.4ZM805,3131h34v2H805v-2Zm33,13.27c-0.358.24-.7,0.49-1.037,0.73H805v-2h33v1.27ZM805,3137h28v2H805v-2Zm42-6h10v2H847v-2Zm5.6,9.82c-0.119,2.57-3.629,7.9-5.286,9.55l-12.81,12.81-5.694-5.69,12.81-12.81c1.658-1.66,6.983-5.17,9.557-5.29l1.118-1.11a1.006,1.006,0,1,1,1.424,1.42ZM863,3159v2H841l2.694-2H863Zm-2,4v2H842.1l1.9-2h17Z" transform="translate(-795 -3111)"/>
</svg>
