<svg xmlns="http://www.w3.org/2000/svg" width="72" height="71.38" viewBox="0 0 72 71.38">
    <defs>
        <style>
            .cls-1 {
            fill: #fff;
            fill-rule: evenodd;
            }
        </style>
    </defs>
    <path id="Elipsa_24" data-name="Elipsa 24" class="cls-1"
          d="M1344.45,1730.63l-2.9,2.74-12.28-13.15a32.963,32.963,0,1,1,2.9-2.76ZM1337,1695a29,29,0,1,0-29,29A29,29,0,0,0,1337,1695Zm-13.6,7.75h-2.13a0.751,0.751,0,0,1-.75-0.76v-0.64a5.217,5.217,0,0,1-3.89,1.68c-2.11,0-3.62-.6-4.51-1.81a7.7,7.7,0,0,1-1.35-4.74v-7.53a0.741,0.741,0,0,1,.23-0.54,0.71,0.71,0,0,1,.53-0.22h2.13a0.751,0.751,0,0,1,.75.76v7.11a4.387,4.387,0,0,0,.75,2.73,3.153,3.153,0,0,0,4.56-.03,4.2,4.2,0,0,0,.8-2.7v-7.11a0.751,0.751,0,0,1,.75-0.76h2.13a0.71,0.71,0,0,1,.53.22,0.741,0.741,0,0,1,.23.54v13.04a0.741,0.741,0,0,1-.23.54A0.71,0.71,0,0,1,1323.4,1702.75Zm-16.29-5.71h-9.36a2.281,2.281,0,0,0,.96,1.92,3.69,3.69,0,0,0,2.26.71,3.83,3.83,0,0,0,2.38-.64,2.651,2.651,0,0,1,.51-0.31,1.3,1.3,0,0,1,.53-0.09h2.24a0.74,0.74,0,0,1,.53.21,0.667,0.667,0,0,1,.23.49,2.58,2.58,0,0,1-.77,1.49,6.369,6.369,0,0,1-2.23,1.55,8.216,8.216,0,0,1-3.42.66,6.81,6.81,0,0,1-3.62-.95,6.318,6.318,0,0,1-2.4-2.66,8.861,8.861,0,0,1-.84-3.95,8.6,8.6,0,0,1,.84-3.82,6.651,6.651,0,0,1,2.41-2.73,6.561,6.561,0,0,1,3.61-1.01,6.716,6.716,0,0,1,3.62.97,6.559,6.559,0,0,1,2.42,2.59,7.475,7.475,0,0,1,.85,3.55v1.26a0.71,0.71,0,0,1-.22.53A0.736,0.736,0,0,1,1307.11,1697.04Zm-6.14-5.77a3.186,3.186,0,0,0-2.28.78,2.917,2.917,0,0,0-.94,1.8h6.33C1303.88,1692.13,1302.84,1691.27,1300.97,1691.27ZM1290,1703a2,2,0,1,1,2-2A2.006,2.006,0,0,1,1290,1703Z"
          transform="translate(-1273.735 -1662)"/>
</svg>
