<svg xmlns="http://www.w3.org/2000/svg" width="72" height="72" viewBox="0 0 72 72">
    <defs>
        <style>
            .cls-1 {
            fill: #fff;
            fill-rule: evenodd;
            }
        </style>
    </defs>
    <path id="Elipsa_33" data-name="Elipsa 33" class="cls-1"
          d="M1100.03,2652h0.11a31.04,31.04,0,0,0-21.66-17.31,42.864,42.864,0,0,1,7.34,14.67,19.384,19.384,0,0,0-3.72,1.07,42.923,42.923,0,0,0-8.12-16.36c-0.63-.04-1.26-0.07-1.9-0.07a43.215,43.215,0,0,0-8.6,18h15.49a20.892,20.892,0,0,0-4.74,4h-11.52a60.691,60.691,0,0,0-.71,9.42,51.381,51.381,0,0,0,.73,8.58h6.91a32.6,32.6,0,0,0,1.4,4h-7.46a48.859,48.859,0,0,0,8.74,17.99c0.47-.01.93-0.03,1.4-0.05a47.142,47.142,0,0,0,3.83-5.79c0.67,1.08,1.36,2.15,2.05,3.18-0.5.75-.99,1.44-1.44,2.04,0.81-.16,1.61-0.37,2.4-0.6,0.82,1.21,1.62,2.38,2.39,3.47a35,35,0,1,1,23.34-40.29A20.775,20.775,0,0,0,1100.03,2652Zm-31.9,43.74a48.873,48.873,0,0,1-8.55-17.74h-15.72A31.007,31.007,0,0,0,1068.13,2695.74ZM1041,2665a31.1,31.1,0,0,0,1.33,9h16.4a51.381,51.381,0,0,1-.73-8.58,60.691,60.691,0,0,1,.71-9.42h-16.38A31.1,31.1,0,0,0,1041,2665Zm2.86-13h15.62a43.456,43.456,0,0,1,8.36-17.71A31.017,31.017,0,0,0,1043.86,2652Zm46.14,3a16.127,16.127,0,0,1,16,16.25c0,8.97-16,28.75-16,28.75s-16-19.78-16-28.75A16.127,16.127,0,0,1,1090,2655Zm0.5,20a4.5,4.5,0,1,0-4.5-4.5A4.494,4.494,0,0,0,1090.5,2675Z"
          transform="translate(-1035.64 -2629)"/>
</svg>
