<svg xmlns="http://www.w3.org/2000/svg" width="72" height="72" viewBox="0 0 72 72">
    <defs>
        <style>
            .cls-1 {
            fill: #fff;
            fill-rule: evenodd;
            }
        </style>
    </defs>
    <path id="Kształt_83" data-name="Kształt 83" class="cls-1"
          d="M2554.45,2463.63l-2.9,2.74-12.28-13.15a32.963,32.963,0,1,1,2.9-2.76ZM2547,2428a29,29,0,1,0-29,29A29,29,0,0,0,2547,2428Zm-14.98,3.45a19.217,19.217,0,0,1,.42,3.16c0,0.57-.74.76-2.21,1.14a10.134,10.134,0,0,0-2.67.92c-0.49.46,0.44,2.27,1.11,3.59a9.94,9.94,0,0,1,1.36,3.62,3.5,3.5,0,0,1-2.65,4,5.648,5.648,0,0,1-1.23.13,10.1,10.1,0,0,1-2.59-.42,8.578,8.578,0,0,0-1.97-.34,2.92,2.92,0,0,0-1.75.56,24.68,24.68,0,0,1-3.13,1.93l-0.5.26-2.95-12.38h-0.07c-1.72,0-3.4-.77-3.58-2.39a4.761,4.761,0,0,1-.02-0.75,1.447,1.447,0,0,1-.43-0.64,3.136,3.136,0,0,1,.47-2.8,5.785,5.785,0,0,1,1.72-1.42l-0.74-3.07a4.552,4.552,0,0,1-.65.48c-0.16.08-.49-0.25-0.33-0.58,0.09-.16.17-0.33,0.25-0.49a8.437,8.437,0,0,0,.34-1.04l-0.39-1.62a4.866,4.866,0,0,1-1.77-.14c-0.25,0-.17-0.58.08-0.66a6.4,6.4,0,0,1,1.24-1.1l-0.5-2.12,0.32-.14a21.1,21.1,0,0,1,2.54-.94,3.85,3.85,0,0,0,.05-1.22c-0.09-.33,0-0.58.08-0.41a0.31,0.31,0,0,1,.5.08,12.414,12.414,0,0,1,.51,1.22,19.689,19.689,0,0,1,5.03-.71,13.2,13.2,0,0,1,8.23,2.61,15.1,15.1,0,0,1,4.28,6.28c0.22-.01.44-0.03,0.67-0.03,2.75,0,4.91,1.2,4.91,2.74C2536,2430.14,2534.34,2431.22,2532.02,2431.45Zm-21.54,3.69c0.12,1.06,1.3,1.57,2.57,1.61l-0.99-4.14C2510.59,2433.3,2510.36,2434.02,2510.48,2435.14Zm-0.18-3.55a2.292,2.292,0,0,0-.37,1.67,3.991,3.991,0,0,1,1.92-1.51l-0.3-1.25A4.992,4.992,0,0,0,2510.3,2431.59Zm-0.41-11.81,0.28,1.15a9.116,9.116,0,0,0,.79-0.57v-0.17a0.626,0.626,0,0,0,.33-0.33c0.06-.22.13-0.45,0.2-0.68C2510.96,2419.36,2510.42,2419.55,2509.89,2419.78Zm15.71,0.67a12.4,12.4,0,0,0-7.69-2.42,19.046,19.046,0,0,0-4.77.67c0.07,0.25.16,0.5,0.22,0.75a1.011,1.011,0,0,0,.33.74,4.208,4.208,0,0,0,1.74.25,7.283,7.283,0,0,0,1.41.33,0.3,0.3,0,0,1,.17.24,0.4,0.4,0,0,1-.17.5,5.76,5.76,0,0,0-1.91.82c0.5,0.66.92,1.24,1.41,1.9a7.4,7.4,0,0,0,.91,1.48,0.325,0.325,0,0,1,.09.33,0.982,0.982,0,0,1-.33.41,2.384,2.384,0,0,1-1.5-.74,5.953,5.953,0,0,0-2.65-1.48,1.3,1.3,0,0,0-.91.74c-0.2.29-.41,0.56-0.62,0.82l0.82,3.45a12.818,12.818,0,0,1,4.27-.82c0.12-1.93,2.03-3.47,4.4-3.47a4.212,4.212,0,0,1,4.33,3.1,3.038,3.038,0,0,1,1.2-.05c0.41-.92,1.57-1.59,3.18-1.85A13.973,13.973,0,0,0,2525.6,2420.45Zm5.55,11.05h-0.06c-2.93,0-4.84-1.04-4.9-2.66a2.5,2.5,0,0,0-1.01.1c-0.21,1.85-2.07,3.3-4.36,3.3a4.276,4.276,0,0,1-4.33-2.95,11.782,11.782,0,0,0-4.13.8l0.31,1.32c0.02,0,.03-0.01.05-0.01l0.29,0.82a0.5,0.5,0,0,0-.13.05l3.92,16.43a23.609,23.609,0,0,0,2.5-1.58l0.02-.02a3.9,3.9,0,0,1,2.27-.72,8.968,8.968,0,0,1,2.19.37,9.628,9.628,0,0,0,2.37.39,5.1,5.1,0,0,0,1.04-.11,2.382,2.382,0,0,0,1.85-1.71,3.549,3.549,0,0,0,.13-1.3,0.49,0.49,0,0,1-.24.08h-0.06c-4.83-.68-6.32-2.78-8.56-5.96l-0.1-.15a0.438,0.438,0,0,1,.72-0.5l0.1,0.15c2.26,3.21,3.5,4.97,7.97,5.6a0.133,0.133,0,0,1,.05.03,16.957,16.957,0,0,0-1.16-2.62c-0.99-1.93-1.92-3.76-.9-4.64l0.02-.02a9.81,9.81,0,0,1,3-1.08,12.251,12.251,0,0,0,1.55-.46A20.974,20.974,0,0,0,2531.15,2431.5Zm-8.43-16a3.191,3.191,0,0,0,.25-1.98c-0.58-2.14-2.98-3.79-2.32-5.85,0.5-1.57.91-3.38,2.32-2.39a1.364,1.364,0,0,1,.08,1.73,1.688,1.688,0,0,0-.25,2.23,13.612,13.612,0,0,0,1.41,2.38c0.83,1.16,1.82,2.39-.25,4.62A0.733,0.733,0,0,1,2522.72,2415.5Zm-3.64-5.61c0.25,1.98,2.48,3.79,1.32,5.77a1.752,1.752,0,0,1-2.07.82,0.718,0.718,0,0,1-.58-0.82,1.69,1.69,0,0,1,.83-0.49,1.487,1.487,0,0,0,.33-1.65,20.573,20.573,0,0,0-1.57-2.97c-0.75-1.31.33-2.88,0.99-4.28,0.42-.74,1.74-0.66,1.74-0.25C2520.07,2407.26,2518.91,2408.58,2519.08,2409.89Zm-4.73,5.44c-0.49.58-1.82,0.58-1.57-.33a3.2,3.2,0,0,0,.08-1.98c-0.66-2.05-3.14-3.62-2.65-5.68a3.038,3.038,0,0,1,4.23-1.81c0.49,0.33-.5.82-1,0.99-0.41.16-1.24,0.16-1.24,0.57,0.08,1.4,1.16,2.56,1.91,3.88C2514.77,2412.2,2515.43,2413.93,2514.35,2415.33Zm-3.14,1.4a1.773,1.773,0,0,1-1.74,1.48c-0.42,0-.67.33-0.75-0.08a5.164,5.164,0,0,1,.58-1.15,1.4,1.4,0,0,0-.25-1.65c-0.74-.91-1.65-1.56-2.32-2.39-1.16-1.07-.66-2.8-0.41-4.36,0.16-.83,1.41-1.24,1.57-0.83,0.42,1.16-.33,2.72.25,3.87C2508.97,2413.44,2511.62,2414.51,2511.21,2416.73Z"
          transform="translate(-2483.735 -2394.69)"/>
</svg>
