<svg xmlns="http://www.w3.org/2000/svg" width="72" height="72" viewBox="0 0 72 72">
    <defs>
        <style>
            .cls-1 {
            fill: #fff;
            fill-rule: evenodd;
            }
        </style>
    </defs>
    <path id="Elipsa_26_kopia_3" data-name="Elipsa 26 kopia 3" class="cls-1"
          d="M1588.99,1698.47a0.109,0.109,0,0,1-.01.05,1.983,1.983,0,0,1-1.99,1.96h-0.03a1.985,1.985,0,0,1-1.97-2.02v-0.05a2,2,0,0,1,2-1.98h0.02a2.008,2.008,0,0,1,1.98,2.03v0.01Zm-2.32-5.59a2.018,2.018,0,0,1-2.37-1.54l-0.01-.05a2,2,0,1,1,3.91-.84,0.2,0.2,0,0,0,.01.07A1.993,1.993,0,0,1,1586.67,1692.88Zm-1.97-7.34a2.082,2.082,0,0,1-.84.18,2,2,0,0,1-1.82-1.16l-0.02-.04a2.012,2.012,0,0,1,.97-2.66,2.118,2.118,0,0,1,.84-0.18,1.994,1.994,0,0,1,1.82,1.15h0c0,0.01.01,0.02,0.01,0.03h0a0.037,0.037,0,0,1,.01.03A2,2,0,0,1,1584.7,1685.54ZM1577,1681a5.979,5.979,0,0,1-3.99-10.45,0.594,0.594,0,0,1,.04-0.08,2.014,2.014,0,0,1,.88-0.6,5.936,5.936,0,0,1,3.07-.87A6,6,0,0,1,1577,1681Zm-24.13,35a19,19,0,0,1,0-38,18.009,18.009,0,0,1,12.65,4.97l-5.12,4.96a10.645,10.645,0,0,0-7.53-2.93,12,12,0,0,0,0,24c7.47,0,10.28-5.4,10.71-8.2h-10.71v-6.51h17.83a17.78,17.78,0,0,1,.29,3.14C1570.99,1708.29,1563.77,1716,1552.87,1716Zm15.41-46.38a2.079,2.079,0,0,1-.9-0.21l-0.04-.02a2,2,0,0,1,.9-3.79,2.037,2.037,0,0,1,.89.21l0.06,0.03A2,2,0,0,1,1568.28,1669.62Zm-7.11-2.63a1.973,1.973,0,0,1-.48-0.06l-0.05-.01a2,2,0,0,1,.47-3.94,1.959,1.959,0,0,1,.48.05,0.031,0.031,0,0,0,.02.01h0.02c0.01,0,.01.01,0.02,0.01A2,2,0,0,1,1561.17,1666.99Zm-7.53-.98h-0.04l-0.05-.01c-0.09,0-.18-0.01-0.28-0.02a2.458,2.458,0,0,1-.28.02h-0.05a2,2,0,0,1,0-4H1553c0.1,0,.21.01,0.31,0.02a2.528,2.528,0,0,1,.28-0.01h0.09A2,2,0,0,1,1553.64,1666.01Zm-7.75.78-0.05.01a1.7,1.7,0,0,1-.44.05,2,2,0,0,1-.45-3.95h0.01a0.227,0.227,0,0,1,.04-0.01h0.01a2.283,2.283,0,0,1,.44-0.05A2,2,0,0,1,1545.89,1666.79Zm-6.74,2.35-0.04.02a1.941,1.941,0,0,1-.87.2,2,2,0,0,1-.87-3.8h0.01a0.219,0.219,0,0,1,.05-0.03,1.983,1.983,0,0,1,.85-0.19A2,2,0,0,1,1539.15,1669.14ZM1529,1680a6,6,0,1,1,6-6A6,6,0,0,1,1529,1680Zm-4.79,4.02-0.02.04a2.017,2.017,0,0,1-1.81,1.13,2.084,2.084,0,0,1-.87-0.2,2.013,2.013,0,0,1-.93-2.67l0.03-.06a2,2,0,0,1,1.8-1.12,2.084,2.084,0,0,1,.87.2A2.007,2.007,0,0,1,1524.21,1684.02Zm-2.39,6.73-0.01.05a2,2,0,0,1-1.94,1.55,2.3,2.3,0,0,1-.45-0.05,2.006,2.006,0,0,1-1.51-2.39,0.254,0.254,0,0,0,.02-0.07,2,2,0,0,1,1.94-1.54,1.851,1.851,0,0,1,.46.05A2,2,0,0,1,1521.82,1690.75Zm-2.81,5.09a1.993,1.993,0,0,1,1.99,2.01v0.05a2,2,0,0,1-2,1.99h-0.01a2,2,0,0,1-1.99-2v-0.06a2,2,0,0,1,2-1.99h0.01Zm0.36,7.6a2.2,2.2,0,0,1,.44-0.05,2.014,2.014,0,0,1,1.95,1.57l0.01,0.05a2,2,0,0,1-1.52,2.38,1.652,1.652,0,0,1-.44.05,1.985,1.985,0,0,1-1.94-1.56l-0.01-.01v-0.02h0a0.037,0.037,0,0,0-.01-0.03A2,2,0,0,1,1519.37,1703.44Zm5.13,5.56a6.5,6.5,0,1,1-6.5,6.5A6.5,6.5,0,0,1,1524.5,1709Zm7.1,13.43a1.975,1.975,0,0,1,1.26.44l0.04,0.03a2,2,0,0,1-1.26,3.56,1.979,1.979,0,0,1-1.25-.45h-0.01c-0.01-.01-0.03-0.02-0.04-0.03a2.009,2.009,0,0,1-.29-2.81A1.974,1.974,0,0,1,1531.6,1722.43Zm6.4,4.09a2,2,0,0,1,.88.21l0.04,0.02a2,2,0,1,1-1.76,3.59h-0.01a0.053,0.053,0,0,0-.03-0.02h-0.01A2,2,0,0,1,1538,1726.52Zm7.14,2.57a2.487,2.487,0,0,1,.46.05l0.04,0.01a2,2,0,0,1-.45,3.95,2.3,2.3,0,0,1-.45-0.05c-0.01,0-.03-0.01-0.04-0.01a0.037,0.037,0,0,1-.03-0.01A2,2,0,0,1,1545.14,1729.09Zm7.53,0.91h0.07a2,2,0,0,1-.01,4h-0.08A2,2,0,0,1,1552.67,1730Zm7.13-.72,0.05-.01a1.58,1.58,0,0,1,.43-0.05,2,2,0,0,1,.43,3.95c-0.01,0-.02.01-0.03,0.01a0.037,0.037,0,0,0-.03.01,2.087,2.087,0,0,1-.43.04A2,2,0,0,1,1559.8,1729.28Zm6.76-2.29,0.05-.02a1.951,1.951,0,0,1,.85-0.19,2,2,0,0,1,.85,3.81,0.076,0.076,0,0,0-.04.02h-0.01a1.951,1.951,0,0,1-.85.19,1.99,1.99,0,0,1-1.81-1.15A2.016,2.016,0,0,1,1566.56,1726.99Zm9.94-11.99a6.5,6.5,0,1,1-6.5,6.5A6.5,6.5,0,0,1,1576.5,1715Zm5.15-2.75,0.02-.04a2,2,0,0,1,3.59,1.77l-0.03.06A2,2,0,1,1,1581.65,1712.25Zm2.45-6.7,0.01-.05a1.994,1.994,0,0,1,1.94-1.53,2.5,2.5,0,0,1,.47.05,2.012,2.012,0,0,1,1.48,2.41,0.076,0.076,0,0,0-.01.04,0.031,0.031,0,0,0-.01.02,1.994,1.994,0,0,1-1.94,1.53,1.954,1.954,0,0,1-.47-0.06A2,2,0,0,1,1584.1,1705.55Z"
          transform="translate(-1517 -1662)"/>
</svg>
