<svg width="72" height="72" viewBox="0 0 72 72" fill="none" xmlns="http://www.w3.org/2000/svg">
    <path d="M48 11.6363V59.6363C48 65.0113 51.7045 68 55.6364 68C59.2727 68 63.2727 65.4545 63.2727 59.6363V12C63.2727 7.07954 59.6364 4 55.6364 4C51.6364 4 48 7.39772 48 11.6363Z" fill="white"/>
    <path d="M27.9998 36V59.6363C27.9998 65.0113 31.7043 68 35.6361 68C39.2725 68 43.2725 65.4545 43.2725 59.6363V36.3636C43.2725 31.4432 39.6361 28.3636 35.6361 28.3636C31.6361 28.3636 27.9998 31.7614 27.9998 36Z" fill="white"/>
    <path d="M23.2727 60.3636C23.2727 64.5796 19.8523 68 15.6364 68C11.4205 68 8 64.5796 8 60.3636C8 56.1477 11.4205 52.7273 15.6364 52.7273C19.8523 52.7273 23.2727 56.1477 23.2727 60.3636Z" fill="white"/>
</svg>
