<svg xmlns="http://www.w3.org/2000/svg" width="72" height="72" viewBox="0 0 72 72">
    <defs>
        <style>
            .cls-1 {
            fill: #fff;
            fill-rule: evenodd;
            }
        </style>
    </defs>
    <path id="Kształt_2162" data-name="Kształt 2162" class="cls-1"
          d="M627.919,2907.48l-4.019-.21a46.373,46.373,0,0,0,.044-4.68,33.324,33.324,0,0,0-13-24.61l2.467-3.16a37.315,37.315,0,0,1,14.557,27.55A50.557,50.557,0,0,1,627.919,2907.48Zm-12.025,16.69-3.836-1.21a60.38,60.38,0,0,0,2.973-19.88,24.658,24.658,0,0,0-24.686-23.24v-3.99a28.664,28.664,0,0,1,28.706,27.01A63.681,63.681,0,0,1,615.894,2924.17Zm-25.549-53.19c-0.685,0-1.373.02-2.016,0.06a33.633,33.633,0,0,0-10.492,2.28l-1.488-3.71a37.564,37.564,0,0,1,11.749-2.55c0.712-.05,1.472-0.07,2.247-0.07a38,38,0,0,1,17.861,4.47l-1.912,3.51A33.894,33.894,0,0,0,590.345,2870.98Zm-25.133,11.12a33.987,33.987,0,0,0-2.972,3.8,34.9,34.9,0,0,0-2.6,4.59l-3.652-1.68a38.1,38.1,0,0,1,2.9-5.12,36.893,36.893,0,0,1,3.327-4.26,37.921,37.921,0,0,1,9.217-7.45l2.019,3.45A33.741,33.741,0,0,0,565.212,2882.1Zm5.248,23.3a19.269,19.269,0,0,1,3.287-11.89l3.347,2.22a15.358,15.358,0,0,0-2.613,9.51,15.973,15.973,0,0,1-8.951,14.56l-0.139.06a23.5,23.5,0,0,1-7.826,1.31v-3.99a19.963,19.963,0,0,0,6.289-1.01C570.593,2912.86,570.468,2905.71,570.46,2905.4Zm8.916-.42a10.706,10.706,0,0,1,2.777-7.81,10.866,10.866,0,0,1,7.517-3.59c0.221-.01.433-0.02,0.642-0.02v4c-0.143,0-.288,0-0.433.01a6.88,6.88,0,0,0-6.482,7.22c0.028,0.67.506,16.01-13.972,22.97a33.959,33.959,0,0,1-5.456,2.22l-0.905-3.89a30.438,30.438,0,0,0,4.583-1.91C579.8,2918.33,579.4,2905.52,579.376,2904.98Zm4.457,16.13,3.459,2.04a32.248,32.248,0,0,1-13.969,12.59l-1.758-3.6A28.31,28.31,0,0,0,583.833,2921.11ZM590,2903a1.993,1.993,0,0,1,1.873,1.33l0.435-.02a36.117,36.117,0,0,1-3.146,15.24l-3.681-1.62a33.5,33.5,0,0,0,2.792-11.95,1.969,1.969,0,0,1-.267-0.98A1.994,1.994,0,0,1,590,2903Zm6.91-17.19-1.338,3.77a16.166,16.166,0,0,0-6.2-.86,15.607,15.607,0,0,0-9.634,3.98l-2.69-2.97a19.571,19.571,0,0,1,12.1-4.99A20.181,20.181,0,0,1,596.912,2885.81Zm-30.593,2.79a28.943,28.943,0,0,1,18.671-12.27l0.728,3.92a24.5,24.5,0,0,0-13.858,7.76,24.775,24.775,0,0,0-2.192,2.81,23.973,23.973,0,0,0-4.108,14.75l0,0.07-0.034,1.77-4.024-.08,0.031-1.62A27.93,27.93,0,0,1,566.319,2888.6Zm30.884,15.43a6.79,6.79,0,0,0-3.618-5.66l1.906-3.52a10.75,10.75,0,0,1,5.731,8.96c0.05,0.86,1.012,21.36-15.611,34.65l-2.526-3.11C598.117,2923.34,597.247,2904.81,597.2,2904.03Zm1.87-12.72,2.231-3.32a19.775,19.775,0,0,1,8.833,15.36l-4.019.21A15.793,15.793,0,0,0,599.073,2891.31Zm11,16.18c-0.429,6.89-2.594,20.14-12.287,31.5l-3.072-2.58c8.942-10.48,10.943-22.77,11.341-29.16Z"
          transform="translate(-556 -2867)"/>
</svg>
