<svg xmlns="http://www.w3.org/2000/svg" width="72" height="72" viewBox="0 0 72 72">
    <defs>
        <style>
            .cls-1 {
            fill: #fff;
            fill-rule: evenodd;
            }
        </style>
    </defs>
    <path id="Kształt_22" data-name="Kształt 22" class="cls-1" d="M1051.19,406a3,3,0,1,1,3-3A3,3,0,0,1,1051.19,406ZM1051,391a3,3,0,1,1-3-3A3,3,0,0,1,1051,391Zm0.19-15a3,3,0,1,1-3,3A3,3,0,0,1,1051.19,376Zm48.56,37.875L1098.91,415h-15.09a11.2,11.2,0,0,0,0-4h13.58a32,32,0,1,0-50.8,0h13.58a11.2,11.2,0,0,0,0,4h-15.09l-0.84-1.125A36,36,0,1,1,1099.75,413.875ZM1057,370.187a3,3,0,1,1,3,3A3,3,0,0,1,1057,370.187ZM1069,367a3,3,0,1,1,3,3A3,3,0,0,1,1069,367Zm12,3.187a3,3,0,1,1,3,3A3,3,0,0,1,1081,370.187ZM1071.5,395a5.5,5.5,0,1,1,5.5-5.5,0.9,0.9,0,0,1-.02.162l17.93,14.5-21.53-9.51A5.5,5.5,0,0,1,1071.5,395Zm19.5-12.813a3,3,0,1,1,3-3A3,3,0,0,1,1091,382.187Zm8,8.813a3,3,0,1,1-3-3A3,3,0,0,1,1099,391Zm-27,14a8,8,0,1,1-8,8A8,8,0,0,1,1072,405Zm-1,13h2v-2h-2v2Zm0-4h2v-6h-2v6Z" transform="translate(-1036 -352)"/>
</svg>
