<svg xmlns="http://www.w3.org/2000/svg" width="72" height="72.09" viewBox="0 0 72 72.09">
    <defs>
        <style>
            .cls-1 {
            fill: #fff;
            fill-rule: evenodd;
            }
        </style>
    </defs>
    <path id="Kształt_93_kopia_4" data-name="Kształt 93 kopia 4" class="cls-1" d="M1827,1919v-5.17l-7.46,7.46-2.83-2.83,7.46-7.46H1819v-4h12v12h-4Zm-2,23.23c0,11.86-4.71,18.77-4.71,18.77h-11.28v-36h11.28A32.718,32.718,0,0,1,1825,1942.23ZM1785,1925h20v36h-20v-36Zm-21,17.23a32.718,32.718,0,0,1,4.71-17.23h12.28v36h-12.28S1764,1954.09,1764,1942.23Zm6.54-21.05-7.45-7.45v5.17h-3.99v-11.99h11.98v4h-5.16l7.45,7.45Zm-7.54,50.99,6.36-6.36,2.83,2.83-6.36,6.36H1771v4h-12v-12h4v5.17Zm57.65-6.53,6.35,6.35v-5.16h3.99v11.98h-11.98v-4h5.17l-6.35-6.35Z" transform="translate(-1759 -1906.91)"/>
</svg>
