<svg xmlns="http://www.w3.org/2000/svg" width="72" height="72" viewBox="0 0 72 72">
    <defs>
        <style>
            .cls-1 {
            fill: #fff;
            fill-rule: evenodd;
            }
        </style>
    </defs>
    <path id="Kształt_78" data-name="Kształt 78" class="cls-1" d="M2034.17,1970.7l-3.9-3.9,0.71-4.95,3.19,3.19,31.11-31.11-19.69-19.7-4.14,26.58-0.48-.08,0.08,0.48-26.57,4.14,1.67,1.67-4.95.71-3.9-3.9,1.61-1.61-0.01-.01,0.03-.01,33.52-33.52v-0.02h0.01l1.61-1.6,26.87,26.87Zm-18.54-29.54,22.3-3.47,3.47-22.31Zm-15.04,9.43L2004,1947l3,3-3.59,3.41Zm9.82,7.82-6,6-2.82-2.82,6-6Zm1,12-6,6-2.82-2.82,6-6Zm14.99-3.23-14.87-14.87,16.63-1.77Zm-8.99-2.77-3,3-2.82-2.82,3-3Zm6,6-6,6-2.82-2.82,6-6ZM2031,1974l-2.59,2.41-2.82-2.82L2028,1971Z" transform="translate(-1999.765 -1905.735)"/>
</svg>
