<svg xmlns="http://www.w3.org/2000/svg" width="72" height="72" viewBox="0 0 72 72">
    <defs>
        <style>
            .cls-1 {
            fill: #fff;
            fill-rule: evenodd;
            }
        </style>
    </defs>
    <path id="icon_kopiuj_3_kopia" data-name="icon kopiuj 3 kopia" class="cls-1"
          d="M1072,194a36,36,0,1,1,36-36A36,36,0,0,1,1072,194Zm29.48-26.183a47.273,47.273,0,0,0-5.04-9.133,52.2,52.2,0,0,1-3.93,6.559,5.487,5.487,0,0,1,.39,1.992,5.334,5.334,0,0,1-6.54,5.23,51.544,51.544,0,0,1-12.14,8.87,46.117,46.117,0,0,0,9.61,5.4A31.17,31.17,0,0,0,1101.48,167.817Zm-23.57-24.657a46.669,46.669,0,0,0-19.88-4.419c-0.99,0-1.97.041-2.94,0.1-0.13,1.411-.22,2.833-0.22,4.277a47.272,47.272,0,0,0,3.9,18.834,5.325,5.325,0,0,1,4.93,8.724,47.554,47.554,0,0,0,6.86,7.684,47.186,47.186,0,0,0,12.31-8.5,5.3,5.3,0,0,1-.71-2.621,5.332,5.332,0,0,1,7.25-5.011,47.786,47.786,0,0,0,4.08-7.294,47.589,47.589,0,0,0-7.34-6.816,5.353,5.353,0,0,1-8.28-4.5C1077.87,143.461,1077.9,143.313,1077.91,143.16Zm-0.28,45.389a50.511,50.511,0,0,1-7.8-5.177,50.791,50.791,0,0,1-10.49,3A30.967,30.967,0,0,0,1077.63,188.549Zm-24.39-5.789a46.777,46.777,0,0,0,12.96-2.606,51.586,51.586,0,0,1-6.4-7.57c-0.06,0-.12.019-0.18,0.019a5.356,5.356,0,0,1-4.49-8.3,51.478,51.478,0,0,1-4.54-21.187c0-1.283.05-2.553,0.14-3.811-1.41.221-2.8,0.516-4.17,0.864A31.05,31.05,0,0,0,1053.24,182.76Zm-1.97-47.9c-0.02.015-.03,0.028-0.05,0.042a0.2,0.2,0,0,0,.04-0.007A0.046,0.046,0,0,0,1051.27,134.863Zm20.73-7.932a30.955,30.955,0,0,0-15.54,4.168c-0.29,1.118-.56,2.248-0.77,3.4,0.77-.035,1.55-0.06,2.34-0.06a50.885,50.885,0,0,1,21.93,4.951,5.342,5.342,0,0,1,8.64,4.227,5.487,5.487,0,0,1-.09.914,52.226,52.226,0,0,1,6.71,5.922,48.3,48.3,0,0,0,2.19-10.326A31.047,31.047,0,0,0,1072,126.931Zm28.77,19.33a52.557,52.557,0,0,1-2.33,7.922,51.5,51.5,0,0,1,4.48,6.818,29.779,29.779,0,0,0,.15-3A30.965,30.965,0,0,0,1100.77,146.261Z"
          transform="translate(-1036 -122)"/>
</svg>
