<svg xmlns="http://www.w3.org/2000/svg" width="72" height="72" viewBox="0 0 72 72">
    <defs>
        <style>
            .cls-1 {
            fill: #fff;
            fill-rule: evenodd;
            }
        </style>
    </defs>
    <path id="Kształt_2164" data-name="Kształt 2164" class="cls-1"
          d="M2249.46,2653.48c9.63-31.6,48.84-25.42,57.19-8.67,0.89,1.8,1.87,3.41.16,6.56a20.57,20.57,0,0,1-3.4,4.6,31.148,31.148,0,0,1-3.61,2.96c-8.39,6.34-21.16,3.9-30.41,3.67-7.69-.19-16.66,4.52-21.11,11.32l-1.28-.78c2.67-4.45,5.86-10.07,14.75-13.63,11.06-4.43,20.11.63,29.09-2.93-8.08-9.19-19.05-9.92-26.66-6.72-6.52,2.74-12.13,8.59-15.34,15.03l-1.28-.47c9.78-26.91,38.6-24.32,50.75-10.07,0,0,4.78-2.99,4.1-4.7-4.24-10.63-19.95-16.51-33.4-13.48-8.28,1.87-15.78,9.38-17.94,17.46a7.781,7.781,0,0,1-1.61-.15h0Zm61.55,3.37c-2.68,4.45-5.87,10.07-14.75,13.63-11.06,4.44-20.11-.62-29.09,2.93,8.08,9.19,19.05,9.92,26.66,6.72,6.52-2.73,12.13-8.59,15.34-15.03l1.28,0.48c-9.78,26.9-38.6,24.31-50.75,10.06,0,0-4.78,2.99-4.1,4.7,4.24,10.63,19.95,16.51,33.4,13.48,8.27-1.86,15.77-9.37,17.94-17.46a8.533,8.533,0,0,1,1.61.15h0c-9.63,31.6-48.84,25.42-57.19,8.68-0.9-1.81-1.88-3.42-.16-6.57a21.039,21.039,0,0,1,3.4-4.6,31.051,31.051,0,0,1,3.61-2.95c8.38-6.35,21.16-3.9,30.4-3.67,7.69,0.19,16.67-4.52,21.11-11.32l1.29,0.77"
          transform="translate(-2243 -2629)"/>
</svg>
