<svg width="72" height="72" viewBox="0 0 72 72" fill="none" xmlns="http://www.w3.org/2000/svg">
    <path d="M32 36C32 38.2091 33.7909 40 36 40C37.9831 40 39.6292 38.5568 39.9452 36.6635L42.6607 33.8409C42.881 34.5209 43 35.2466 43 36C43 39.866 39.866 43 36 43C32.134 43 29 39.866 29 36C29 32.134 32.134 29 36 29C36.6444 29 37.2685 29.0871 37.8611 29.2501L35.0888 32.1042C33.3187 32.5166 32 34.1043 32 36Z" fill="white"/>
    <path d="M36 24C29.3726 24 24 29.3726 24 36C24 42.6274 29.3726 48 36 48C42.6274 48 48 42.6274 48 36C48 33.7997 47.4078 31.7377 46.3742 29.9648L48.5155 27.7289C50.0856 30.1 51 32.9432 51 36C51 44.2843 44.2843 51 36 51C27.7157 51 21 44.2843 21 36C21 27.7157 27.7157 21 36 21C38.8153 21 41.4495 21.7756 43.7006 23.1248L41.5478 25.3566C39.8886 24.49 38.0015 24 36 24Z" fill="white"/>
    <path d="M36 16C24.9543 16 16 24.9543 16 36C16 47.0457 24.9543 56 36 56C47.0457 56 56 47.0457 56 36C56 33.3785 55.4964 30.8783 54.5821 28.5882C53.9319 26.9597 53.0735 25.4363 52.0399 24.0512L54.1326 21.8489C55.461 23.5489 56.5557 25.4406 57.3683 27.4759C58.4215 30.1139 59 32.9912 59 36C59 48.7025 48.7025 59 36 59C23.2975 59 13 48.7025 13 36C13 23.2975 23.2975 13 36 13C39.4552 13 42.7363 13.7629 45.6807 15.1308C46.9549 15.7229 48.1657 16.428 49.3004 17.2335L47.205 19.4309C47.1163 19.3708 47.0271 19.3114 46.9373 19.2527C46.1352 18.7277 45.2931 18.2588 44.4166 17.8515C41.8602 16.6638 39.0097 16 36 16Z" fill="white"/>
    <path fill-rule="evenodd" clip-rule="evenodd" d="M60.2794 10.6278C60.8783 11.2002 60.8998 12.1497 60.3274 12.7485L37.0866 37.0659C36.5142 37.6647 35.5647 37.6862 34.9658 37.1139C34.3669 36.5415 34.3454 35.592 34.9178 34.9931L58.1587 10.6758C58.731 10.0769 59.6805 10.0554 60.2794 10.6278Z" fill="white"/>
    <path fill-rule="evenodd" clip-rule="evenodd" d="M31.5 5.57831C31.5 3.09303 33.5147 1.07831 36 1.07831C38.4853 1.07831 40.5 3.09303 40.5 5.57831C40.5 7.53764 39.2478 9.20449 37.5 9.82225V15.6551H34.5V9.82225C32.7522 9.20449 31.5 7.53764 31.5 5.57831Z" fill="white"/>
    <path fill-rule="evenodd" clip-rule="evenodd" d="M7.99414 13.504C7.99414 11.0187 10.0089 9.00403 12.4941 9.00403C14.9794 9.00403 16.9941 11.0187 16.9941 13.504C16.9941 14.1871 16.8414 14.8353 16.5688 15.4155L22.2486 20.559L20.2349 22.7827L14.4596 17.5528C13.8657 17.8416 13.1984 18.004 12.4941 18.004C10.0089 18.004 7.99414 15.9893 7.99414 13.504Z" fill="white"/>
    <path fill-rule="evenodd" clip-rule="evenodd" d="M16.5619 55.5541L21.9281 50.3541L19.8404 48.1996L14.4678 53.4059C13.8674 53.1092 13.1909 52.942 12.4763 52.942C9.99104 52.942 7.97632 54.9567 7.97632 57.442C7.97632 59.9273 9.99104 61.942 12.4763 61.942C14.9616 61.942 16.9763 59.9273 16.9763 57.442C16.9763 56.7683 16.8277 56.1283 16.5619 55.5541Z" fill="white"/>
    <path fill-rule="evenodd" clip-rule="evenodd" d="M55.436 55.5588C55.1717 56.1319 55.0238 56.7701 55.0238 57.442C55.0238 59.9273 57.0386 61.942 59.5238 61.942C62.0091 61.942 64.0238 59.9273 64.0238 57.442C64.0238 54.9567 62.0091 52.942 59.5238 52.942C58.8074 52.942 58.1293 53.11 57.5277 53.4082L52.0872 48.2134L50.0081 50.3761L55.436 55.5588Z" fill="white"/>
    <path fill-rule="evenodd" clip-rule="evenodd" d="M1.00415 36.5C1.00415 34.0147 3.01887 32 5.50415 32C7.46348 32 9.13034 33.2522 9.74809 35H15.2956V38H9.74809C9.13034 39.7478 7.46348 41 5.50415 41C3.01887 41 1.00415 38.9853 1.00415 36.5Z" fill="white"/>
    <path fill-rule="evenodd" clip-rule="evenodd" d="M62.2584 34.5C62.8761 32.7522 64.543 31.5 66.5023 31.5C68.9876 31.5 71.0023 33.5147 71.0023 36C71.0023 38.4853 68.9876 40.5 66.5023 40.5C64.543 40.5 62.8761 39.2478 62.2584 37.5H56.0972V34.5H62.2584Z" fill="white"/>
    <path fill-rule="evenodd" clip-rule="evenodd" d="M34.5 62.2551C32.7522 62.8729 31.5 64.5397 31.5 66.4991C31.5 68.9843 33.5147 70.9991 36 70.9991C38.4853 70.9991 40.5 68.9843 40.5 66.4991C40.5 64.5397 39.2478 62.8729 37.5 62.2551V56.3898H34.5V62.2551Z" fill="white"/>
    <path d="M61.9726 8.58471L60.1384 0L56.7252 3.938L58.2086 10.6736L55.7118 13.2902L54.2753 6.76453L51.7483 9.68007L53.3402 17.9233L62.2962 18.907L64.8593 15.9498L57.8937 15.3666L60.4268 12.6726L67.266 13.1731L70.7021 9.20866L61.9726 8.58471Z" fill="white"/>
</svg>
