<svg xmlns="http://www.w3.org/2000/svg" width="72" height="72" viewBox="0 0 72 72">
    <defs>
        <style>
            .cls-1 {
            fill: #fff;
            fill-rule: evenodd;
            }
        </style>
    </defs>
    <path id="Kształt_94_kopia" data-name="Kształt 94 kopia" class="cls-1"
          d="M2795,2220h-4v-4h4v-4h4v8h-4Zm0-18h4v6h-4v-6Zm0-10h4v6h-4v-6Zm0-10h4v6h-4v-6Zm0-10h4v6h-4v-6Zm0-10h4v6h-4v-6Zm0-10h-6v-4h10v10h-4v-6Zm-31.99,56a24,24,0,1,1,23.99-24A24.025,24.025,0,0,1,2763.01,2208Zm-0.01-41.01a17.01,17.01,0,1,0,17.01,17.01A17.028,17.028,0,0,0,2763,2166.99Zm6.48,22.96a8.079,8.079,0,0,0-8,7.95,14.056,14.056,0,0,1-5.11-1.58l0.72-.19a12.913,12.913,0,0,1,.7-2.65l-1.57-1.56a0.215,0.215,0,0,1,0-.22l1.2-2.11a0.171,0.171,0,0,1,.18-0.11l2.12,0.6a12.386,12.386,0,0,1,1.9-1.93l-0.59-2.16a0.175,0.175,0,0,1,.1-0.18l2.08-1.23a0.179,0.179,0,0,1,.21.01l1.53,1.6a12.662,12.662,0,0,1,2.6-.72l0.54-2.15a0.187,0.187,0,0,1,.18-0.12h2.39a0.187,0.187,0,0,1,.18.12l0.54,2.15a12.323,12.323,0,0,1,2.63.72l1.51-1.59a0.165,0.165,0,0,1,.21,0l1.22,0.71a13.978,13.978,0,0,1-2.35,6.53A7.874,7.874,0,0,0,2769.48,2189.95Zm4.98-9.64a0.149,0.149,0,0,1-.17-0.01l-1.23-1.32a6.781,6.781,0,0,1-2.23.26l-0.91,1.58a0.133,0.133,0,0,1-.16.05l-1.86-.54a0.16,0.16,0,0,1-.11-0.13l0.05-1.83a6.959,6.959,0,0,1-1.78-1.43l-1.73.46a0.157,0.157,0,0,1-.15-0.09l-0.93-1.72a0.135,0.135,0,0,1,0-.17l1.3-1.25a7.348,7.348,0,0,1-.25-2.32l-1.54-.91a0.162,0.162,0,0,1-.04-0.17l0.21-.75c0.03,0,.05-0.01.07-0.01a14.2,14.2,0,0,1,4.09.61,4.549,4.549,0,0,0,.24,3.79,4.346,4.346,0,0,0,5.97,1.74,4.644,4.644,0,0,0,.82-0.62,13.679,13.679,0,0,1,2.07,3.79,0.151,0.151,0,0,0-.04.04Zm-6.83-6.09a4.172,4.172,0,0,1-.21-3.48,13.374,13.374,0,0,1,1.56.63,2.478,2.478,0,0,0,.13,2.04,2.344,2.344,0,0,0,3.22.93,2.13,2.13,0,0,0,.45-0.34,14.2,14.2,0,0,1,1.11,1.22,3.852,3.852,0,0,1-.78.6A3.986,3.986,0,0,1,2767.63,2174.22Zm2.83-1.59a0.871,0.871,0,0,1-.08-0.5c0.41,0.26.8,0.53,1.18,0.82A0.81,0.81,0,0,1,2770.46,2172.63Zm-17.26,8.19-1.46-.4a4.817,4.817,0,0,1-.83.64,4.482,4.482,0,0,1-.95.43l-0.35,1.49a0.144,0.144,0,0,1-.14.08l-0.43.01a14.024,14.024,0,0,1,.62-3.32,2.262,2.262,0,0,0,.39-0.18,3.067,3.067,0,0,0,1.36-3.4,14.039,14.039,0,0,1,2.22-2.53l0.54,0.94a0.133,0.133,0,0,1,0,.16l-1.08,1.11a4.865,4.865,0,0,1,.02,2.08l1.1,1.07a0.151,0.151,0,0,1,0,.16l-0.87,1.58A0.151,0.151,0,0,1,2753.2,2180.82Zm-3.28-1.48c-0.04.03-.09,0.04-0.13,0.07a13.67,13.67,0,0,1,1.44-2.95A2.821,2.821,0,0,1,2749.92,2179.34Zm19.54,11.27a7.244,7.244,0,0,1,4.74,1.77,14.2,14.2,0,0,1-2.12,2.26,4.193,4.193,0,0,0-2.59-.9,4.329,4.329,0,0,0-4.27,4.06,14.775,14.775,0,0,1-2.22.19c-0.29,0-.58-0.03-0.87-0.04A7.408,7.408,0,0,1,2769.46,2190.61ZM2779,2148h6v4h-6v-4Zm-10,0h6v4h-6v-4Zm-10,0h6v4h-6v-4Zm-10,0h6v4h-6v-4Zm-10,0h6v4h-6v-4Zm-12,72v-10h4v6h6v4h-10Zm4-64h-4v-8h8v4h-4v4Zm0,10h-4v-6h4v6Zm0,10h-4v-6h4v6Zm0,10h-4v-6h4v6Zm0,10h-4v-6h4v6Zm0,10h-4v-6h4v6Zm16,14h-6v-4h6v4Zm10,0h-6v-4h6v4Zm10,0h-6v-4h6v4Zm10,0h-6v-4h6v4Zm10,0h-6v-4h6v4Z"
          transform="translate(-2727 -2148)"/>
</svg>
