<svg xmlns="http://www.w3.org/2000/svg" width="72" height="72" viewBox="0 0 72 72">
    <defs>
        <style>
            .cls-1 {
            fill: #fff;
            fill-rule: evenodd;
            }
        </style>
    </defs>
    <path id="Kształt_2209_kopia_3" data-name="Kształt 2209 kopia 3" class="cls-1"
          d="M832,2906.55l-36-18.28L832,2870l36,18.27Zm0-28.55c-9.374,0-17,4.71-17,10.5s7.626,10.5,17,10.5,17-4.71,17-10.5S841.373,2878,832,2878Zm0,17.5c-6.25,0-11.334-3.14-11.334-7s5.084-7,11.334-7,11.333,3.14,11.333,7S838.249,2895.5,832,2895.5Zm-0.248-.89c0.084,0,.162.01,0.247,0.01a16.175,16.175,0,0,0,1.863-.11,0.062,0.062,0,0,0,0-.02c0-1.03,1.339-1.86,2.991-1.86a4.33,4.33,0,0,1,1.795.38,8.641,8.641,0,0,0,1.407-.96,7.141,7.141,0,0,0-3.226-.73c-2.814,0-5.1,1.41-5.1,3.15C831.73,2894.52,831.749,2894.56,831.752,2894.61Zm-8.353-9.1a0.673,0.673,0,0,1-.536.65h-0.022a4.585,4.585,0,0,0-.282.56,2.808,2.808,0,0,0,.708-0.15c0.9-.33,1.2-1.05.674-1.61A5.62,5.62,0,0,0,823.4,2885.51Zm2.842,0.91-0.761-.45a1.276,1.276,0,0,0-.015-0.88l0.751-.46c0.023-.01.023-0.04,0-0.07l-0.63-.66a0.062,0.062,0,0,0-.043-0.01,8.7,8.7,0,0,0-1.5.99c0.01,0.01.027,0.01,0.037,0.02,0.584,0.61.256,1.4-.732,1.77a3.428,3.428,0,0,1-.849.16,4.041,4.041,0,0,0-.363,1.31h0.815a0.108,0.108,0,0,0,.093-0.04l0.247-.62a4.786,4.786,0,0,0,.655-0.19,3.886,3.886,0,0,0,.579-0.27l1.011,0.17a0.111,0.111,0,0,0,.095-0.03l0.608-.67A0.044,0.044,0,0,0,826.241,2886.42Zm11.3-3a0.227,0.227,0,0,0-.02.32,0.739,0.739,0,0,0,.758.13c0.029-.01.032-0.03,0.057-0.04C838.074,2883.69,837.828,2883.54,837.542,2883.42Zm1.614,0.86a1.208,1.208,0,0,1-.342.18,2.253,2.253,0,0,1-2.23-.39,0.678,0.678,0,0,1,.012-0.96c-0.355-.12-0.711-0.23-1.09-0.32a1.171,1.171,0,0,0,.051,1.62,3.806,3.806,0,0,0,3.8.67,3.374,3.374,0,0,0,.54-0.24A6.48,6.48,0,0,0,839.156,2884.28Zm0.907,0.68a3,3,0,0,1-.574.26,4.17,4.17,0,0,1-4.144-.73,1.271,1.271,0,0,1-.071-1.74,15.434,15.434,0,0,0-2.869-.35l-0.256.56a0.055,0.055,0,0,0,.03.07l1.064,0.38a1.912,1.912,0,0,0,.178.98l-0.9.53c-0.025.01-.027,0.04,0,0.07l0.649,0.72a0.133,0.133,0,0,0,.1.04l1.2-.2a5.127,5.127,0,0,0,1.234.61l-0.035.77a0.076,0.076,0,0,0,.08.05l1.286,0.23a0.132,0.132,0,0,0,.113-0.02l0.63-.66a7.341,7.341,0,0,0,1.55-.12l0.854,0.56a0.154,0.154,0,0,0,.118.01l1.083-.38A5.735,5.735,0,0,0,840.063,2884.96Zm1.116,3.82a0.24,0.24,0,0,0-.146,0l-1.053.67a13.01,13.01,0,0,0-1.823-.3l-0.374-.91a0.171,0.171,0,0,0-.125-0.04H836a0.171,0.171,0,0,0-.125.04l-0.375.91a12.843,12.843,0,0,0-1.808.3l-1.063-.67a0.183,0.183,0,0,0-.146,0l-1.441.51a0.087,0.087,0,0,0-.071.08l0.41,0.91a8.04,8.04,0,0,0-1.318.82l-1.468-.26a0.132,0.132,0,0,0-.128.05l-0.831.89a0.055,0.055,0,0,0,0,.09l1.085,0.66a3.86,3.86,0,0,0-.485,1.11l-1.077.17a14.409,14.409,0,0,0,4.133.77c0-.03-0.016-0.06-0.016-0.1,0-1.9,2.488-3.44,5.556-3.44a7.786,7.786,0,0,1,3.477.78,4.782,4.782,0,0,0,1.517-2.8Zm-29.019,11.7-5.96,3.02,25.8,13.1,25.8-13.1-5.96-3.02,5.1-2.59L868,2903.5l-36,18.27-36-18.27,11.06-5.61Zm0.224,15.11-6.184,3.14,25.8,13.09,25.8-13.09-6.184-3.14,5.1-2.59L868,2918.73,832,2937l-36-18.27,11.284-5.73Z"
          transform="translate(-796 -2867.5)"/>
</svg>
