<svg xmlns="http://www.w3.org/2000/svg" width="72" height="72.09" viewBox="0 0 72 72.09">
    <defs>
        <style>
            .cls-1 {
            fill: #fff;
            fill-rule: evenodd;
            }
        </style>
    </defs>
    <path id="Prostokąt_zaokrąglony_1_kopia_6" data-name="Prostokąt zaokrąglony 1 kopia 6" class="cls-1"
          d="M2553,1919v-5.17l-7.46,7.46-2.83-2.83,7.46-7.46H2545v-4h12v12h-4Zm-8,16a3,3,0,0,1-1.02,2.24l0.02,0.01L2533,1952l-0.24-.06a2,2,0,1,1-2.33-2.85l9.22-12.26a2.965,2.965,0,0,1-.47-0.83h-3.2a1.985,1.985,0,0,1-1.98-1.98V1926h-6.5a2.5,2.5,0,0,1,0-5h8a2.5,2.5,0,0,1,2.5,2.5c0,0.08-.02.16-0.02,0.24a1.942,1.942,0,0,1,.02.24V1932h4A3,3,0,0,1,2545,1935Zm-15.06-1.76a2,2,0,1,1-2.85,2.33l-12.26-9.22a2.965,2.965,0,0,1-.83.47v3.2a1.985,1.985,0,0,1-1.98,1.98H2504v6.5a2.5,2.5,0,0,1-5,0v-8a2.5,2.5,0,0,1,2.5-2.5c0.08,0,.16.02,0.24,0.02a1.942,1.942,0,0,1,.24-0.02H2510v-4a2.991,2.991,0,0,1,5.24-1.98l0.01-.02,14.75,11Zm-33.4-12.06-7.45-7.45v5.17h-3.99v-11.99h11.98v4h-5.16l7.45,7.45Zm-7.54,50.99,6.36-6.36,2.83,2.83-6.36,6.36H2497v4h-12v-12h4v5.17Zm10.02-21.41-0.02-.01,11.03-14.76,0.18,0.14A1.98,1.98,0,0,1,2512,1935h8a2.006,2.006,0,0,1,2,2v12a2,2,0,0,1-4,0v-10h-5.57l-9.08,12.16a3.134,3.134,0,0,1,.47.84h3.2a1.985,1.985,0,0,1,1.98,1.98V1962h6.5a2.5,2.5,0,0,1,0,5h-8a2.5,2.5,0,0,1-2.5-2.5c0-.08.02-0.16,0.02-0.24a1.942,1.942,0,0,1-.02-0.24V1956h-4A2.991,2.991,0,0,1,2499.02,1950.76Zm14.04,4a2,2,0,1,1,2.85-2.33l12.26,9.22a2.965,2.965,0,0,1,.83-0.47v-3.2a1.985,1.985,0,0,1,1.98-1.98H2539v-6.5a2.5,2.5,0,0,1,5,0v8a2.5,2.5,0,0,1-2.5,2.5c-0.08,0-.16-0.02-0.24-0.02a1.942,1.942,0,0,1-.24.02H2533v4a2.991,2.991,0,0,1-5.24,1.98l-0.01.02L2513,1955Zm33.59,10.88,6.35,6.35v-5.16h3.99v11.98h-11.98v-4h5.17l-6.35-6.35Z"
          transform="translate(-2485 -1906.91)"/>
</svg>
