<svg xmlns="http://www.w3.org/2000/svg" width="72" height="72" viewBox="0 0 72 72">
    <defs>
        <style>
            .cls-1 {
            fill: #fff;
            fill-rule: evenodd;
            }
        </style>
    </defs>
    <path id="Kształt_77" data-name="Kształt 77" class="cls-1" d="M1555,2200v-2h4v-10h-3v-2h5v14h-6Zm24-14h1v14h-16v-14h15Zm-13,2v10h12v-10h-12Zm-10-7h22v-5h-22v-2h24v9h-24v-2Zm29,35h-31v-4h31v-46h-31v-4h31v-6h-31v-4h35v64h-4Zm-35,0h-33v-64h33v-4h2v72h-2v-4Zm0-60h-29v6h29v-6Zm0,44h-5v-14h5v-3h-24v-10h24v-7h-29v46h29v-12Zm-8,0h-16v-14h16v14Zm-16-40h-2v-2h2v2Zm4,0h-2v-2h2v2Zm4,0h-2v-2h2v2Z" transform="translate(-1517 -2148)"/>
</svg>
