<svg xmlns="http://www.w3.org/2000/svg" width="72" height="71.38" viewBox="0 0 72 71.38">
    <defs>
        <style>
            .cls-1 {
            fill: #fff;
            fill-rule: evenodd;
            }
        </style>
    </defs>
    <path id="Elipsa_24_kopia" data-name="Elipsa 24 kopia" class="cls-1"
          d="M1105.45,1975.63l-2.9,2.74-12.28-13.15a32.963,32.963,0,1,1,2.9-2.76ZM1098,1940a29,29,0,1,0-29,29A29,29,0,0,0,1098,1940Zm-9.8,7.64a1.4,1.4,0,0,1-.54-0.42l-3.34-4.09-3.3,4.09a1.423,1.423,0,0,1-.55.42,1.978,1.978,0,0,1-.68.11h-2.16a0.688,0.688,0,0,1-.52-0.22,0.8,0.8,0,0,1-.21-0.56,0.7,0.7,0,0,1,.12-0.4l5.04-6.24-4.82-5.96a0.774,0.774,0,0,1-.11-0.4,0.8,0.8,0,0,1,.21-0.56,0.673,0.673,0,0,1,.52-0.22h2.15a2.08,2.08,0,0,1,.69.11,1.4,1.4,0,0,1,.54.42l3.17,3.92,3.13-3.92a1.423,1.423,0,0,1,.55-0.42,2.038,2.038,0,0,1,.69-0.11h2.15a0.673,0.673,0,0,1,.52.22,0.8,0.8,0,0,1,.21.56,0.774,0.774,0,0,1-.11.4l-4.87,6.07,4.98,6.13a0.774,0.774,0,0,1,.11.4,0.8,0.8,0,0,1-.21.56,0.673,0.673,0,0,1-.52.22h-2.15A2.08,2.08,0,0,1,1088.2,1947.64Zm-14.57.11h-2.13a0.71,0.71,0,0,1-.53-0.22,0.741,0.741,0,0,1-.23-0.54v-7.39a3.95,3.95,0,0,0-.7-2.62,2.591,2.591,0,0,0-2.07-.79,2.644,2.644,0,0,0-1.97.78,3.5,3.5,0,0,0-.8,2.49v7.53a0.751,0.751,0,0,1-.76.76h-2.12a0.751,0.751,0,0,1-.76-0.76v-7.39a3.95,3.95,0,0,0-.7-2.62,2.974,2.974,0,0,0-4.07.03,3.68,3.68,0,0,0-.77,2.59v7.39a0.741,0.741,0,0,1-.23.54,0.71,0.71,0,0,1-.53.22h-2.13a0.751,0.751,0,0,1-.75-0.76v-13.04a0.751,0.751,0,0,1,.75-0.76h2.13a0.71,0.71,0,0,1,.53.22,0.741,0.741,0,0,1,.23.54v0.64a4.5,4.5,0,0,1,1.62-1.25,4.721,4.721,0,0,1,1.99-.43,4.973,4.973,0,0,1,4.65,2.38,5.078,5.078,0,0,1,2-1.74,5.55,5.55,0,0,1,2.53-.64,4.892,4.892,0,0,1,4.27,1.81,7.894,7.894,0,0,1,1.3,4.74v7.53A0.751,0.751,0,0,1,1073.63,1947.75ZM1049,1948a2,2,0,1,1,2-2A2.006,2.006,0,0,1,1049,1948Z"
          transform="translate(-1034.735 -1907)"/>
</svg>
