<svg xmlns="http://www.w3.org/2000/svg" width="72" height="71.38" viewBox="0 0 72 71.38">
    <defs>
        <style>
            .cls-1 {
            fill: #fff;
            fill-rule: evenodd;
            }
        </style>
    </defs>
    <path id="Kształt_41_kopia" data-name="Kształt 41 kopia" class="cls-1"
          d="M1345.45,1975.63l-2.9,2.74-12.28-13.15a32.963,32.963,0,1,1,2.9-2.76ZM1338,1940a29,29,0,1,0-29,29A29,29,0,0,0,1338,1940Zm-9.99,8.98h-0.05a16.272,16.272,0,1,1,.05-0.09v0.09Zm-4.59,0h-4.61a24.7,24.7,0,0,1-2.86,6.52A17.013,17.013,0,0,0,1323.42,1948.98ZM1309,1957a16.519,16.519,0,0,0,2-.13,24.032,24.032,0,0,0,3.8-7.89h-10.6a24.094,24.094,0,0,0,3.86,7.97C1308.37,1956.97,1308.68,1957,1309,1957Zm-5.59-.96a24.872,24.872,0,0,1-3.21-7.06h-5.62A17.026,17.026,0,0,0,1303.41,1956.04ZM1292,1940a16.794,16.794,0,0,0,.76,4.99h6.6a34.268,34.268,0,0,1-.35-4.94,32.353,32.353,0,0,1,.27-4.04h-6.81A17.5,17.5,0,0,0,1292,1940Zm2-7.98h6.04a30.318,30.318,0,0,1,3.39-8.07A17.063,17.063,0,0,0,1294,1932.02Zm17.05-8.88a15.341,15.341,0,0,0-2.05-.14c-0.34,0-.67.03-1,0.05a30.08,30.08,0,0,0-3.97,8.97h10.94A29.945,29.945,0,0,0,1311.05,1923.14Zm-7.76,12.87a32.439,32.439,0,0,0-.28,4.04,34.205,34.205,0,0,0,.36,4.94h12.26a34.205,34.205,0,0,0,.36-4.94,32.439,32.439,0,0,0-.28-4.04h-12.42Zm12.57-11.56a30.605,30.605,0,0,1,3.1,7.57H1324A17.148,17.148,0,0,0,1315.86,1924.45Zm9.66,11.56h-5.8a32.353,32.353,0,0,1,.27,4.04,34.435,34.435,0,0,1-.34,4.94h5.6A16.908,16.908,0,0,0,1325.52,1936.01Z"
          transform="translate(-1274.735 -1907)"/>
</svg>
