<svg xmlns="http://www.w3.org/2000/svg" width="72" height="71.38" viewBox="0 0 72 71.38">
    <defs>
        <style>
            .cls-1 {
            fill: #fff;
            fill-rule: evenodd;
            }
        </style>
    </defs>
    <path id="it" class="cls-1"
          d="M1587.45,1975.63l-2.9,2.74-12.28-13.15a32.963,32.963,0,1,1,2.9-2.76ZM1580,1940a29,29,0,1,0-29,29A29,29,0,0,0,1580,1940Zm-20.17,8.75h-2.07a5.726,5.726,0,0,1-4.06-1.3,5.022,5.022,0,0,1-1.4-3.88v-6.02h-1.85a0.71,0.71,0,0,1-.53-0.22,0.741,0.741,0,0,1-.23-0.54v-1.84a0.741,0.741,0,0,1,.23-0.54,0.71,0.71,0,0,1,.53-0.22h1.85v-4.56a0.751,0.751,0,0,1,.75-0.76h2.13a0.71,0.71,0,0,1,.53.22,0.741,0.741,0,0,1,.23.54v4.56h3.61a0.71,0.71,0,0,1,.53.22,0.741,0.741,0,0,1,.23.54v1.84a0.741,0.741,0,0,1-.23.54,0.71,0.71,0,0,1-.53.22h-3.61v5.94a1.905,1.905,0,0,0,.49,1.41,2.322,2.322,0,0,0,1.69.49h1.71a0.71,0.71,0,0,1,.53.22,0.741,0.741,0,0,1,.23.54v1.84a0.741,0.741,0,0,1-.23.54A0.71,0.71,0,0,1,1559.83,1948.75Zm-13.27-16.18h-2.41a0.787,0.787,0,0,1-.76-0.76v-2.18a0.741,0.741,0,0,1,.23-0.54,0.71,0.71,0,0,1,.53-0.22h2.41a0.751,0.751,0,0,1,.75.76v2.18a0.71,0.71,0,0,1-.22.53A0.736,0.736,0,0,1,1546.56,1932.57ZM1538,1949a2,2,0,1,1,2-2A2.006,2.006,0,0,1,1538,1949Zm6.29-14.81h2.13a0.751,0.751,0,0,1,.75.76v13.04a0.751,0.751,0,0,1-.75.76h-2.13a0.71,0.71,0,0,1-.53-0.22,0.741,0.741,0,0,1-.23-0.54v-13.04a0.741,0.741,0,0,1,.23-0.54A0.71,0.71,0,0,1,1544.29,1934.19Z"
          transform="translate(-1516.735 -1907)"/>
</svg>
