<svg xmlns="http://www.w3.org/2000/svg" width="72" height="72" viewBox="0 0 72 72">
    <defs>
        <style>
            .cls-1 {
            fill: #fff;
            fill-rule: evenodd;
            }
        </style>
    </defs>
    <path id="Elipsa_9_kopia" data-name="Elipsa 9 kopia" class="cls-1" d="M1819.4,2214h-5.24l-0.85-4H1818v-58h-46v58h25.69l-0.85,4H1768v-66h54v66h-2.6Zm-13.9-3a8.463,8.463,0,0,0,4.13-1.07L1811,2220l-5.7-3.6-5.3,3.6,1.37-10.07A8.463,8.463,0,0,0,1805.5,2211Zm5.5-8.5a5.5,5.5,0,1,1-5.5-5.5A5.5,5.5,0,0,1,1811,2202.5Zm-6-12.5a2,2,0,0,1,0,4h-20a2,2,0,0,1,0-4h20Zm-10-30a13,13,0,1,1-13,13A13,13,0,0,1,1795,2160Zm0,22a9,9,0,1,0-9-9A9,9,0,0,0,1795,2182Z" transform="translate(-1759 -2148)"/>
</svg>
