<svg xmlns="http://www.w3.org/2000/svg" width="72" height="68" viewBox="0 0 72 68">
    <defs>
        <style>
            .cls-1 {
            fill: #fff;
            fill-rule: evenodd;
            }
        </style>
    </defs>
    <path id="Prostokąt_zaokrąglony_4" data-name="Prostokąt zaokrąglony 4" class="cls-1" d="M1763,1486v-42h4v38h56v-56h-39v-4h43v64h-64Zm12-64h4v4h-4v-4Zm36,52h-32a3.625,3.625,0,0,1-4-4v-32a4.113,4.113,0,0,1,4-4h32a3.949,3.949,0,0,1,4,4v6h-7v-1a2.006,2.006,0,0,0-2-2h-22a2.006,2.006,0,0,0-2,2v1h-7v4h7v12h-7v4h7v1a2.006,2.006,0,0,0,2,2h22a2.006,2.006,0,0,0,2-2v-1h7v6A3.837,3.837,0,0,1,1811,1474Zm4-14h-7v-12h7v12Zm-48-33h4v4h-4v-4Zm0-9h4v4h-4v-4Zm0,21h-4v-4h4v4Zm-8-12h4v4h-4v-4Z" transform="translate(-1757 -1418)"/>
</svg>
