<svg xmlns="http://www.w3.org/2000/svg" width="72" height="72" viewBox="0 0 72 72">
    <defs>
        <style>
            .cls-1 {
            fill: #fff;
            fill-rule: evenodd;
            }
        </style>
    </defs>
    <path id="Elipsa_17" data-name="Elipsa 17" class="cls-1"
          d="M1517,1487v-66h72v66h-72Zm68-62h-64v6h64v-6Zm0,10h-64v48h64v-48Zm-51.86,10.01a3.087,3.087,0,0,1-.06-0.55,3.46,3.46,0,1,1,3.46,3.46,3.532,3.532,0,0,1-1.54-.37v1.14h-1.15v1.16h-1.16V1451H1530v-2.85l0.11-.12Zm3.87-.02a1.005,1.005,0,1,0-1-1A1.005,1.005,0,0,0,1537.01,1444.99Zm-3.87,12.02a3.087,3.087,0,0,1-.06-0.55,3.46,3.46,0,1,1,3.46,3.46,3.532,3.532,0,0,1-1.54-.37v1.14h-1.15v1.16h-1.16V1463H1530v-2.85l0.11-.12Zm3.87-.02a1.005,1.005,0,1,0-1-1A1.005,1.005,0,0,0,1537.01,1456.99Zm-3.87,13.02a3.087,3.087,0,0,1-.06-0.55,3.46,3.46,0,1,1,3.46,3.46,3.532,3.532,0,0,1-1.54-.37v1.14h-1.15v1.16h-1.16V1476H1530v-2.85l0.11-.12Zm3.87-.02a1.005,1.005,0,1,0-1-1A1.005,1.005,0,0,0,1537.01,1469.99ZM1547,1444a2,2,0,1,1-2,2A2.006,2.006,0,0,1,1547,1444Zm0,12a2,2,0,1,1-2,2A2.006,2.006,0,0,1,1547,1456Zm0,12a2,2,0,1,1-2,2A2.006,2.006,0,0,1,1547,1468Zm6-24a2,2,0,1,1-2,2A2.006,2.006,0,0,1,1553,1444Zm0,12a2,2,0,1,1-2,2A2.006,2.006,0,0,1,1553,1456Zm0,12a2,2,0,1,1-2,2A2.006,2.006,0,0,1,1553,1468Zm6-24a2,2,0,1,1-2,2A2.006,2.006,0,0,1,1559,1444Zm0,12a2,2,0,1,1-2,2A2.006,2.006,0,0,1,1559,1456Zm0,12a2,2,0,1,1-2,2A2.006,2.006,0,0,1,1559,1468Zm6-24a2,2,0,1,1-2,2A2.006,2.006,0,0,1,1565,1444Zm0,12a2,2,0,1,1-2,2A2.006,2.006,0,0,1,1565,1456Zm6,0a2,2,0,1,1-2,2A2.006,2.006,0,0,1,1571,1456Zm-46-27h-2v-2h2v2Zm4,0h-2v-2h2v2Zm4,0h-2v-2h2v2Z"
          transform="translate(-1517 -1418)"/>
</svg>
