<svg xmlns="http://www.w3.org/2000/svg" width="72" height="72" viewBox="0 0 72 72">
    <defs>
        <style>
            .cls-1 {
            fill: #fff;
            fill-rule: evenodd;
            }
        </style>
    </defs>
    <path id="_" data-name="$" class="cls-1"
          d="M594.223,405.5a0.989,0.989,0,0,1-.722.3h-3.078a1.038,1.038,0,0,1-1.026-1.026V402.19a12.2,12.2,0,0,1-5.89-2.489A6.318,6.318,0,0,1,581,395.008a0.863,0.863,0,0,1,.266-0.741,1.069,1.069,0,0,1,.76-0.285h2.66a1.8,1.8,0,0,1,.969.228,1.658,1.658,0,0,1,.589.684,4.918,4.918,0,0,0,1.881,2,7.636,7.636,0,0,0,3.819.741,9.686,9.686,0,0,0,4.18-.8,2.555,2.555,0,0,0,1.672-2.394,1.827,1.827,0,0,0-.646-1.463,5.12,5.12,0,0,0-1.824-.912q-1.178-.36-3.572-0.931-0.95-.189-2.47-0.57a12.627,12.627,0,0,1-5.757-2.7,6.668,6.668,0,0,1-1.767-5.016,6.769,6.769,0,0,1,2.109-4.978,9.94,9.94,0,0,1,5.529-2.66v-2.584a1.038,1.038,0,0,1,1.026-1.026H593.5a1.038,1.038,0,0,1,1.026,1.026v2.66a10.791,10.791,0,0,1,4.047,1.52,8.565,8.565,0,0,1,2.584,2.489,5.986,5.986,0,0,1,1.007,2.717,0.863,0.863,0,0,1-.266.741,1.069,1.069,0,0,1-.76.285h-2.66a1.7,1.7,0,0,1-.95-0.228,2.025,2.025,0,0,1-.608-0.684,4.7,4.7,0,0,0-1.862-1.71,7.106,7.106,0,0,0-3.306-.646,6.662,6.662,0,0,0-3.458.836,2.527,2.527,0,0,0-1.406,2.242,2.2,2.2,0,0,0,.741,1.748,5.569,5.569,0,0,0,2.185,1.045q1.444,0.4,4.788,1.121,4.523,0.951,6.422,2.736a6.451,6.451,0,0,1,1.9,4.94,6.756,6.756,0,0,1-2.242,5.111,10.855,10.855,0,0,1-6.156,2.641v2.584A0.987,0.987,0,0,1,594.223,405.5ZM592,425a35.963,35.963,0,0,1-30.111-16.277l3.712-1.642a32.006,32.006,0,1,0,6.481-43.116l6.327,1.222-0.759,3.928-12.764-2.466,0.759-3.927h0l1.707-8.837,3.927,0.759-1.111,5.749A35.994,35.994,0,1,1,592,425Zm-29.5-50a2.5,2.5,0,1,1,2.5-2.5A2.5,2.5,0,0,1,562.5,375Zm-1.5,7.5a2.5,2.5,0,1,1-2.5-2.5A2.5,2.5,0,0,1,561,382.5Zm-2.5,7.5a2.5,2.5,0,1,1-2.5,2.5A2.5,2.5,0,0,1,558.5,390Zm3,9a2.5,2.5,0,1,1-2.5,2.5A2.5,2.5,0,0,1,561.5,399Z"
          transform="translate(-556 -353)"/>
</svg>
