<svg xmlns="http://www.w3.org/2000/svg" width="72" height="72" viewBox="0 0 72 72">
    <defs>
        <style>
            .cls-1 {
            fill: #fff;
            fill-rule: evenodd;
            }
        </style>
    </defs>
    <path id="Elipsa_38" data-name="Elipsa 38" class="cls-1"
          d="M1829,391a2,2,0,1,1,2-2A2,2,0,0,1,1829,391Zm-23.93-11.01s-0.96-17.18,3.54-22.5A12.654,12.654,0,0,1,1828,373.753C1823.5,379.074,1805.07,379.99,1805.07,379.99Zm20.85-18.865a1.578,1.578,0,0,0-1.59-1.6h-12.66a1.578,1.578,0,0,0-1.59,1.6v9.5a1.578,1.578,0,0,0,1.59,1.6h12.66a1.578,1.578,0,0,0,1.59-1.6v-9.5Zm-14.25,4.75h12.66v4.75h-12.66v-4.75Zm0-4.75h12.66v1.6h-12.66v-1.6ZM1803,358a2,2,0,1,1,2-2A2,2,0,0,1,1803,358Zm-8,67a2,2,0,1,1,2-2A2,2,0,0,1,1795,425Zm0-68a2,2,0,1,1,2-2A2,2,0,0,1,1795,357Zm-8,1a2,2,0,1,1,2-2A2,2,0,0,1,1787,358Zm-23.48,64.012a12.568,12.568,0,0,1-1.55-17.765c4.5-5.321,22.93-6.238,22.93-6.238s0.96,17.181-3.54,22.5A12.7,12.7,0,0,1,1763.52,422.012ZM1771,410a2.41,2.41,0,0,1,.92-0.149,1.945,1.945,0,0,1,.7.117,1.146,1.146,0,0,1,.45.266c0.1,0.1.15,0.159,0.17,0.176a0.97,0.97,0,0,0,.24.162,0.692,0.692,0,0,0,.28.046h1.7a0.251,0.251,0,0,0,.19-0.085,0.265,0.265,0,0,0,.09-0.2,1.926,1.926,0,0,0-.36-0.943,3.392,3.392,0,0,0-.92-0.884,4.184,4.184,0,0,0-1.34-.578v-0.975a0.331,0.331,0,0,0-.1-0.247,0.339,0.339,0,0,0-.25-0.1h-1.7a0.356,0.356,0,0,0-.25.1,0.331,0.331,0,0,0-.1.247v0.962a3.446,3.446,0,0,0-1.81,1.007,2.383,2.383,0,0,0-.67,1.658,2.5,2.5,0,0,0,.62,1.787,3.68,3.68,0,0,0,1.95.956l0.59,0.117q0.9,0.195,1.32.3a2.256,2.256,0,0,1,.65.253,0.433,0.433,0,0,1,.22.371c0,0.459-.53.689-1.61,0.689a2.037,2.037,0,0,1-.81-0.149,1.586,1.586,0,0,1-.52-0.338c-0.11-.126-0.18-0.2-0.2-0.228a0.746,0.746,0,0,0-.5-0.182h-1.7a0.27,0.27,0,0,0-.19.084,0.26,0.26,0,0,0-.08.2,1.979,1.979,0,0,0,.35,1.053,3.139,3.139,0,0,0,.97.916,4.327,4.327,0,0,0,1.42.579v0.962a0.331,0.331,0,0,0,.1.247,0.356,0.356,0,0,0,.25.1h1.7a0.339,0.339,0,0,0,.25-0.1,0.331,0.331,0,0,0,.1-0.247v-0.923a3.977,3.977,0,0,0,2.1-.943,2.581,2.581,0,0,0,.09-3.607,4.473,4.473,0,0,0-2.16-.936c-0.76-.156-1.3-0.273-1.6-0.351a2.3,2.3,0,0,1-.69-0.267,0.484,0.484,0,0,1-.22-0.409A0.523,0.523,0,0,1,1771,410Zm-12-20a2,2,0,1,1,2,2A2,2,0,0,1,1759,390Zm3-7a2,2,0,1,1,2-2A2,2,0,0,1,1762,383Zm0,17a2,2,0,1,1,2-2A2,2,0,0,1,1762,400Zm-0.03-26.247a12.568,12.568,0,0,1,1.55-17.765,12.7,12.7,0,0,1,17.84,1.5c4.5,5.32,3.54,22.5,3.54,22.5S1766.47,379.074,1761.97,373.753Zm15.18-13.046a3.553,3.553,0,0,0-2.84-.99h-3.91a0.511,0.511,0,0,0-.35.127,0.72,0.72,0,0,0-.19.33l-1.57,10a0.26,0.26,0,0,0,.08.241,0.31,0.31,0,0,0,.25.114h1.85a0.537,0.537,0,0,0,.36-0.127,0.518,0.518,0,0,0,.18-0.33l0.43-2.691a0.475,0.475,0,0,1,.18-0.33,0.53,0.53,0,0,1,.35-0.127h1.25q3.855,0,4.44-3.707A2.988,2.988,0,0,0,1777.15,360.707Zm-2.98,3.745a1.481,1.481,0,0,1-.54.216,3.447,3.447,0,0,1-.55.089c-0.15.009-.36,0.013-0.65,0.013h-0.59l0.44-2.616a0.265,0.265,0,0,1,.3-0.279h0.28c0.31,0,.54,0,0.7.013a2.349,2.349,0,0,1,.54.1,0.828,0.828,0,0,1,.46.292,1.356,1.356,0,0,1,.2,1.092,2.075,2.075,0,0,1-.24.66A1.463,1.463,0,0,1,1774.17,364.452ZM1786,420a2,2,0,1,1-2,2A2,2,0,0,1,1786,420Zm18,0a2,2,0,1,1-2,2A2,2,0,0,1,1804,420Zm24-41a2,2,0,1,1-2,2A2,2,0,0,1,1828,379Zm2,18a2,2,0,1,1-2-2A2,2,0,0,1,1830,397Zm-24.9,1.009s18.43,0.917,22.93,6.238a12.568,12.568,0,0,1-1.55,17.765,12.7,12.7,0,0,1-17.84-1.5C1804.14,415.19,1805.1,398.009,1805.1,398.009Zm6.57,20.647h12.66v-2h-12.66v2Zm11.35-3.312v-4.688h-2v4.688h2Zm-4,0v-4.688h-2v4.688h2Zm-4,0v-4.688h-2v4.688h2Zm-3.35-6h12.66V408l-6.31-3.344L1811.67,408v1.344Z"
          transform="translate(-1759 -353)"/>
</svg>
