<svg xmlns="http://www.w3.org/2000/svg" width="72" height="72" viewBox="0 0 72 72">
    <defs>
        <style>
            .cls-1 {
            fill: #fff;
            fill-rule: evenodd;
            }
        </style>
    </defs>
    <path id="Kształt_2265" data-name="Kształt 2265" class="cls-1"
          d="M1827,1098v-5.17l-7.46,7.46-2.83-2.83,7.46-7.46H1819v-4h12v12h-4Zm-9.63,24.19v6.53h-1.81v-17.69h1.81v11.16Zm8.62-6.12-6.35,6.07,6.33,6.58h-2.51l-6.09-6.53,6.2-6.12h2.42Zm-20.11,4.53a5.247,5.247,0,0,0,.98.44c0.37,0.13.75,0.25,1.15,0.37,0.48,0.15.97,0.31,1.46,0.49a6.283,6.283,0,0,1,1.34.69,3.626,3.626,0,0,1,.98,1.05,3,3,0,0,1,.38,1.56,3.138,3.138,0,0,1-.38,1.54,3.407,3.407,0,0,1-1.02,1.15,4.682,4.682,0,0,1-1.53.71,7.174,7.174,0,0,1-1.88.24,7.036,7.036,0,0,1-2.73-.49,6.477,6.477,0,0,1-2.25-1.63l1.41-1.22a4.427,4.427,0,0,0,3.65,1.78,3.54,3.54,0,0,0,2.16-.54,1.567,1.567,0,0,0,.71-1.29,1.753,1.753,0,0,0-.26-0.97,2.181,2.181,0,0,0-.71-0.67,4.374,4.374,0,0,0-1.02-.47c-0.39-.13-0.8-0.25-1.23-0.37-0.49-.13-0.97-0.28-1.45-0.45a4.966,4.966,0,0,1-1.28-.65,3.216,3.216,0,0,1-.94-1,2.95,2.95,0,0,1-.36-1.54,3.011,3.011,0,0,1,1.24-2.58,5.294,5.294,0,0,1,3.22-.91,6.334,6.334,0,0,1,2.5.46,5.791,5.791,0,0,1,2.1,1.59l-1.33,1.19-0.02-.03a4.58,4.58,0,0,0-1.47-1.22,3.989,3.989,0,0,0-1.86-.4,2.955,2.955,0,0,0-1.93.48,1.566,1.566,0,0,0-.56,1.22,1.438,1.438,0,0,0,.26.86A2.2,2.2,0,0,0,1805.88,1120.6Zm-15.36,5.44a4.24,4.24,0,0,0,3.23,1.26,5.489,5.489,0,0,0,2.07-.37,4.462,4.462,0,0,0,1.67-1.17l1.09,1.11a5.879,5.879,0,0,1-2.09,1.45,7.448,7.448,0,0,1-2.87.5,6.552,6.552,0,0,1-2.71-.52,5.525,5.525,0,0,1-1.93-1.4,5.958,5.958,0,0,1-1.17-2.03,7.634,7.634,0,0,1-.38-2.4,8.21,8.21,0,0,1,.46-2.9,5.622,5.622,0,0,1,1.27-2.03,5.166,5.166,0,0,1,1.85-1.21,6.491,6.491,0,0,1,2.25-.39,5.319,5.319,0,0,1,4.29,1.71,7.351,7.351,0,0,1,1.39,4.97h-9.68A5.1,5.1,0,0,0,1790.52,1126.04Zm6.61-4.91a4.4,4.4,0,0,0-.24-1.47,3.364,3.364,0,0,0-.7-1.16,3.184,3.184,0,0,0-1.17-.77,4.416,4.416,0,0,0-1.68-.3,4.292,4.292,0,0,0-1.69.3,3.044,3.044,0,0,0-1.13.74,5.213,5.213,0,0,0-.76,1.15,4.806,4.806,0,0,0-.45,1.51h7.82Zm-15.12-10.12h1.8v17.71h-1.8v-17.71Zm-5.77,16.29a6.3,6.3,0,0,1-2.21,1.15,8.705,8.705,0,0,1-2.53.37,10.4,10.4,0,0,1-1.37-.1,12.772,12.772,0,0,1-1.34-.28v6.55h-1.78v-18.37a15.311,15.311,0,0,1,4.41-.68,8.19,8.19,0,0,1,2.87.48,6.5,6.5,0,0,1,2.2,1.34,5.832,5.832,0,0,1,1.41,2.05,7.262,7.262,0,0,1-.1,5.49A5.9,5.9,0,0,1,1776.24,1127.3Zm-1.14-8.49a4.559,4.559,0,0,0-3.52-1.35,10.933,10.933,0,0,0-1.42.09,7.151,7.151,0,0,0-1.37.31v8.96a12.618,12.618,0,0,0,1.28.34,6.328,6.328,0,0,0,1.27.14,5.133,5.133,0,0,0,3.66-1.28,4.785,4.785,0,0,0,1.35-3.65A5.024,5.024,0,0,0,1775.1,1118.81Zm-4.56-18.63-7.54-7.54v5.35h-3.99v-11.98h11.98V1090h-4.98l7.36,7.36Zm-7.54,50.99,6.36-6.36,2.83,2.83-6.36,6.36H1771v4h-12v-12h4v5.17Zm25.29-16.18h-10.87v-1.67h10.87v1.67Zm32.36,9.65,6.35,6.35v-4.98h3.99V1158h-11.98v-4h5.35l-6.53-6.54Z"
          transform="translate(-1759 -1086)"/>
</svg>
