<svg width="72" height="72" viewBox="0 0 72 72" fill="none" xmlns="http://www.w3.org/2000/svg">
<g clip-path="url(#clip0_2027_85)">
<path fill-rule="evenodd" clip-rule="evenodd" d="M14.0262 12.5998H13.1228V17.1404H14.0262V12.5998Z" fill="white"/>
<path fill-rule="evenodd" clip-rule="evenodd" d="M17.877 12.5998H16.9736V17.1404H17.877V12.5998Z" fill="white"/>
<path fill-rule="evenodd" clip-rule="evenodd" d="M23.1548 3.97011L22.2276 2.42487L6.89404 11.0545L7.82119 12.5997L23.1548 3.97011Z" fill="white"/>
<path fill-rule="evenodd" clip-rule="evenodd" d="M23.0596 3.97011L23.9867 2.42487L39.3203 11.0782L38.3931 12.6235L23.0596 3.97011Z" fill="white"/>
<path fill-rule="evenodd" clip-rule="evenodd" d="M42.0306 12.6236V10.8406H0V12.6236H42.0306Z" fill="white"/>
<path fill-rule="evenodd" clip-rule="evenodd" d="M27.7666 11.3874H29.5971V39.2731C29.0979 38.7263 28.4798 38.3222 27.7666 37.9893V11.3874Z" fill="white"/>
<path fill-rule="evenodd" clip-rule="evenodd" d="M22.2517 37.5138V6.10352e-05H24.0822V37.7278C23.5592 37.49 22.2993 37.5138 22.2517 37.5138Z" fill="white"/>
<path fill-rule="evenodd" clip-rule="evenodd" d="M4.82586 41.2462C2.5912 39.6297 1.09351 37.0384 1.09351 34.1143C1.09351 32.5691 1.52142 31.0239 2.30593 29.6926H18.0199C18.8281 31.0239 19.2323 32.5691 19.2323 34.1143C19.2323 35.4694 19.0421 36.7294 18.4953 37.8705C17.3067 36.7531 15.5475 36.2777 13.7883 36.2777C10.6502 36.2777 7.96389 38.1795 7.25071 41.0323C7.01298 41.0323 6.84656 40.9847 6.60884 40.9847C6.01451 40.9847 5.42019 41.1036 4.82586 41.2462Z" fill="white"/>
<path fill-rule="evenodd" clip-rule="evenodd" d="M12.5285 19.1373H7.77393V23.7968H12.5285V19.1373Z" fill="white"/>
<path fill-rule="evenodd" clip-rule="evenodd" d="M7.1794 19.1373H2.4248V23.7968H7.1794V19.1373Z" fill="white"/>
<path fill-rule="evenodd" clip-rule="evenodd" d="M7.1794 24.3437H2.4248V29.0032H7.1794V24.3437Z" fill="white"/>
<path fill-rule="evenodd" clip-rule="evenodd" d="M12.5285 24.3437H7.77393V29.0032H12.5285V24.3437Z" fill="white"/>
<path fill-rule="evenodd" clip-rule="evenodd" d="M17.8774 24.3437H13.1228V29.0032H17.8774V24.3437Z" fill="white"/>
<path fill-rule="evenodd" clip-rule="evenodd" d="M17.8774 16.6411H13.1228V21.3006H17.8774V16.6411Z" fill="white"/>
<path fill-rule="evenodd" clip-rule="evenodd" d="M8.03521 41.9592C8.67708 39.2728 11.1732 37.2521 14.1449 37.2521C16.0467 37.2521 17.7584 38.0842 18.9232 39.3917C19.9217 38.7023 21.1341 38.3219 22.4654 38.3219C25.9125 38.3219 28.7177 41.0558 28.7177 44.4316C28.7177 45.121 28.5988 45.7866 28.3849 46.4285C29.1456 47.427 29.6211 48.7107 29.6211 50.0658C29.6211 53.4415 26.8159 56.1754 23.3688 56.1754C21.8473 56.1754 20.4447 55.6524 19.3749 54.7728C18.2338 56.3181 16.3795 57.3641 14.2637 57.3641C11.8389 57.3641 9.72309 56.009 8.67708 54.0359C8.24917 54.1309 7.82126 54.1785 7.36957 54.1785C3.92249 54.1785 1.09351 51.4446 1.09351 48.0688C1.09351 44.6931 3.89872 41.9592 7.36957 41.9592C7.58353 41.9592 7.82126 41.9592 8.03521 41.9592Z" fill="white"/>
<path d="M55.1632 41.0054H59.1811ZM50.38 41.0054H54.3979ZM45.6925 41.0054H49.7104ZM41.0049 41.0054H44.9271ZM36.2217 41.0054H40.2396ZM41.0049 36.6048H44.9271ZM45.6925 36.6048H49.7104ZM50.38 36.6048H54.3979ZM50.38 32.2043H54.3979Z" fill="black"/>
<path fill-rule="evenodd" clip-rule="evenodd" d="M54.3979 34.0219H50.38V30.3867H54.3979V34.0219ZM44.9271 38.4225H41.0049V34.7872H44.9271V38.4225ZM49.7104 38.4225H45.6925V34.7872H49.7104V38.4225ZM54.3979 38.4225H50.38V34.7872H54.3979V38.4225ZM40.2396 42.823H36.2217V39.1878H40.2396V42.823ZM44.9271 42.823H41.0049V39.1878H44.9271V42.823ZM49.7104 42.823H45.6925V39.1878H49.7104V42.823ZM54.3979 42.823H50.38V39.1878H54.3979V42.823ZM59.1811 42.823H55.1632V39.1878H59.1811V42.823Z" fill="white"/>
<path d="M72.0001 41.1966C72.0001 41.1966 70.2781 39.5703 66.7385 40.1443C66.3559 37.37 63.3903 35.7437 63.3903 35.7437C63.3903 35.7437 60.616 39.092 62.625 42.8229C62.051 43.1099 61.0943 43.4925 59.6594 43.4925H33.3517C32.8734 45.3101 32.8734 57.3639 46.075 57.3639C55.5458 57.3639 62.625 52.9633 65.9732 44.9275C70.9478 45.3101 72.0001 41.1966 72.0001 41.1966Z" fill="white"/>
<path fill-rule="evenodd" clip-rule="evenodd" d="M66.6572 40.2544L66.6438 40.1573C66.4566 38.8007 65.6367 37.7191 64.8549 36.9728C64.4647 36.6004 64.0862 36.3136 63.8053 36.1199C63.665 36.0231 63.5491 35.9497 63.4687 35.9007C63.4482 35.8882 63.43 35.8773 63.4143 35.868C63.3974 35.8901 63.3765 35.9179 63.3524 35.9512C63.2817 36.0482 63.1826 36.1915 63.0697 36.3753C62.8438 36.7429 62.5633 37.2715 62.3449 37.9149C61.9083 39.2012 61.7208 40.9419 62.7092 42.7775L62.756 42.8643L62.6678 42.9084C62.0843 43.2002 61.1129 43.5882 59.6594 43.5882H33.4269C33.3201 44.0658 33.2452 45.107 33.3766 46.4172C33.5148 47.7944 33.8802 49.4599 34.6692 51.0676C35.458 52.6747 36.6696 54.2235 38.5011 55.371C40.3325 56.5184 42.7896 57.2682 46.075 57.2682C55.5119 57.2682 62.5533 52.8867 65.8849 44.8907L65.9115 44.8268L65.9806 44.8321C68.4363 45.021 69.9147 44.1015 70.7811 43.1414C71.2157 42.6599 71.4978 42.1662 71.6712 41.793C71.7578 41.6065 71.8171 41.4504 71.8547 41.3414C71.8708 41.2947 71.8829 41.2567 71.8914 41.2287C71.8822 41.221 71.8715 41.2122 71.8593 41.2024C71.8074 41.1608 71.7287 41.1012 71.6229 41.0312C71.4113 40.8911 71.0917 40.7092 70.6624 40.5445C69.8045 40.2155 68.5062 39.9545 66.7539 40.2387L66.6572 40.2544ZM72.0001 41.1966C72.0001 41.1966 70.9478 45.3101 65.9732 44.9275C62.625 52.9633 55.5458 57.3639 46.075 57.3639C32.8734 57.3639 32.8734 45.3101 33.3517 43.4925H59.6594C61.025 43.4925 61.9574 43.146 62.5391 42.8651C62.5686 42.8508 62.5972 42.8367 62.625 42.8229C62.6098 42.7947 62.5949 42.7665 62.5802 42.7383C60.6578 39.0415 63.3903 35.7437 63.3903 35.7437C63.3903 35.7437 66.2885 37.3331 66.7244 40.0496C66.7295 40.081 66.7342 40.1126 66.7385 40.1443C66.7702 40.1391 66.8017 40.1342 66.8331 40.1294C70.3088 39.5992 72.0001 41.1966 72.0001 41.1966Z" fill="white"/>
<path d="M3.01514 69.9999C3.01514 69.9999 11.4612 64.0572 17.8053 64.0572C24.1494 64.0572 29.1611 69.9999 35.5052 69.9999C41.8492 69.9999 45.9317 64.0572 52.2757 64.0572C58.6198 64.0572 67.9952 69.9999 67.9952 69.9999" stroke="white" stroke-width="4"/>
</g>
<defs>
<clipPath id="clip0_2027_85">
<rect width="72" height="72" fill="white"/>
</clipPath>
</defs>
</svg>
