<svg xmlns="http://www.w3.org/2000/svg" width="72" height="72" viewBox="0 0 72 72">
    <defs>
        <style>
            .cls-1 {
            fill: #fff;
            fill-rule: evenodd;
            }
        </style>
    </defs>
    <path id="Kształt_94" data-name="Kształt 94" class="cls-1"
          d="M624,875.035V839.887l-31.719,21.126-0.281-.4-0.281.4L560,839.887V879h39.774a17.959,17.959,0,0,0-2.362,4H556V835h72v43.7A18.1,18.1,0,0,0,624,875.035ZM565.808,839L592,856.444,618.191,839H565.808Zm30.462,48H558v-2h38.718A17.89,17.89,0,0,0,596.27,887ZM596,890c0,0.337.032,0.667,0.05,1H560v-2h36.05C596.032,889.333,596,889.662,596,890Zm0.718,5H562v-2h34.27A17.89,17.89,0,0,0,596.718,895ZM614,876a14,14,0,1,1-14,14A14,14,0,0,1,614,876Zm-5.06,18.218a4.441,4.441,0,0,0,1.332,1.269,6.093,6.093,0,0,0,1.971.8v1.332a0.492,0.492,0,0,0,.486.486h2.358a0.492,0.492,0,0,0,.486-0.486v-1.278a5.5,5.5,0,0,0,2.9-1.3,3.576,3.576,0,0,0,.126-5,6.19,6.19,0,0,0-2.988-1.3q-1.584-.324-2.223-0.486a3.111,3.111,0,0,1-.945-0.369,0.65,0.65,0,0,1-.306-0.567,0.723,0.723,0,0,1,.5-0.711,3.319,3.319,0,0,1,1.269-.207,2.733,2.733,0,0,1,.981.162,1.7,1.7,0,0,1,.621.369l0.234,0.243a1.273,1.273,0,0,0,.324.225,1.011,1.011,0,0,0,.4.063h2.358a0.361,0.361,0,0,0,.261-0.117,0.381,0.381,0,0,0,.117-0.279,2.611,2.611,0,0,0-.5-1.3,4.637,4.637,0,0,0-1.278-1.224,5.743,5.743,0,0,0-1.845-.8v-1.35a0.492,0.492,0,0,0-.486-0.486h-2.358a0.492,0.492,0,0,0-.486.486v1.332a4.8,4.8,0,0,0-2.511,1.395,3.318,3.318,0,0,0-.927,2.295,3.485,3.485,0,0,0,.864,2.475,5.056,5.056,0,0,0,2.7,1.323l0.81,0.162q1.259,0.27,1.836.414a2.953,2.953,0,0,1,.891.351,0.6,0.6,0,0,1,.315.513q0,0.954-2.232.954a2.81,2.81,0,0,1-1.125-.207,2.02,2.02,0,0,1-.711-0.468q-0.234-.261-0.288-0.315a1,1,0,0,0-.684-0.252h-2.358a0.36,0.36,0,0,0-.261.117,0.377,0.377,0,0,0-.117.279A2.733,2.733,0,0,0,608.94,894.218Z"
          transform="translate(-556 -833.5)"/>
</svg>
