<svg xmlns="http://www.w3.org/2000/svg" width="72" height="72" viewBox="0 0 72 72">
    <defs>
        <style>
            .cls-1 {
            fill: #fff;
            fill-rule: evenodd;
            }
        </style>
    </defs>
    <path id="Kształt_98" data-name="Kształt 98" class="cls-1"
          d="M865,2220H808v-12H796v-60h60v12h12v60h-3Zm-13-68H800v52h8v-44h44v-8Zm12,12H812v52h52v-52Zm-39.169,26.27a9.077,9.077,0,0,1,9.8-2.05l-2.37,2.37a6.048,6.048,0,0,0-.957-0.09,6.252,6.252,0,0,0-4.421,1.82l-2.141,2.14a6.239,6.239,0,0,0,0,8.8,6.143,6.143,0,0,0,4.374,1.82,6.206,6.206,0,0,0,4.421-1.82l2.142-2.14a6.247,6.247,0,0,0,1.732-5.38l2.37-2.37a9.027,9.027,0,0,1,.638,3.33,9.13,9.13,0,0,1-2.689,6.47l-2.142,2.14a9.1,9.1,0,0,1-6.472,2.69,9.183,9.183,0,0,1-9.114-9.11,9.149,9.149,0,0,1,2.689-6.48Zm19.551-4.56-11.667,11.67-2.1-2.1,11.667-11.66Zm-1.641,4.7a6.037,6.037,0,0,0,.957.09,6.251,6.251,0,0,0,4.42-1.82l2.142-2.15a6.227,6.227,0,0,0,0-8.79,6.143,6.143,0,0,0-4.375-1.82,6.206,6.206,0,0,0-4.42,1.82l-2.142,2.14a6.247,6.247,0,0,0-1.732,5.38l-2.37,2.37a9.027,9.027,0,0,1-.638-3.33,9.126,9.126,0,0,1,2.689-6.47l2.142-2.14a9.1,9.1,0,0,1,6.471-2.69,9.183,9.183,0,0,1,9.115,9.11,9.149,9.149,0,0,1-2.689,6.48l-2.142,2.14a9.077,9.077,0,0,1-9.8,2.05Z" transform="translate(-796 -2148)"/>
</svg>
