<svg xmlns="http://www.w3.org/2000/svg" width="72" height="72" viewBox="0 0 72 72">
    <defs>
        <style>
            .cls-1 {
            fill: #fff;
            fill-rule: evenodd;
            }
        </style>
    </defs>
    <path id="Kształt_93_kopia_8" data-name="Kształt 93 kopia 8" class="cls-1"
          d="M1589,634.051v0.169h0v0.218s0,0-.01,0v0.28a0.074,0.074,0,0,1-.01.045v0.062h0v0.046h0v0.045h0v0.015h0a0.08,0.08,0,0,1-.01.047h0v0.045h0v0.062h0v0.016h0v0.015h0a0.289,0.289,0,0,0-.01.092h0a18.186,18.186,0,0,1-.37,2.686l-1.96-.421A16.19,16.19,0,0,0,1587,634c0-.322-0.01-0.648-0.02-0.977l2-.092c0,0.135.01,0.27,0.01,0.4v0.016h0v0.016h0v0.147s0.01,0,.01,0v0.3h0v0.032h0V633.9h0v0.016h0v0.016h0v0.016h0v0.016h0v0.016h0v0.067Zm-4-34.223-7.46,7.461-2.83-2.829,7.46-7.46H1577v-4h12v12h-4v-5.172Zm-9.88,11.573a0.031,0.031,0,0,0,.01.027h0v0.013h0a0.147,0.147,0,0,0,.01.013h0v0.014a0.012,0.012,0,0,1,.01.013h0V611.5a0.028,0.028,0,0,1,.01.025c0.01,0,.01,0,0.01,0v0.011h0a0.011,0.011,0,0,0,.01.012v0.016a0.127,0.127,0,0,0,.01.012V611.6s0.01,0.007.01,0.01v0.018s0.01,0,.01.007v0.022c0.01,0,.01,0,0.01,0v0.01a0.012,0.012,0,0,0,.01.013V611.7a0.147,0.147,0,0,0,.01.013v0.016s0.01,0.01.01,0.015h0v0.011a0.032,0.032,0,0,1,.01.028h0a0.392,0.392,0,0,1,.04.1l-1.87.7a15.183,15.183,0,0,0-2.1-3.862l1.59-1.211a16.554,16.554,0,0,1,2.2,3.9h0Zm-2.2-3.9h0Zm-7.05-3.126,0.86-1.807v0l0.01,0v0l0.01,0a0.035,0.035,0,0,0,.02.01v0s0,0,.01,0v0l0.01,0s0,0,.01,0v0l0.01,0v0l0.01,0v0c0.01,0,.01,0,0.01,0l0.01,0v0l0.01,0v0l0.01,0s0,0,.01,0h0s0.01,0,.01,0h0l0.01,0v0c0.01,0,.01,0,0.01,0h0c0.01,0,.01,0,0.01,0l0.01,0v0l0.01,0c0.01,0,.01.007,0.02,0.01h0s0.01,0,.01,0h0a0.034,0.034,0,0,1,.02.011h0.01s0,0,.01,0h0l0.03,0.017h0a0.454,0.454,0,0,1,.07.035h0a17.431,17.431,0,0,1,2.47,1.493h0c0.01,0.008.03,0.015,0.04,0.022h0l0.03,0.023,0.06,0.046h0a0.061,0.061,0,0,1,.01.007h0c0.01,0,.01.009,0.02,0.014h0a0.061,0.061,0,0,1,.01.007h0c0.01,0,.01.01,0.02,0.014h0a0.061,0.061,0,0,1,.01.007h0l0.03,0.022h0l0.03,0.022h0c0.01,0,.01,0,0.01.007h0a0.034,0.034,0,0,1,.02.015h0c0.01,0,.01,0,0.01.007h0a0.031,0.031,0,0,1,.02.016h0.01v0.007h0a0.034,0.034,0,0,1,.02.015h0.01v0.008h0.01a0.034,0.034,0,0,0,.02.015h0v0.007h0.01a0.039,0.039,0,0,0,.02.015h0s0,0,.01.006h0a0.034,0.034,0,0,0,.02.015h0s0,0,.01.007h0s0,0,.01.007h0s0,0,.01.008h0s0,0,.01.006v0s0,0,.01.006h0s0,0,.01.007v0s0,0,.01.006v0s0,0,.01.006h0s0,0,.01.008h0s0,0,.01.007h0s0,0,.01.007h0s0,0,.01.007h0s0,0,.01.007v0s0,0,.01,0v0s0.01,0,.01.007h0s0,0,.01.007h0s0,0,.01.006v0a0.034,0.034,0,0,0,.02.015v0s0,0,.01,0v0s0,0,.01.007h0s0,0,.01.007v0s0,0,.01,0v0s0,0,.01.007h0s0,0,.01.007v0s0,0,.01,0v0s0,0,.01,0v0s0,0,.01.007v0s0,0,.01,0v0s0,0,.01.006h0s0,0,.01.008v0s0,0,.01,0v0s0,0,.01.006v0s0,0,.01.007v0s0,0,.01,0v0s0,0,.01,0v0s0,0,.01.007v0s0,0,.01,0v0s0,0,.01.006v0s0,0,.01.007h0s0,0,.01.007v0s0,0,.01,0v0s0,0,.01.007h0s0,0,.01.006v0s0,0,.01,0v0s0,0,.01.008h0s0,0,.01.007v0.008c0.01,0,.01,0,0.01,0s0,0,.01.006v0s0,0,.01.007v0.007c0.01,0,.01,0,0.01,0s0,0,.01.007h0V605l0.01,0v0c0.01,0,.01,0,0.01,0v0.006h0.01v0.008c0.01,0,.01,0,0.01,0v0s0.01,0,.01,0v0.006h0.01v0.008c0.01,0,.01,0,0.01,0v0l0.01,0v0s0,0,.01,0v0.007l0.01,0v0.006l0.01,0V605.1c0.01,0,.01,0,0.01.007v0c0.01,0,.01,0,0.01.006v0c0.01,0,.01,0,0.01.006v0c0.01,0,.01,0,0.01.007v0c0.01,0,.01,0,0.01.006v0c0.01,0,.01,0,0.01,0v0c0.01,0,.01,0,0.01.008h0c0.01,0,.01,0,0.01.006v0c0.01,0,.01,0,0.01,0v0c0.01,0,.01,0,0.01.007h0s0.01,0,.01.008v0s0.01,0,.01.006v0s0.01,0,.01.007h0a0.07,0.07,0,0,1,.01.008v0a0.053,0.053,0,0,1,.01.006v0a0.061,0.061,0,0,1,.01.007h0a0.07,0.07,0,0,0,.01.008v0s0,0,.01.006v0s0,0,.01.007h0s0,0,.01.008v0s0,0,.01.006v0s0,0,.01.007h0s0,0,.01.008h0s0,0,.01.007h0v0l-1.33,1.492A15.673,15.673,0,0,0,1565.87,604.374Zm-2.54-1a27.734,27.734,0,0,0-4.54-1.006l0.27-1.981c0.45,0.063.9,0.134,1.34,0.213h0l0.09,0.018h0.01l0.03,0.007h0l0.02,0h0a0.309,0.309,0,0,1,.04.007h0l0.04,0.007h0l0.02,0,0.02,0,0.02,0h0l0.04,0.008h0a0.309,0.309,0,0,0,.04.007h0l0.01,0h0.01l0.03,0.007h0a0.2,0.2,0,0,1,.04.007h0a0.042,0.042,0,0,1,.02,0h0l0.02,0h0l0.02,0h0c0.01,0,.03,0,0.04.007h0a0.274,0.274,0,0,0,.04.008h0l0.02,0h0l0.03,0.007h0.01l0.03,0.007h0.01a0.042,0.042,0,0,0,.01,0h0a0.274,0.274,0,0,1,.04.008h0c0.01,0,.03,0,0.04.008h0l0.06,0.012h0a0.274,0.274,0,0,0,.04.008h0l0.03,0.008h0l0.06,0.012h0c0.88,0.187,1.73.411,2.56,0.674ZM1553,602a32.993,32.993,0,0,0-4.7.3l-0.28-1.98c0.39-.056.79-0.1,1.19-0.145h0l0.01,0h0.01a0.036,0.036,0,0,0,.01,0h0.02l0.02,0h0l0.02,0h0l0.02,0h0l0.02,0h0l0.02,0h0l0.02,0h0.04l0.01,0h0.01s0.01,0,.01,0h0.01l0.01,0h0.04l0.02,0h0l0.02,0h0.02l0.02,0h0l0.02,0h0.04a0.117,0.117,0,0,1,.02,0h0l0.01,0h0.03s0.01,0,.01,0h0.04l0.02,0h0.08l0.02,0h0.02l0.02,0h0.02s0.01,0,.01,0h0.03l0.01,0h0.03l0.01,0h0.17a0.016,0.016,0,0,0,.01,0h0.06a0.034,0.034,0,0,0,.01,0h0.38a0.034,0.034,0,0,1,.01,0h0.06s0,0,.01,0h0.08a0.016,0.016,0,0,1,.01,0h0.18a0.034,0.034,0,0,0,.01,0h0.11a0.034,0.034,0,0,1,.01,0h0.08s0,0,.01,0h0.55a0.034,0.034,0,0,0,.01,0h0.15a0.034,0.034,0,0,1,.01,0h0.57a0.034,0.034,0,0,1,.01,0h1.05q1.05,0.012,2.07.066h0l0.05,0,0.02,0h0.05l0.02,0h0.13a0.034,0.034,0,0,1,.01,0h0.05l0.04,0h0l0.06,0-0.13,2C1555.01,602.03,1554.02,602,1553,602Zm-12.52.837a18.406,18.406,0,0,1,4.6-1.915l0.52,1.93a16.258,16.258,0,0,0-4.1,1.705Zm37.12,10.353a9.657,9.657,0,0,1,.97.369h0c0.01,0.006.03,0.012,0.04,0.019h0s0.01,0,.01,0h0l0.02,0.008h0s0,0,.01,0h0s0.01,0,.01.008h0l0.03,0.012h0a0.041,0.041,0,0,0,.02.007h0s0,0,.01,0h0s0.01,0,.01.008h0l0.03,0.012h0s0.01,0,.01,0h0v0h0c0.01,0,.01,0,0.01,0h0.01s0,0,.01.007h0s0.01,0,.01,0h0s0,0,.01,0h0s0,0,.01,0h0s0,0,.01,0h0v0h0c0.01,0,.01,0,0.01,0h0c0.01,0,.01,0,0.01,0h0c0.01,0,.01,0,0.01,0h0a0.042,0.042,0,0,0,.01,0h0v0h0.01v0c0.01,0,.01,0,0.01,0v0h0.01v0c0.01,0,.01,0,0.01,0h0c0.01,0,.01,0,0.01,0v0l0.01,0v0s0,0,.01,0h0v0c0.01,0,.01,0,0.01,0v0l0.01,0v0h0.01v0l0.01,0v0l0.01,0v0s0,0,.01,0v0c0.01,0,.01,0,0.01,0h0l0.01,0v0c0.01,0,.01,0,0.01,0v0l0.01,0v0h0.01v0s0,0,.01,0v0l0.01,0h0s0,0,.01,0v0s0,0,.01,0h0v0c0.01,0,.01,0,0.01,0v0h0c0.01,0,.01,0,0.01,0h0c0.01,0,.01,0,0.01,0v0l0.01,0v0l0.01,0v0s0,0,.01,0h0v0h0.01v0h0.01v0h0c0.01,0,.01,0,0.01,0v0a0.042,0.042,0,0,1,.01,0h0s0,0,.01,0v0h0.01v0l0.01,0v0h0c0.01,0,.01,0,0.01,0h0s0.01,0,.01,0h0s0,0,.01,0h0s0,0,.01,0v0l0.01,0v0l0.01,0v0c0.01,0,.01,0,0.01,0h0s0.01,0,.01,0v0s0,0,.01,0h0v0h0.01v0l0.01,0v0h0c0.01,0,.01,0,0.01,0v0l0.01,0h0a0.042,0.042,0,0,0,.01,0h0s0,0,.01,0v0s0,0,.01,0h0v0h0c0.01,0,.01,0,0.01,0h0c0.01,0,.01,0,0.01,0h0s0.01,0,.01,0h0s0,0,.01,0h0v0h0.01v0h0c0.01,0,.01,0,0.01,0h0c0.01,0,.01,0,0.01,0h0a0.042,0.042,0,0,1,.01,0h0s0,0,.01,0h0s0,0,.01,0h0v0h0.01v0h0c0.01,0,.01,0,0.01,0h0a0.042,0.042,0,0,1,.01,0h0s0,0,.01,0h0s0,0,.01,0h0v0h0.01v0h0c0.01,0,.01,0,0.01,0h0a0.167,0.167,0,0,1,.02.008h0s0,0,.01,0h0v0h0.01v0h0c0.01,0,.01,0,0.01,0h0l0.01,0h0s0.01,0,.01,0h0s0,0,.01,0h0v0h0.01v0h0c0.01,0,.01,0,0.01,0s0.01,0,.01,0h0s0.01,0,.01,0h0s0,0,.01,0h0v0h0.01v0h0c0.01,0,.01,0,0.01,0h0s0.01,0,.01,0h0c0.01,0,.01.007,0.02,0.01h0v0h0.01s0.01,0.007.01,0.01h0a0.047,0.047,0,0,0,.01,0h0s0,0,.01,0h0s0,0,.01,0h0s0.01,0.006.01,0.009h0c0.01,0,.01,0,0.01,0h0a0.186,0.186,0,0,1,.02.01h0c0.01,0,.01.01,0.02,0.015h0l0.03,0.016h0c0.01,0,.01.01,0.02,0.015h0c0.01,0,.01.007,0.02,0.011h0c0.01,0.005.01,0.01,0.02,0.015h0c0.02,0.013.05,0.027,0.07,0.041h0c0.01,0,.01.01,0.02,0.015h0a0.138,0.138,0,0,1,.04.027h0a13.325,13.325,0,0,1,1.76,1.389l-1.37,1.461a9.3,9.3,0,0,0-3.47-2.141Zm-7.39,4.836c6.54,0.467,11.79,7.641,11.79,14.308A12.689,12.689,0,0,1,1569.36,645h-33.72A12.689,12.689,0,0,1,1523,632.334a12.47,12.47,0,0,1,6.32-10.556,8.469,8.469,0,0,1,8.43-8.444,6.893,6.893,0,0,1,.86.131A18.655,18.655,0,0,1,1552.5,607C1560.77,607,1567.64,610.594,1570.21,618.026Zm-28.63-1.885-1.39,1.541-2.06-.245c-0.2-.023-0.39-0.058-0.59-0.1a4.5,4.5,0,0,0-4.22,4.439v2.243l-1.91,1.17c-1.33.81-4.41,3.126-4.41,7.143a8.666,8.666,0,0,0,8.64,8.666h33.72a8.666,8.666,0,0,0,8.64-8.666c0-4.917-4-10.027-8.07-10.318l-2.63-.188-0.87-2.492c-2.51-7.253-9.81-8.336-13.93-8.336A14.677,14.677,0,0,0,1541.58,616.141Zm14.54,6.006a3.564,3.564,0,0,1,4.88-.283v0.141s-2.73,3.222-5.52,6.473c2.78,3.191,5.52,6.36,5.52,6.36s-2.5,2.481-4.88,0c-0.5-.523-1.69-1.868-3.1-3.5-1.43,1.652-2.63,3.018-3.14,3.547-2.38,2.49-4.88,0-4.88,0s2.76-3.2,5.54-6.41c-2.79-3.249-5.54-6.48-5.54-6.48v-0.142a3.573,3.573,0,0,1,4.88.283c0.43,0.445,1.65,1.82,3.13,3.509C1554.48,623.963,1555.69,622.592,1556.12,622.147Zm-18.53-14.2-0.7.86-1.11-.144a5.352,5.352,0,0,1-.59-0.116,1.967,1.967,0,0,0-.21-0.045,6.424,6.424,0,0,0-.77.052l-0.25-1.985,0.05-.006h0.01a7.509,7.509,0,0,1,.92-0.051l0.25,0,0.06,0.008h0.04c0.09,0.014.18,0.034,0.27,0.054h0a0.663,0.663,0,0,1,.08.02,4.045,4.045,0,0,0,.4.078h0c0.01,0,.01,0,0.01-0.008v0a0.047,0.047,0,0,1,.01-0.005v-0.009c0.01,0,.01,0,0.01,0V606.64c0.01,0,.01,0,0.01-0.006v0s0.01,0,.01-0.006v-0.009c0.01,0,.01,0,0.01,0V606.6c0.01,0,.01,0,0.01,0v-0.008c0.01,0,.01-0.007.01-0.011v0c0.01,0,.01,0,0.01,0v0s0,0,.01,0v-0.012c0.01,0,.01,0,0.01,0h0c0.01-.007.01-0.013,0.02-0.02v-0.01c0.01,0,.01,0,0.01-0.006h0s0,0,.01-0.007h0c0-.007.01-0.014,0.01-0.021h0.01v-0.007h0s0.01,0,.01-0.006v0c0.01-.009.01-0.019,0.02-0.028h0c0.01,0,.01,0,0.01-0.007h0s0,0,.01-0.007h0a17.935,17.935,0,0,1,1.79-1.828l1.32,1.507A15.329,15.329,0,0,0,1537.59,607.944Zm-10.64,2.189a14.873,14.873,0,0,1,3-2.2h0s0,0,.01,0h0s0,0,.01,0h0v0h0.01v0h0c0.01,0,.01,0,0.01,0h0l0.01,0h0l0.01,0h0s0,0,.01,0h0v0h0.01v0h0c0.01,0,.01,0,0.01,0h0s0.01,0,.01,0h0s0.01,0,.01,0h0a0.036,0.036,0,0,1,.02-0.009h0a0.224,0.224,0,0,1,.05-0.027h0s0,0,.01,0h0v0h0.01v0h0c0.01,0,.01,0,0.01,0h0a0.042,0.042,0,0,0,.01,0h0s0,0,.01,0h0s0,0,.01,0v0a0.036,0.036,0,0,0,.01,0v0l0.01,0v0c0.01,0,.01,0,0.01,0v0s0.01,0,.01,0v0c0.01,0,.01,0,0.01,0h0s0.01,0,.01,0v0s0,0,.01,0v0h0.01v0h0.01v0c0.01,0,.01,0,0.01,0h0l0.01,0v0l0.01,0h0v0h0.01a1.11,1.11,0,0,1,.11-0.057h0q0.33-.164.66-0.306l0.79,1.836a12.72,12.72,0,0,0-3.57,2.38Zm-4.03,6.773a11.2,11.2,0,0,1,1.06-2.9h0V614h0s0-.006.01-0.009h0V613.98h0s0,0,.01-0.008h0v-0.008h0v-0.008h0c0.01,0,.01-0.006.01-0.009h0v-0.008h0c0.01,0,.01,0,0.01-0.008h0a1.064,1.064,0,0,1,.08-0.147h0a0.017,0.017,0,0,1,.01-0.017h0v-0.008h0s0,0,.01-0.008h0v-0.009h0s0,0,.01-0.008h0V613.72h0s0-.006.01-0.008h0V613.7h0v-0.009h0a0.981,0.981,0,0,0,.08-0.138h0s0.01,0,.01-0.008h0V613.54h0s0.01,0,.01-0.008h0v-0.009a0.061,0.061,0,0,0,.01-0.007h0v-0.008h0a0.07,0.07,0,0,1,.01-0.008h0v-0.008h0a0.061,0.061,0,0,0,.02-0.034h0c0.21-.365.45-0.721,0.69-1.068l1.63,1.161a10.246,10.246,0,0,0-1.72,3.772Zm-2.21,7.384-1.81-.85a13.985,13.985,0,0,1,.69-1.294h0c0.01-.008.01-0.017,0.02-0.025h0v-0.006h0a0.017,0.017,0,0,0,.01-0.018h0c0.01,0,.01,0,0.01-0.006h0v-0.008a0.016,0.016,0,0,0,.01-0.017h0c0.01,0,.01,0,0.01-0.006h0v-0.006h0a0.018,0.018,0,0,0,.01-0.018s0,0,.01,0v-0.015c0.01,0,.01,0,0.01-0.007V622l0.01,0v-0.011s0,0,.01,0v-0.014c0.01,0,.01,0,0.01,0v-0.011c0.01,0,.01,0,0.01,0v-0.009s0,0,.01,0V621.92s0,0,.01,0V621.9c0.01,0,.01,0,0.01,0v-0.011a0.042,0.042,0,0,1,.01,0v-0.01s0,0,.01,0v-0.01s0,0,.01-0.006v-0.012l0.01,0v-0.011c0.01,0,.01,0,0.01-0.008h0v-0.008c0.01,0,.01,0,0.01,0v-0.01c0.01,0,.01,0,0.01-0.008v-0.007c0.01,0,.01,0,0.01,0v-0.007s0,0,.01-0.007h0v-0.009s0,0,.01-0.007h0v-0.006h0a0.015,0.015,0,0,0,.01-0.016h0c0.01,0,.01,0,0.01-0.006v-0.009h0a0.016,0.016,0,0,0,.01-0.016h0.01v-0.007h0s0,0,.01-0.007h0a0.016,0.016,0,0,1,.01-0.016h0v-0.007h0c0.01-.008.01-0.016,0.02-0.024h0v-0.008h0c0.01-.008.01-0.016,0.02-0.024h0a0.057,0.057,0,0,0,.02-0.032h0c0.01-.008.01-0.016,0.02-0.024h0v-0.007H1520a10.325,10.325,0,0,1,1.87-2.059l1.28,1.533A9.374,9.374,0,0,0,1520.71,624.29Zm-1.62,7.043-1.99-.144a26.772,26.772,0,0,1,.78-4.929l1.93,0.518A24.483,24.483,0,0,0,1519.09,631.333Zm0.55,7.233-1.92.554c-0.15-.509-0.28-1.028-0.38-1.556h0v-0.009h0a0.033,0.033,0,0,0-.01-0.028h0v-0.038h0a0.031,0.031,0,0,1-.01-0.027h0v-0.01a0.029,0.029,0,0,0-.01-0.026v-0.011h0v-0.037l-0.01,0V637.32s-0.01,0-.01,0v-0.05s-0.01,0-.01-0.008v-0.047s0,0-.01-0.006v-0.05s0-.007-0.01-0.01V637.09c-0.01,0-.01-0.006-0.01-0.009v-0.042s0-.007-0.01-0.011V637h0v-0.027a0.127,0.127,0,0,1-.01-0.012h0v-0.025h0v-0.013h0v-0.013a0.028,0.028,0,0,1-.01-0.025h0V636.87h0v-0.025h0a0.011,0.011,0,0,1-.01-0.012h0V636.8h0a0.059,0.059,0,0,0-.01-0.039h0a18.559,18.559,0,0,1-.2-2.491h0v-0.041h0v-0.041h0v0l2-.02A16.239,16.239,0,0,0,1519.64,638.566Zm0.57,5.788s0,0-.01-0.008h0a0.313,0.313,0,0,0-.05-0.072h0a0.06,0.06,0,0,0-.02-0.032h0v-0.007h0l-0.03-.031h0v-0.008h0c-0.01-.008-0.01-0.016-0.02-0.024h0v-0.008h0l-0.03-.031h0v-0.007h0a0.058,0.058,0,0,1-.02-0.031v0c-0.01,0-.01,0-0.01-0.006v0c0-.008-0.01-0.015-0.01-0.023h0c-0.01,0-.01,0-0.01-0.007v0s0,0-.01-0.008h0c0-.008-0.01-0.015-0.01-0.023h0a0.061,0.061,0,0,0-.01-0.007V644h0c-0.01-.008-0.01-0.016-0.02-0.023v-0.009s0,0-.01,0a0.053,0.053,0,0,0-.02-0.03v-0.011c-0.01-.008-0.01-0.015-0.02-0.022h0v-0.009a0.061,0.061,0,0,0-.01-0.007v0c0-.007-0.01-0.015-0.01-0.023h0c-0.01,0-.01,0-0.01-0.006v-0.009l-0.01,0c0-.007-0.01-0.014-0.01-0.021v0s0,0-.01-0.006v0c0-.008-0.01-0.015-0.01-0.023h0s0,0-.01-0.007v-0.011c-0.01-.008-0.01-0.015-0.02-0.022v-0.011c-0.01,0-.01,0-0.01-0.006v0c0-.007-0.01-0.014-0.01-0.021s0,0-.01,0v-0.016h-0.01c0-.008-0.01-0.015-0.01-0.023v0s0,0-.01-0.006v-0.011s-0.01-.009-0.01-0.014v0s0,0-.01-0.006v-0.012c-0.01-.007-0.01-0.014-0.02-0.021v-0.012c-0.01,0-.01,0-0.01-0.006v0c0-.007-0.01-0.014-0.01-0.022v0c-0.01,0-.01,0-0.01-0.007V643.53h0a0.014,0.014,0,0,1-.01-0.015h0c-0.01,0-.01,0-0.01-0.007V643.5c-0.01-.007-0.01-0.015-0.02-0.023h0v-0.007s0,0-.01,0v-0.007h0a0.024,0.024,0,0,1-.01-0.023l-0.01,0V643.42s0,0-.01-0.007h0c0-.008-0.01-0.015-0.01-0.023v0s0,0-.01-0.007v-0.009h0c0-.006-0.01-0.011-0.01-0.017h0s0,0-.01-0.007v-0.011c-0.01-.008-0.01-0.015-0.02-0.023V643.3h0s0,0-.01-0.008h0c0-.008-0.01-0.015-0.01-0.023v0s0,0-.01-0.007v-0.009c-0.01-.008-0.01-0.017-0.02-0.025h0v-0.008h0c-0.01-.011-0.01-0.021-0.02-0.033h0s0,0-.01-0.007v0a0.06,0.06,0,0,0-.02-0.032h0a0.054,0.054,0,0,0-.02-0.032V643.1c-0.01-.011-0.01-0.021-0.02-0.033h0s0-.005-0.01-0.007v0c0-.008-0.01-0.016-0.01-0.024h0v-0.008l-0.01,0v-0.007h0c0-.009-0.01-0.017-0.01-0.026h0c-0.01,0-.01-0.006-0.01-0.008h0a0.081,0.081,0,0,1-.02-0.042h0a0.058,0.058,0,0,1-.02-0.034h0c-0.18-.321-0.35-0.649-0.52-0.983l1.81-.868a14.946,14.946,0,0,0,2.45,3.65l-1.47,1.349a16.351,16.351,0,0,1-1.36-1.7h0Zm7.98,5.991-0.01,0h0l-0.03-.011h-0.01s0,0-.01,0h0s0,0-.01,0h0a0.056,0.056,0,0,0-.02-0.007h0l-0.01,0h0c-0.01,0-.01,0-0.01,0h0c-0.01,0-.01,0-0.01,0h0l-0.03-.007h0s0,0-.01,0v0l-0.01,0h0l-0.01,0h0l-0.01,0h0c-0.01,0-.01,0-0.01,0h-0.01v0h-0.01v0h-0.01s0,0-.01,0h0s0,0-.01,0h0a0.036,0.036,0,0,0-.01,0v0s-0.01,0-.01,0h0c-0.01,0-.01,0-0.01,0h0c-0.01,0-.01,0-0.01,0s-0.01,0-.01,0v0l-0.01,0h0l-0.01,0v0l-0.03-.007h0v0l-0.01,0v0a0.016,0.016,0,0,1-.01,0s0,0-.01,0h0a0.047,0.047,0,0,0-.01,0h0l-0.01,0v0c-0.01,0-.01,0-0.01,0h0c-0.01,0-.01,0-0.01,0h0l-0.03-.008h0l-0.01,0h0s0,0-.01,0h0l-0.01,0h0s-0.01,0-.01-0.007h-0.01v0s0,0-.01,0v0h0c-0.01,0-.01,0-0.01,0h0l-0.03-.009h0l-0.01,0v0l-0.01,0h0l-0.01,0h0s-0.01,0-.01-0.006h-0.01v0h-0.01v0h-0.01v0h0l-0.03-.009h0l-0.01,0h0s-0.01,0-.01,0h0l-0.03-.013h-0.01v0h-0.01v0h-0.01a0.035,0.035,0,0,0-.02-0.01h0l-0.01,0h0s-0.01,0-.01,0h0l-0.03-.01h0s0,0-.01,0h0v0h-0.01l-0.03-.013h0l-0.01,0h0s-0.01,0-.01,0h0l-0.03-.01h0v0h-0.01v0h-0.01l-0.03-.013h0l-0.01,0h0l-0.01,0h0l-0.03-.011h0s0,0-.01,0h0s0,0-.01,0h0l-0.03-.014h0s-0.01,0-.01,0h0s-0.01,0-.01,0h0l-0.03-.011h0v0h-0.01v0h-0.01l-0.03-.014h0l-0.01,0h0s-0.01,0-.01,0h0a0.043,0.043,0,0,1-.02-0.01h-0.01v0h-0.01v0h-0.01a0.034,0.034,0,0,0-.02-0.011h0s-0.01,0-.01,0h0l-0.01,0h0s0,0-.01,0h0c-0.01,0-.01-0.007-0.02-0.01h-0.01v0h-0.01v0h0l-0.03-.01h0s0,0-.01,0h0s0,0-.01,0h0s0,0-.01,0h0c-0.01,0-.01-0.007-0.02-0.01h0c-0.01,0-.01,0-0.01,0v0c-0.01,0-.01,0-0.01,0h0l-0.03-.01h0v0l-0.01,0v0c-0.01,0-.01,0-0.01,0v0c-0.01,0-.01,0-0.01,0a0.047,0.047,0,0,1-.01,0h0s-0.01,0-.01,0v0l-0.01,0v0l-0.01,0v0l-0.01,0v0a0.047,0.047,0,0,1-.01,0h-0.01v0l-0.01,0v0s0,0-.01,0v0a0.016,0.016,0,0,0-.01,0s0,0-.01-0.006h0s0,0-.01,0v0l-0.01,0v0s0,0-.01,0v0a0.047,0.047,0,0,0-.01,0h0c-0.01,0-.01,0-0.01,0v0c-0.01,0-.01,0-0.01,0v0c-0.01,0-.01,0-0.01,0v0c-0.01,0-.01,0-0.01,0v0c-0.01,0-.01,0-0.01,0l-0.01,0v0l-0.01,0v0l-0.01,0v0l-0.01,0v0c-0.01,0-.01,0-0.01,0l-0.01,0v0l-0.01,0v0s0,0-.01,0v0l-0.01,0v0l-0.01,0s0,0-.01,0v0s0,0-.01,0v0s0,0-.01,0v0s0,0-.01,0h0s-0.01,0-.01,0v0c-0.01,0-.01,0-0.01,0h0c-0.01,0-.01,0-0.01,0v0c-0.01,0-.01,0-0.01,0v0c-0.01,0-.01,0-0.01-0.005h0c-0.01,0-.01,0-0.01,0s-0.01,0-.01,0v0s-0.01,0-.01,0v0s-0.01,0-.01,0,0,0-.01,0h0s0,0-.01,0v0s0,0-.01,0v0s0,0-.01,0h0s-0.01,0-.01,0h0a0.186,0.186,0,0,0-.02-0.01h0c-0.01,0-.01,0-0.01,0h0c-0.01,0-.01,0-0.01,0h0a0.043,0.043,0,0,1-.02-0.01h0c-0.01,0-.01,0-0.01,0h-0.01v0l-0.01,0s0,0-.01,0h0s0,0-.01-0.006h0s0,0-.01,0h0s0,0-.01,0h0s0,0-.01,0h0c-0.01,0-.01-0.007-0.02-0.01h0s-0.01,0-.01,0h0s-0.01,0-.01,0h0l-0.03-.016h0c-0.01,0-.01,0-0.01,0h0c-0.01,0-.01,0-0.01,0h0l-0.04-.016h0s0,0-.01-0.006h0l-0.03-.016h0s-0.01,0-.01,0h0c-0.01-.007-0.03-0.014-0.04-0.021h0q-0.7-.369-1.38-0.813h0c-0.01-.009-0.03-0.018-0.04-0.027h0s-0.01,0-.01-0.006h0l-0.03-.019h0s-0.01,0-.01-0.006h0s-0.01,0-.01-0.007h0c-0.01,0-.01-0.009-0.02-0.013h0s-0.01,0-.01,0v0a0.047,0.047,0,0,1-.01,0h0a0.226,0.226,0,0,0-.02-0.013h0s0,0-.01-0.006v0s0,0-.01,0h0s0,0-.01-0.006h0a0.226,0.226,0,0,1-.02-0.013h0s0,0-.01,0v0s0,0-.01,0h0s0,0-.01-0.006h0s0,0-.01-0.006h0s0,0-.01,0v0s0,0-.01,0v0s0,0-.01,0v0s0,0-.01-0.006v0s0,0-.01,0v-0.006c-0.01,0-.01,0-0.01,0v0l-0.01,0v0l-0.01,0s0,0-.01-0.006v-0.007c-0.01,0-.01,0-0.01,0v0l-0.01,0v0s0,0-.01,0h0s-0.01-.006-0.01-0.009h0a0.042,0.042,0,0,0-.01,0v0s-0.01,0-.01,0v0s0,0-.01,0h0c-0.01,0-.01-0.01-0.02-0.015v0a0.042,0.042,0,0,1-.01,0v0s0,0-.01-0.005h0l-0.03-.021h0s0,0-.01,0h0a0.138,0.138,0,0,0-.04-0.029h0c-0.06-.046-0.12-0.092-0.19-0.139l1.2-1.6a12.786,12.786,0,0,0,3.83,1.977l-0.61,1.907s0,0-.01,0h0Zm-7.19,7.826,6.36-6.359,2.83,2.829L1523.83,661H1529v4h-12V653h4v5.171ZM1532.43,649h3.7v2h-4.58l-0.02,0h-0.11a0.034,0.034,0,0,1-.01,0h-0.13l-0.03,0h-0.02l-0.04,0h-0.01l-0.04,0,0.18-1.992Q1531.875,649,1532.43,649Zm11.7,2h-5v-2h5v2Zm8,0h-5v-2h5v2Zm7.99,0h-4.99v-2h4.99v2Zm8,0h-5v-2h5v2Zm7.62-2.2,0.36,1.967a13.658,13.658,0,0,1-1.49.191h0a0.458,0.458,0,0,1-.05,0h-0.01l-0.03,0h-0.01s0,0-.01,0h0l-0.04,0h-0.02l-0.02,0h-0.03l-0.03,0h-0.03l-0.02,0h-0.27a0.034,0.034,0,0,0-.01,0h-0.19a0.016,0.016,0,0,1-.01,0h-2.71v-2h2.45A11.989,11.989,0,0,0,1575.74,648.8Zm7.45-1.53a15.107,15.107,0,0,1-4.22,2.646l-0.76-1.847a13.4,13.4,0,0,0,3.66-2.3Zm-0.97-28.059,1.6-1.2a23.678,23.678,0,0,1,1.34,2.017h0a0.016,0.016,0,0,0,.01.017h0c0,0.008.01,0.017,0.01,0.025h0a0.205,0.205,0,0,0,.04.059h0a0.016,0.016,0,0,0,.01.016h0a0.015,0.015,0,0,0,.01.016h0v0.008h0s0.01,0.011.01,0.016h0V620.2s0.01,0,.01,0v0.008h0v0.008h0.01v0.016l0.01,0v0.016h0.01v0.007h0v0.008h0c0.01,0,.01,0,0.01.008h0s0.01,0.011.01,0.016h0V620.3h0c0.01,0,.01.006,0.01,0.008v0.009h0c0.01,0,.01,0,0.01.008h0v0.009c0.01,0,.01,0,0.01.006h0v0.01s0.01,0,.01.006h0v0.008h0s0.01,0,.01.008h0v0.008h0s0.01,0,.01.006v0.01s0.01,0,.01.008v0.01s0,0,.01.007v0.011s0,0,.01,0v0.017c0.01,0,.01,0,0.01,0v0.014c0.01,0,.01,0,0.01,0V620.5s0.01,0,.01,0v0.014a0.042,0.042,0,0,1,.01,0v0a0.015,0.015,0,0,0,.01.016h0v0.008s0,0,.01.009h0v0.012s0.01,0,.01,0v0.009h0v0.006h0a0.016,0.016,0,0,1,.01.017h0c0.01,0,.01.007,0.01,0.011h0v0.007c0.01,0,.01,0,0.01,0h0v0.013c0.01,0,.01,0,0.01,0h0a0.017,0.017,0,0,0,.01.017v0a0.016,0.016,0,0,0,.01.017h0v0.006h0s0.01,0.008.01,0.012h0c0,0.008.01,0.016,0.01,0.024h0c0.28,0.516.55,1.046,0.8,1.589l-1.82.836A21.312,21.312,0,0,0,1582.22,619.214Zm5.24,5.89v0.017h0c0,0.006.01,0.012,0.01,0.018h0v0.019h0a0.017,0.017,0,0,1,.01.018c0.29,0.846.53,1.7,0.74,2.566h0c0,0.013.01,0.026,0.01,0.038h0V627.8h0c0,0.007.01,0.013,0.01,0.019h0a0.052,0.052,0,0,0,.01.037h0v0.019h0a0.017,0.017,0,0,0,.01.018h0v0.038h0a0.017,0.017,0,0,1,.01.018h0v0.018h0a0.017,0.017,0,0,1,.01.018h0v0.018h0c0,0.006.01,0.012,0.01,0.017v0.022a0.017,0.017,0,0,0,.01.017h0v0.039a0.016,0.016,0,0,1,.01.016v0.022s0.01,0.01.01,0.016v0.023a0.013,0.013,0,0,0,.01.014v0.043a0.014,0.014,0,0,1,.01.015v0.024s0.01,0.009.01,0.013v0.024a0.014,0.014,0,0,0,.01.015v0.043a0.012,0.012,0,0,1,.01.013v0.025a0.011,0.011,0,0,0,.01.012v0.045a0.011,0.011,0,0,1,.01.012v0.028s0,0.007.01,0.011v0.037s0,0.006.01,0.009v0.039s0,0,.01.008v0.038s0,0.008.01,0.011V628.7s0,0,.01.007v0.037a0.012,0.012,0,0,0,.01.013V628.8a0.012,0.012,0,0,1,.01.013v0.022a0.019,0.019,0,0,0,.01.019v0.037c0,0.007.01,0.012,0.01,0.019h0q0.105,0.519.18,1.035l-1.97.318a27.786,27.786,0,0,0-1.13-4.521l1.9-.643h0Zm0.26,15.665c-0.18.442-.37,0.875-0.58,1.3h0v0.011h0a0.024,0.024,0,0,0-.01.022h0c-0.01,0-.01.006-0.01,0.01v0.012h-0.01a0.022,0.022,0,0,1-.01.022h0v0.012a0.094,0.094,0,0,0-.01.01v0.011h0c-0.01,0-.01.007-0.01,0.011h0v0.01h0c-0.01.008-.01,0.014-0.02,0.022h0v0.012a0.081,0.081,0,0,0-.01.009h0v0.011h0a0.094,0.094,0,0,1-.01.01v0.013c-0.01,0-.01.007-0.01,0.009v0s0,0.006-.01.01v0.014s0,0-.01.007v0.013h0s-0.01.006-.01,0.009v0.011s0,0-.01,0v0.01s0,0.007-.01.01v0.014a0.061,0.061,0,0,0-.01.007v0.015c-0.01,0-.01,0-0.01.008v0.01s-0.01,0-.01,0v0.01s0,0.006-.01.009v0.014s-0.01,0-.01.007v0.013h0c-0.01,0-.01.007-0.01,0.01v0.01c-0.01,0-.01,0-0.01,0v0.01s-0.01.007-.01,0.01v0.015c-0.01,0-.01,0-0.01,0v0.01s-0.01,0-.01.006v0.012s0,0-.01.006V642.6s-0.01,0-.01.008v0.011s-0.01,0-.01,0v0.015c-0.01,0-.01,0-0.01.008v0.011c-0.01,0-.01,0-0.01.005v0.01s0,0-.01,0V642.7s0,0-.01,0v0.015s-0.01,0-.01,0v0.014c-0.01,0-.01,0-0.01.005v0.015c-0.01,0-.01,0-0.01,0v0.013c-0.01,0-.01,0-0.01,0v0.01s-0.01,0-.01.006V642.8a0.011,0.011,0,0,0-.01.012v0.01c-0.01,0-.01,0-0.01,0v0.01s-0.01.008-.01,0.012v0.008s0,0-.01,0v0.015l-0.01,0V642.9c-0.01,0-.01,0-0.01.006v0.01s0,0-.01,0a0.019,0.019,0,0,1-.01.019v0.014c-0.01,0-.01,0-0.01.006v0s0,0.008-.01.011v0.013s-0.01,0-.01.006V643s-0.01,0-.01.007v0.01s0,0-.01,0v0.015a0.061,0.061,0,0,0-.01.007v0.011s-0.01,0-.01,0v0.009s0,0-.01.006v0.014s0,0-.01,0v0.015l-0.01,0a0.021,0.021,0,0,1-.01.02v0.009s0,0-.01,0v0.007h0s-0.01.008-.01,0.012v0.01s0,0-.01,0v0.009c0,0.007-.01.013-0.01,0.02v0c-0.01,0-.01,0-0.01.006v0.009s0,0-.01,0v0.015c-0.01,0-.01,0-0.01,0v0.01s0,0-.01,0v0.009s0,0.007-.01.011v0.013c-0.01,0-.01,0-0.01,0v0s0,0.007-.01.011v0.012c-0.01,0-.01,0-0.01.006v0.009s0,0-.01,0v0.014c-0.01,0-.01,0-0.01.006v0.009s0,0-.01,0v0.013s-0.01,0-.01,0v0.01s0,0-.01,0v0.01s0,0-.01.008v0.01s0,0-.01,0v0.009c0,0.006-.01.013-0.01,0.019s0,0-.01,0v0.015s-0.01,0-.01,0v0.01s0,0-.01,0v0.014a0.042,0.042,0,0,1-.01,0,0.019,0.019,0,0,1-.01.019v0.009c-0.01,0-.01,0-0.01,0v0.01s-0.01,0-.01.006v0.011a0.047,0.047,0,0,1-.01,0v0.01s0,0-.01,0v0.014c-0.01,0-.01,0-0.01,0v0.01a0.047,0.047,0,0,0-.01,0v0.011a0.061,0.061,0,0,0-.01.007v0.009s-0.01,0-.01,0v0.009s0,0-.01.006V643.7s-0.01,0-.01,0v0.009s0,0-.01.006v0.012s-0.01,0-.01,0v0.009a0.047,0.047,0,0,1-.01,0v0.011s-0.01,0-.01,0v0.011s-0.01,0-.01,0v0.01s0,0-.01,0v0.013c-0.01,0-.01,0-0.01,0v0.009a0.047,0.047,0,0,1-.01,0v0.009s-0.01.006-.01,0.009v0.009s-0.01,0-.01,0v0.009s-0.01.006-.01,0.009v0.009c-0.01,0-.01,0-0.01,0v0.01a0.053,0.053,0,0,0-.01.006v0s0,0.006-.01.009v0.013c-0.01,0-.01,0-0.01.006v0.011c-0.01,0-.01,0-0.01,0v0.01c-0.01,0-.01,0-0.01.006v0s0,0-.01.006v0.012s0,0-.01,0v0.01s0,0-.01,0v0.014c-0.01,0-.01.006-0.01,0.009v0s-0.01,0-.01.006v0.01s0,0-.01,0v0.012s-0.01,0-.01.006v0.01l-0.01,0v0.008h0s-0.01.007-.01,0.01v0s0,0-.01.006v0.013c-0.01,0-.01.006-0.01,0.009v0s0,0-.01.006v0.009s0,0-.01,0v0.009s-0.01,0-.01.008v0.01l-0.01,0v0.01a0.081,0.081,0,0,0-.01.009h0s0,0.005-.01.008v0.013c-0.01,0-.01,0-0.01.006v0s0,0.006-.01.009v0.009s0,0-.01,0v0.009s0,0-.01.006v0.012c-0.01,0-.01,0-0.01,0V644.3s-0.01,0-.01.006v0s0,0.006-.01.008v0.009s0,0-.01,0v0.01s0,0-.01.006v0.011s-0.01,0-.01,0v0.009s-0.01,0-.01.006v0.011c-0.01,0-.01,0-0.01,0v0s0,0-.01,0v0.013c-0.01,0-.01,0-0.01.007v0.006s-0.01,0-.01,0v0.009a0.047,0.047,0,0,1-.01,0v0.009s-0.01,0-.01.008v0s0,0-.01,0v0.013c-0.01,0-.01,0-0.01,0V644.5s-0.01,0-.01,0v0.009l-0.01,0v0.009c-0.01,0-.01,0-0.01.008v0s0,0-.01,0v0.009s0,0-.01,0v0h0a0.147,0.147,0,0,0-.01.013v0.008c-0.01,0-.01,0-0.01,0V644.6c-0.01,0-.01.006-0.01,0.008v0s-0.01,0-.01,0v0.009s0,0-.01,0v0.006h0a0.147,0.147,0,0,1-.01.013v0s0,0-.01.006v0.011c-0.01.007-.01,0.013-0.02,0.02v0.008l-0.01,0a0.051,0.051,0,0,1-.02.029v0.01a0.039,0.039,0,0,0-.02.021h0a0.07,0.07,0,0,0-.01.008h0c-0.01.01-.01,0.02-0.02,0.03h0l-0.03.039h0c-0.06.087-.13,0.173-0.2,0.259l-1.57-1.235a15.436,15.436,0,0,0,2.19-3.827Z"
          transform="translate(-1517 -593)"/>
</svg>
