<svg width="72" height="72" viewBox="0 0 72 72" fill="none" xmlns="http://www.w3.org/2000/svg">
    <path d="M4 68V26H8V64H64V8H25V4H68V68H4ZM16 4H20V8H16V4ZM8 9H12V13H8V9ZM8 0H12V4H8V0ZM8 21H4V17H8V21ZM0 9H4V13H0V9Z" fill="white"/>
    <path d="M44.4005 36.0003L53.0151 45.467C52.0684 46.4451 50.7431 47.045 49.2911 47.045C47.7451 47.045 46.3883 46.3822 45.4416 45.3408L40.6768 40.1028L36.9531 36.0003L40.6768 31.9295L45.4416 26.6913C46.3883 25.6502 47.7451 24.9871 49.2911 24.9871C50.7431 24.9871 52.0684 25.5867 53.0151 26.5334L44.4005 36.0003Z" fill="white"/>
    <path d="M27.5989 36.0003L18.9844 45.4669C19.9311 46.4451 21.2564 47.0449 22.7083 47.0449C24.2543 47.0449 25.6111 46.3822 26.5578 45.3408L31.3226 40.1028L35.0463 36.0003L31.3226 31.9295L26.5578 26.6912C25.6111 25.6501 24.2543 24.9871 22.7083 24.9871C21.2564 24.9871 19.9311 25.5867 18.9844 26.5334L27.5989 36.0003Z" fill="white"/>
    <path d="M39.3944 40.6942L35.9957 36.9497L32.5969 40.6942L24.7339 49.335C25.5979 50.1991 26.8079 50.7463 28.1323 50.7463C29.5437 50.7463 30.7249 50.1701 31.6175 49.191L35.9957 44.4098L40.3446 49.191C41.2088 50.1411 42.4471 50.7463 43.8583 50.7463C45.1834 50.7463 46.3932 50.1991 47.2572 49.335L39.3944 40.6942Z" fill="white"/>
    <path d="M39.3939 31.3058L35.9952 35.0503L32.5964 31.3058L24.7334 22.665C25.5974 21.801 26.8074 21.2537 28.1318 21.2537C29.5433 21.2537 30.7244 21.8299 31.617 22.8091L35.9952 27.5902L40.3441 22.8091C41.2083 21.8589 42.4466 21.2537 43.8578 21.2537C45.1829 21.2537 46.3927 21.801 47.2567 22.665L39.3939 31.3058Z" fill="white"/>
</svg>