<svg xmlns="http://www.w3.org/2000/svg" width="72" height="72" viewBox="0 0 72 72">
    <defs>
        <style>
            .cls-1 {
            fill: #fff;
            fill-rule: evenodd;
            }
        </style>
    </defs>
    <path id="Prostokąt_10" data-name="Prostokąt 10" class="cls-1" d="M1279,661V619h4v38h56V601h-39v-4h43v64h-64Zm18-44.16s4.67-3.84,8.85.512c0.77,0.808,2.98,3.3,5.67,6.367,2.66-3.057,4.86-5.545,5.63-6.353,4.18-4.366,8.85-.513,8.85-0.513v0.257s-4.95,5.846-10,11.743c5.03,5.789,10,11.539,10,11.539s-4.53,4.5-8.85,0c-0.91-.95-3.06-3.389-5.62-6.345-2.59,3-4.76,5.477-5.68,6.436-4.32,4.517-8.85,0-8.85,0s5-5.8,10.05-11.629c-5.07-5.9-10.05-11.758-10.05-11.758V616.84ZM1291,597h4v4h-4v-4Zm-8,5h4v4h-4v-4Zm0-9h4v4h-4v-4Zm0,21h-4v-4h4v4Zm-8-12h4v4h-4v-4Z" transform="translate(-1273 -591)"/>
</svg>
