<svg xmlns="http://www.w3.org/2000/svg" width="72" height="72" viewBox="0 0 72 72">
    <defs>
        <style>
            .cls-1 {
            fill: #fff;
            fill-rule: evenodd;
            }
        </style>
    </defs>
    <path id="Kształt_2216_kopia_2" data-name="Kształt 2216 kopia 2" class="cls-1" d="M599,1142v10h13v4H573v-4h12v-10H556v-54h72v54H599Zm19-2h2v-2h-2v2Zm-4,0h2v-2h-2v2Zm-25,6h6v-4h-6v4Zm35-54H560v44h64v-44Zm0,46h-2v2h2v-2Zm-31.964-42A18,18,0,1,1,574,1113.99,17.948,17.948,0,0,1,592.036,1096ZM593,1121h4c4,0,8-2.01,8-7a6.774,6.774,0,0,0-7-7,0.9,0.9,0,0,0-1,1v1a0.966,0.966,0,0,0,1,1,4.064,4.064,0,0,1,4,4c0,2.14-2.087,4-5,4h-1v-14a0.848,0.848,0,0,0-1-1h-1a0.858,0.858,0,0,0-1,1v17Zm-7,0a0.9,0.9,0,0,0,1-1v-1a0.966,0.966,0,0,0-1-1,4.064,4.064,0,0,1-4-4c0-2.14,2.087-4,5-4h1v14a0.848,0.848,0,0,0,1,1h1a0.858,0.858,0,0,0,1-1v-17h-4c-3.94,0-8,2.01-8,7A6.773,6.773,0,0,0,586,1121Z" transform="translate(-556 -1086)"/>
</svg>
