<svg xmlns="http://www.w3.org/2000/svg" width="72" height="64" viewBox="0 0 72 64">
    <defs>
        <style>
            .cls-1 {
            fill: #fff;
            fill-rule: evenodd;
            }
        </style>
    </defs>
    <path id="Kształt_2216_kopia_3" data-name="Kształt 2216 kopia 3" class="cls-1" d="M317,1154v-64h72v64H317Zm68-60H321v6h64v-6Zm0,10H321v46h64v-46Zm-31.964,5A18,18,0,1,1,335,1126.99,17.948,17.948,0,0,1,353.036,1109ZM354,1134h4c4,0,8-2.01,8-7a6.774,6.774,0,0,0-7-7,0.9,0.9,0,0,0-1,1v1a0.966,0.966,0,0,0,1,1,4.065,4.065,0,0,1,4,4c0,2.14-2.087,4-5,4h-1v-14a0.848,0.848,0,0,0-1-1h-1a0.858,0.858,0,0,0-1,1v17Zm-7,0a0.9,0.9,0,0,0,1-1v-1a0.966,0.966,0,0,0-1-1,4.064,4.064,0,0,1-4-4c0-2.14,2.087-4,5-4h1v14a0.848,0.848,0,0,0,1,1h1a0.858,0.858,0,0,0,1-1v-17h-4c-3.94,0-8,2.01-8,7A6.773,6.773,0,0,0,347,1134Zm-22-36h-2v-2h2v2Zm4,0h-2v-2h2v2Zm4,0h-2v-2h2v2Z" transform="translate(-317 -1090)"/>
</svg>
