<svg xmlns="http://www.w3.org/2000/svg" width="72" height="72" viewBox="0 0 72 72">
    <defs>
        <style>
            .cls-1 {
            fill: #fff;
            fill-rule: evenodd;
            }
        </style>
    </defs>
    <path id="Prostokąt_74" data-name="Prostokąt 74" class="cls-1"
          d="M625.553,2171H613v-4h6.088a31.974,31.974,0,0,0-56.32,4h-4.33A35.966,35.966,0,0,1,622,2164.15V2158h4v13h-0.447ZM575,2164h34v41H575v-41Zm4,37h26v-33H579v33Zm20-12h4v10h-4v-10Zm0-6h4v4h-4v-4Zm-5.8-6.41a1.4,1.4,0,0,1-.75.35v-1.96a1.615,1.615,0,0,1,.8.37,0.8,0.8,0,0,1,.243.58A0.9,0.9,0,0,1,593.2,2176.59Zm-2.435-4.12a0.79,0.79,0,0,1,.215-0.54,1.2,1.2,0,0,1,.578-0.34v1.74a1.355,1.355,0,0,1-.6-0.37A0.744,0.744,0,0,1,590.761,2172.47ZM581,2170h10.554v0.5a2.809,2.809,0,0,0-1.694.64,1.792,1.792,0,0,0-.636,1.39,1.893,1.893,0,0,0,.563,1.38,3.613,3.613,0,0,0,1.767.85v2.11a1.629,1.629,0,0,1-.6-0.43,1.484,1.484,0,0,1-.369-0.69l-1.605.14a2.474,2.474,0,0,0,.849,1.53,3.163,3.163,0,0,0,1.727.65v0.91h0.892v-0.93a3.24,3.24,0,0,0,1.871-.77,1.988,1.988,0,0,0,.674-1.53,1.767,1.767,0,0,0-.535-1.33,4.3,4.3,0,0,0-2.01-.85v-1.96a1.079,1.079,0,0,1,.737.8l1.556-.17a2,2,0,0,0-.738-1.2,2.918,2.918,0,0,0-1.555-.54V2170H603v9H581v-9Zm4,17h-4v-4h4v4Zm0,6h-4v-4h4v4Zm0,6h-4v-4h4v4Zm6-12h-4v-4h4v4Zm0,6h-4v-4h4v4Zm0,6h-4v-4h4v4Zm6-12h-4v-4h4v4Zm0,6h-4v-4h4v4Zm0,6h-4v-4h4v4Zm-34.239-2H571v4h-6.107a31.979,31.979,0,0,0,56.337-4h4.329A35.971,35.971,0,0,1,562,2203.88V2210h-4v-13h4.761Z"
          transform="translate(-556 -2148)"/>
</svg>
