<svg xmlns="http://www.w3.org/2000/svg" width="72" height="72" viewBox="0 0 72 72">
    <defs>
        <style>
            .cls-1 {
            fill: #fff;
            fill-rule: evenodd;
            }
        </style>
    </defs>
    <path id="Kształt_80_kopia" data-name="Kształt 80 kopia" class="cls-1"
          d="M2072.94,2197.99V2214h-71.91v-16h0l-0.02-4.19,12.01-40.81h47.93l12.04,40.92ZM2057.96,2157h-41.95l-10.98,37h63.91Zm10.98,41h-63.91v12h63.91v-12Zm-57.92,4a2,2,0,1,1-2,2A2.006,2.006,0,0,1,2011.02,2202Zm5.99,0a2,2,0,1,1-2,2A2.006,2.006,0,0,1,2017.01,2202Zm5.99,0a2,2,0,1,1-1.99,2A2,2,0,0,1,2023,2202Zm-10.98-12v2h-2v-2h2Zm7.99-29h-2v-2h2v2Zm34.79,6.65a34.585,34.585,0,0,1-4.76,9.92c-4.68,6.84-13.55,12.43-13.55,12.43s-9.15-5.98-13.45-12.3a24.32,24.32,0,0,1-4.28-10.31s6.34-5.39,18.07-5.39S2054.8,2167.65,2054.8,2167.65Zm-27.52,9.17c3.48,4.44,9.78,8.46,9.78,8.46s6.43-3.74,9.97-8.55a18.067,18.067,0,0,0,3.43-8.36s-4.56-3.92-13.4-3.92-13.17,3.72-13.17,3.72A14.76,14.76,0,0,0,2027.28,2176.82Zm16.91-1.23a43.132,43.132,0,0,1-7.34,6.18,40.963,40.963,0,0,1-7.32-6.11,12.62,12.62,0,0,1-2.88-5.75s3.5-2.83,10.4-2.83,10.23,2.98,10.23,2.98A15.154,15.154,0,0,1,2044.19,2175.59Zm-7.9-2.98a1.5,1.5,0,0,0,.63-0.45,1.023,1.023,0,0,0-.07-1.37,1.546,1.546,0,0,0-.77-0.41,6.769,6.769,0,0,0-1.37-.1h-3.23l-0.31,4.63h2.06l0.08-1.95h0.18a1.1,1.1,0,0,1,.49.11,1.257,1.257,0,0,1,.35.37l1.06,1.47h2.32l-1-1.4a1.75,1.75,0,0,0-.28-0.29,1.9,1.9,0,0,0-.32-0.25,2.407,2.407,0,0,0-.52-0.17A2.754,2.754,0,0,0,2036.29,2172.61Zm5.3-2.41h-1.44a2.2,2.2,0,0,1-.75.7,5.237,5.237,0,0,1-1.39.49l0.02,1.04a9.978,9.978,0,0,0,1.02-.28,6.216,6.216,0,0,0,.84-0.39l0.12,3.15h1.86Zm-6.88,1.83a4.236,4.236,0,0,1-.52.06h-0.84l0.04-.92h0.86a1.519,1.519,0,0,1,.73.12,0.356,0.356,0,0,1,.06.59A0.6,0.6,0,0,1,2034.71,2172.03Zm19.25-13.03h2v2h-2v-2Zm9.99,33h-2v-2h2v2Z"
          transform="translate(-2001 -2147.5)"/>
</svg>
