<svg xmlns="http://www.w3.org/2000/svg" width="72" height="72" viewBox="0 0 72 72">
    <defs>
        <style>
            .cls-1 {
            fill: #fff;
            fill-rule: evenodd;
            }
        </style>
    </defs>
    <path id="Kształt_20_kopiuj_kopia" data-name="Kształt 20 kopiuj kopia" class="cls-1"
          d="M1345.5,1108h-12a1.359,1.359,0,0,1-1.5-1.5v-12a1.538,1.538,0,0,1,1.5-1.5h12a1.479,1.479,0,0,1,1.5,1.5v2.5h-3v-0.31a0.691,0.691,0,0,0-.69-0.69h-7.62a0.691,0.691,0,0,0-.69.69V1097h-3v2h3v3h-3v2h3v0.31a0.691,0.691,0,0,0,.69.69h7.62a0.691,0.691,0,0,0,.69-0.69V1104h3v2.5A1.438,1.438,0,0,1,1345.5,1108Zm-1.5-9h3v3h-3v-3Zm3,35.67a15.424,15.424,0,0,1-15.43,15.33h-41.14a15.424,15.424,0,0,1-15.43-15.33c0-5.54,3.27-10.09,7.71-12.78a10.292,10.292,0,0,1,10.29-10.22,6.657,6.657,0,0,1,1.04.16,22.6,22.6,0,0,1,38.58,7.74A15.288,15.288,0,0,1,1347,1134.67Zm-15.05-11-2.17.08-0.49-1.99a18.568,18.568,0,0,0-17.85-13.75,19,19,0,0,0-14.66,7.2l-0.97,1.27-1.6-.39a5.1,5.1,0,0,0-1.21-.16c-2.87,0-6,2.25-6,5.11,0,0.06.03,0.3,0.08,0.72l0.24,1.91-1.77.72a11.34,11.34,0,0,0-6.55,10.06c0,5.78,5.4,11.54,11.07,11.54h40.86c5.67,0,12.07-5.55,12.07-11.12s-4.86-11.28-10.57-11.28C1332.61,1123.59,1332.49,1123.64,1331.95,1123.67Zm-22.71,15.27a11.278,11.278,0,0,1-6.17-.07,12.809,12.809,0,0,1,1.4-6.84c1.72-2.92,4.31-2.68,5.8.56a11.818,11.818,0,0,1,.97,4.19,16.421,16.421,0,0,0,1.51-.92c-1.61-3.92-2.33-8.56,3.43-16.7-1.67-1.35-4.25-2-7.46-1.58,0.47-.56.98-1.12,1.52-1.67,5.44-.33,9.75,3.22,10.07,8.71C1320.67,1130.88,1315.72,1137.28,1309.24,1138.94Zm5.35-19.95a17.2,17.2,0,0,1-1.79,3.56c-1.44,2.14-3.5,3.5-4.61,3.02s-0.84-2.6.6-4.75a10.364,10.364,0,0,1,1.08-1.34,12.372,12.372,0,0,0-1.43.27,31.356,31.356,0,0,0-6.64,20.72,8.469,8.469,0,0,1-5.19-7.47l-0.01-.04c-0.36-6.25,4.61-12.66,11.1-14.32A10.937,10.937,0,0,1,1314.59,1118.99Zm-5.67,3.55c-0.47.99-.29,1.8,0.41,1.81a2.886,2.886,0,0,0,2.1-1.76c0.47-.99.28-1.8-0.41-1.81A2.875,2.875,0,0,0,1308.92,1122.54ZM1317,1098h-8a0.906,0.906,0,0,1-1-1v-8a1.03,1.03,0,0,1,1-1h8a0.984,0.984,0,0,1,1,1v2.01h-2v-0.55a0.465,0.465,0,0,0-.46-0.46h-5.08a0.465,0.465,0,0,0-.46.46v0.55h-2V1092h2v2h-2v0.99h2v0.55a0.465,0.465,0,0,0,.46.46h5.08a0.465,0.465,0,0,0,.46-0.46v-0.55h2V1097A0.961,0.961,0,0,1,1317,1098Zm-1-6h2v2h-2v-2Zm-27.1,14h-8.8a1,1,0,0,1-1.1-1.1V1103h2.01v0.45a0.538,0.538,0,0,0,.54.54h5.9a0.538,0.538,0,0,0,.54-0.54V1103H1290v1.9A1.055,1.055,0,0,1,1288.9,1106Zm-0.91-7H1290v3h-2.01v-3Zm-6.98,3H1279v-3h2.01v3Zm6.98-4.45a0.538,0.538,0,0,0-.54-0.54h-5.9a0.538,0.538,0,0,0-.54.54V1098H1279v-1.9a1.13,1.13,0,0,1,1.1-1.1h8.8a1.084,1.084,0,0,1,1.1,1.1v1.9h-2.01v-0.45Z"
          transform="translate(-1275 -1083)"/>
</svg>
