<svg xmlns="http://www.w3.org/2000/svg" width="72" height="72" viewBox="0 0 72 72">
    <defs>
        <style>
            .cls-1 {
            fill: #fff;
            fill-rule: evenodd;
            }
        </style>
    </defs>
    <path id="Kształt_20_kopia" data-name="Kształt 20 kopia" class="cls-1"
          d="M1108,1154h-72v-42h0.17l-0.16-.23,6.99-4.66V1094h19.69l9.03-6.01,0.28,0.4,0.28-.4,9.03,6.01H1101v13.11l6.99,4.66-0.16.23H1108v42Zm-65-42.13-1.7,1.13,1.7,1.13v-2.26Zm29-19.31-2.17,1.44h4.34Zm25,5.44h-50v18.79l25,16.65,25-16.65V1098Zm4,13.87v2.26l1.7-1.13Zm3,5.02-31.72,21.12-0.28-.4-0.28.4L1040,1116.89V1150h64v-33.11Zm-38.15,6.39a13.221,13.221,0,0,1,1.46-7.12c1.78-3.05,4.49-2.79,6.03.58a12.4,12.4,0,0,1,1.02,4.37,14.1,14.1,0,0,0,1.57-.97c-1.68-4.07-2.42-8.9,3.57-17.39-1.74-1.4-4.42-2.08-7.77-1.65,0.5-.58,1.02-1.16,1.59-1.73,5.66-.34,10.15,3.35,10.49,9.08,0.37,6.51-4.79,13.18-11.54,14.91A11.694,11.694,0,0,1,1065.85,1123.28Zm11.99-20.7a17.889,17.889,0,0,1-1.86,3.71c-1.5,2.23-3.65,3.64-4.8,3.14s-0.88-2.71.62-4.94a10.732,10.732,0,0,1,1.13-1.41c-0.49.07-.99,0.17-1.49,0.29a32.6,32.6,0,0,0-6.91,21.58,8.8,8.8,0,0,1-5.42-7.78v-0.04c-0.38-6.52,4.8-13.19,11.56-14.91A11.379,11.379,0,0,1,1077.84,1102.58Zm-5.9,3.7c-0.49,1.03-.3,1.87.43,1.88a3,3,0,0,0,2.18-1.83c0.49-1.03.3-1.87-.43-1.89A2.994,2.994,0,0,0,1071.94,1106.28Z"
          transform="translate(-1036 -1085)"/>
</svg>
