<svg xmlns="http://www.w3.org/2000/svg" width="72" height="72" viewBox="0 0 72 72">
    <defs>
        <style>
            .cls-1 {
            fill: #fff;
            fill-rule: evenodd;
            }
        </style>
    </defs>
    <path id="Kształt_2154_kopia" data-name="Kształt 2154 kopia" class="cls-1"
          d="M601.75,3142.31a18.442,18.442,0,0,1-8.1,13.65,18.573,18.573,0,0,1-8.149-13.65,19.725,19.725,0,0,1,16.245,0h0Zm3.1,1.77a18.527,18.527,0,0,1,7.906,13.5,19.805,19.805,0,0,1-8.1,1.75,19.557,19.557,0,0,1-7.93-1.67,21.6,21.6,0,0,0,8.128-13.58h0Zm-22.714-3.68a21.84,21.84,0,0,0-11.019,19.08,23.017,23.017,0,0,0,22.488.25,23.166,23.166,0,0,0,22.531-.23,21.849,21.849,0,0,0-11.025-19.06,21.8,21.8,0,0,0-11.48-18.85,21.778,21.778,0,0,0-11.5,18.81h0Zm0.28,3.69a21.682,21.682,0,0,0,8.06,13.6,19.682,19.682,0,0,1-15.979-.11,18.441,18.441,0,0,1,7.919-13.49h0Zm3.117-5.29a23.032,23.032,0,0,1,16.193.02,18.57,18.57,0,0,0-8.111-13.43,18.541,18.541,0,0,0-8.082,13.41h0Zm33.6-17.44-3.343,1.21-0.731.26-7.737,2.8-1.365-3.75,5.728-2.08a32.018,32.018,0,0,0-51.625,22.95l-4.074,1.47a36,36,0,0,1,57.468-28.08l-2.1-5.78,3.764-1.36,3.072,8.45,1.365,3.76Zm-50.206,45.81,7.752-2.81,1.365,3.76-5.746,2.08a32.012,32.012,0,0,0,51.642-22.95l4.073-1.47a36,36,0,0,1-57.455,28.11l2.09,5.75-3.764,1.36-3.071-8.45-1.366-3.76,0.407-.14,3.357-1.22Z"
          transform="translate(-556 -3109)"/>
</svg>
