<svg xmlns="http://www.w3.org/2000/svg" width="72" height="72" viewBox="0 0 72 72">
    <defs>
        <style>
            .cls-1 {
            fill: #fff;
            fill-rule: evenodd;
            }
        </style>
    </defs>
    <path id="Kształt_7_kopiuj_3_kopia_2" data-name="Kształt 7 kopiuj 3 kopia 2" class="cls-1" d="M1105.55,2171H1093v-4h6.09a31.974,31.974,0,0,0-56.32,4h-4.33a35.964,35.964,0,0,1,63.56-6.85V2158h4v13h-0.45Zm-50.55-9h35v43h-35v-43Zm4,39h27v-35h-27v35Zm19.03-8H1083v2h-4.97v-2Zm0-5H1083v2h-4.97v-2Zm0-5H1083v2h-4.97v-2Zm0-5H1083v2h-4.97v-2ZM1062,2188h13v2h-13v-2Zm0-5h13v2h-13v-2Zm0-5h13v2h-13v-2Zm0.03-8H1072v2h-9.97v-2Zm-19.27,27H1051v4h-6.11a31.982,31.982,0,0,0,56.34-4h4.33a35.972,35.972,0,0,1-63.56,6.88V2210h-4v-13h4.76Z" transform="translate(-1036 -2148)"/>
</svg>
