<svg xmlns="http://www.w3.org/2000/svg" width="72" height="72" viewBox="0 0 72 72">
    <defs>
        <style>
            .cls-1 {
            fill: #fff;
            fill-rule: evenodd;
            }
        </style>
    </defs>
    <path id="Elipsa_5" data-name="Elipsa 5" class="cls-1" d="M1284,413a2,2,0,1,1,2,2A2,2,0,0,1,1284,413Zm9,0a2,2,0,1,1,2,2A2,2,0,0,1,1293,413Zm10,0a2,2,0,1,1,2,2A2,2,0,0,1,1303,413Zm10,0a2,2,0,1,1,2,2A2,2,0,0,1,1313,413Zm10,0a2,2,0,1,1,2,2A2,2,0,0,1,1323,413Zm9,0a2,2,0,1,1,2,2A2,2,0,0,1,1332,413Zm9,0a2,2,0,1,1,2,2A2,2,0,0,1,1341,413Zm6,8h-64a8,8,0,0,1,0-16h64v4h-64a4,4,0,0,0,0,8h64v4Zm-13-64h13v4h-9v36h9v4h-13V357Zm8,13h4v6h-4v-6Zm1,17a6,6,0,0,1,4-5.651v3.43a2.966,2.966,0,0,0,0,4.442v3.43A6,6,0,0,1,1343,387Zm-64-30h51v44h-51V357Zm4,40h43V361h-43v36Zm32-4a6,6,0,1,1,6-6A6,6,0,0,1,1315,393Zm0-6v-3a3,3,0,1,0,2.12,5.121Zm2-21h4v10h-4V366Zm-6-1h4v11h-4V365Zm-6,5h4v6h-4v-6Zm-6-4h4v10h-4V366Zm-5,27a6,6,0,1,1,6-6A6,6,0,0,1,1294,393Zm3-6h-3v-3a3,3,0,1,0,3,3h0Zm-4-22h4v11h-4V365Zm-6,5h4v6h-4v-6Z" transform="translate(-1275 -353)"/>
</svg>
