<svg xmlns="http://www.w3.org/2000/svg" width="72" height="72" viewBox="0 0 72 72">
    <defs>
        <style>
            .cls-1 {
            fill: #fff;
            fill-rule: evenodd;
            }
        </style>
    </defs>
    <path id="Kształt_23" data-name="Kształt 23" class="cls-1"
          d="M1340,165a6.985,6.985,0,0,1-6.68-5h-2.42a19.974,19.974,0,0,1-3.99,10.079l1.78,1.787A6.979,6.979,0,1,1,1325,178a6.859,6.859,0,0,1,.87-3.306l-1.69-1.685A19.917,19.917,0,0,1,1313,177.9v2.428a7,7,0,1,1-4,0V177.9a19.917,19.917,0,0,1-11.18-4.888l-1.69,1.684A6.866,6.866,0,0,1,1297,178a7.083,7.083,0,1,1-3.69-6.135l1.78-1.787A19.974,19.974,0,0,1,1291.1,160h-2.43a7,7,0,1,1,0-4h2.43a19.974,19.974,0,0,1,3.99-10.078l-1.78-1.787A6.979,6.979,0,1,1,1297,138a6.865,6.865,0,0,1-.87,3.306l1.69,1.684A19.909,19.909,0,0,1,1309,138.1v-2.428a7,7,0,1,1,4,0V138.1a19.942,19.942,0,0,1,11.9,5.548l1.85-1.548a7.082,7.082,0,1,1,2.74,2.924l-2.01,1.678a20.024,20.024,0,0,1,3.42,9.3h2.42A6.988,6.988,0,1,1,1340,165Zm-8,16a3,3,0,1,0-3-3A3,3,0,0,0,1332,181Zm-42-6a3,3,0,1,0,3,3A3,3,0,0,0,1290,175Zm-8-20a3,3,0,1,0,3,3A3,3,0,0,0,1282,155Zm8-20a3,3,0,1,0,3,3A3,3,0,0,0,1290,135Zm43,7a3,3,0,1,0-3-3A3,3,0,0,0,1333,142Zm-25,45a3,3,0,1,0,3-3A3,3,0,0,0,1308,187Zm6-58a3,3,0,1,0-3,3A3,3,0,0,0,1314,129Zm-3,13a16,16,0,1,0,16,16A15.98,15.98,0,0,0,1311,142Zm29,13a3,3,0,1,0,3,3A3,3,0,0,0,1340,155Zm-18,12h-3a7.5,7.5,0,0,0-15,0h-3a10.255,10.255,0,0,1,5.67-9.121,7.243,7.243,0,0,1-2.67-5.546,7.5,7.5,0,0,1,15,0,7.243,7.243,0,0,1-2.67,5.546A10.255,10.255,0,0,1,1322,167Zm-10.5-19.067a4.4,4.4,0,1,0,4.5,4.4A4.431,4.431,0,0,0,1311.5,147.933Z"
          transform="translate(-1275 -122)"/>
</svg>
