<svg xmlns="http://www.w3.org/2000/svg" width="71.84" height="72.06" viewBox="0 0 71.84 72.06">
    <defs>
        <style>
            .cls-1 {
            fill: #fff;
            fill-rule: evenodd;
            }
        </style>
    </defs>
    <path id="Kształt_92" data-name="Kształt 92" class="cls-1"
          d="M2072.79,2459.9l-0.02.19-0.13.13-5.87,5.88-0.33.32-0.32-.31-5.73-5.73-0.31-.32,0.32-.33,7.83-7.83,0.33-.32,0.32,0.31,3.82,3.82,0.13,0.13v0.19Zm-4.55.59-0.62-2.57-0.17-.78-0.58.58-1.96,1.96-0.58.58,0.79,0.17,2.57,0.61,0.73,0.18Zm-2.98-46.8-0.4.46-0.43-.38-7.09-6.24-0.43-.39,0.39-.47,0.35-.42-1.08-.81-0.48-.34,0.35-.51-1.32-.76-0.51-.3,0.31-.53,4.34-7.53,0.31-.53,0.51,0.29,8.16,4.71,0.51,0.3-0.31.53-0.43.76,1.94,1.48,0.46,0.35-0.35.5-0.7,1,1.51,1.34,0.45,0.4-0.41.46Zm-2.34-13.96a1.832,1.832,0,0,0-2.46.73,1.987,1.987,0,0,0-.26,1.15,2.514,2.514,0,0,0-1.8,1.25l1.02,0.58a1.18,1.18,0,1,1,2.04,1.18l1.02,0.59a2.485,2.485,0,0,0,.18-2.18,1.946,1.946,0,0,0,.86-0.8A1.832,1.832,0,0,0,2062.92,2399.73Zm4.47,2.87-3.29,5.69-0.31.54-0.51-.29-1.9-1.1,3.06,2.26,4.31-6.04Zm1.23,3.27-3.59,5.04-0.36.51-0.47-.36-5.59-4.12-0.02.03,6.19,5.45,4.85-5.65ZM2065,2431.5a14.484,14.484,0,0,1-14,14.47V2446h-32v-0.03c-0.17.01-.33,0.03-0.5,0.03a10.5,10.5,0,0,1-3.48-20.4,17.982,17.982,0,0,1,33.63-8.47,14.133,14.133,0,0,1,1.85-.13A14.5,14.5,0,0,1,2065,2431.5Zm-14.5-11.5a11.443,11.443,0,0,0-3.53.56,14.978,14.978,0,0,0-28.82,7.46,7.494,7.494,0,0,0,.35,14.98,4.21,4.21,0,0,0,.5-0.04V2443h32v-0.03A11.49,11.49,0,0,0,2050.5,2420Zm-4,14h-18.21l4.08,4.07a1.636,1.636,0,1,1-2.28,2.27l-6.42-6.4a2.246,2.246,0,0,1-.49-0.76,1.563,1.563,0,0,1-.18-0.68,1.271,1.271,0,0,1,.09-0.43c0.01-.04.01-0.07,0.02-0.11a1.689,1.689,0,0,1,.19-0.32,1.479,1.479,0,0,1,.13-0.21,1.858,1.858,0,0,1,.19-0.11,1.549,1.549,0,0,1,.35-0.21c0.02-.01.05-0.01,0.08-0.02a1.335,1.335,0,0,1,.45-0.09h22A1.5,1.5,0,0,1,2046.5,2434Zm1.1-6.43a1.322,1.322,0,0,1-.72.35,1.169,1.169,0,0,1-.38.08h-22a1.5,1.5,0,0,1,0-3h18.24l-4.07-4.06a1.8,1.8,0,0,1-.24-2.51,1.817,1.817,0,0,1,2.52.24l6.42,6.4a2.1,2.1,0,0,1,.5.83l0.03,0.09a1.627,1.627,0,0,1,.09.48c0,0.01.01,0.02,0.01,0.03,0,0.03-.02.06-0.02,0.09A1.4,1.4,0,0,1,2047.6,2427.57Zm-37.87-16.03-0.25.45-0.43-.25-7.63-4.62-0.43-.26,0.25-.46,6.03-10.94,0.25-.45,0.43,0.25,7.63,4.62,0.43,0.26-0.25.46Zm0.35-5.32a1.182,1.182,0,0,0-.48-0.67,4.566,4.566,0,0,0-.7-0.34,6.992,6.992,0,0,1-.1-1.17c0.01-.24.07-0.42,0.1-0.66a9.97,9.97,0,0,0,.71-0.8,2.714,2.714,0,0,0,.4-0.92,0.911,0.911,0,0,0-.03-0.49,0.729,0.729,0,0,0-.3-0.39,0.01,0.01,0,0,0-.01-0.01,0.676,0.676,0,0,0-.46-0.09,0.647,0.647,0,0,0-.38.23,2.056,2.056,0,0,0-.42.79,8.328,8.328,0,0,0-.21,1.35,10.54,10.54,0,0,1-.77.88,7.246,7.246,0,0,1-.76.55,6.194,6.194,0,0,0-.97-0.17,1.742,1.742,0,0,0-.85.23,0.95,0.95,0,0,0-.39.84,0.814,0.814,0,0,0,.16.48,0.617,0.617,0,0,0,.4.26,1.48,1.48,0,0,0,.9-0.18,6.642,6.642,0,0,0,.91-0.66,6.049,6.049,0,0,1,.72.13c0.27,0.09.42,0.22,0.66,0.32,0.03,0.18.01,0.42,0.05,0.57a1.374,1.374,0,0,0,.5.77,0.854,0.854,0,0,0,.91-0.01h0.01l0.01-.01a0.948,0.948,0,0,0,.33-0.33A0.87,0.87,0,0,0,2010.08,2406.22Zm-0.91.19a1.06,1.06,0,0,1-.16-0.28c0.03,0.02.11,0.04,0.13,0.06a0.639,0.639,0,0,1,.18.18c-0.01.01,0,.01-0.01,0.02C2009.21,2406.45,2009.21,2406.44,2009.17,2406.41Zm-1.45-1.75a2.2,2.2,0,0,0,.18-0.14c0.07-.06.12-0.14,0.19-0.21-0.01.19,0.04,0.34,0.04,0.53-0.13-.05-0.21-0.13-0.34-0.18A0.163,0.163,0,0,1,2007.72,2404.66Zm-2.53.68c0-.01.01,0,0.01-0.02l-0.01-.01c-0.01-.09-0.01-0.05.05-0.1a1.088,1.088,0,0,1,.47-0.11h0.07c-0.05.02-.11,0.1-0.15,0.12A1.1,1.1,0,0,1,2005.19,2405.34Zm2.79,47.88,0.37-.21,0.21,0.37,5.23,9.01,0.22,0.38-0.37.21-6.62,3.8-0.37.21-0.21-.37-5.23-9.01-0.22-.38,0.37-.21Zm-1.57,4.9,1.13,1.95a1.247,1.247,0,0,0-.41.14,1.3,1.3,0,1,0,1.76.49l-1.46-2.52,1.16-.32-0.24-.83-1.69.46-0.53.15Zm27.06-4.68,0.1-.41,0.44,0.12,7.8,2.1,0.43,0.12-0.1.41-2.61,9.78-0.1.41-0.44-.12-7.8-2.1-0.43-.12,0.1-.41Zm6.09,4.29,0.26-.96-4.83-1.3-0.26.97Zm-0.52,1.93,0.26-.96-4.83-1.3-0.26.97Zm-0.25.97-4.83-1.29-0.26.96,4.83,1.3Zm-2.71,2.38,0.26-.97-2.9-.77-0.26.96Z"
          transform="translate(-2001 -2394.94)"/>
</svg>
