<svg width="72" height="72" viewBox="0 0 72 72" fill="none" xmlns="http://www.w3.org/2000/svg">
    <path fill-rule="evenodd" clip-rule="evenodd" d="M39 64V54H42.3221C41.7817 52.7398 41.3939 51.3987 41.1816 50H3V5H61V31.3789C62.0399 31.6041 63.0433 31.9272 64 32.3383V2H0V54H25V64H13V67H52V64H39ZM36 58H28V54H36V58Z" fill="white"/>
    <path fill-rule="evenodd" clip-rule="evenodd" d="M58.9399 36.8585C53.211 36.0834 47.9039 40.1502 47.1152 45.9802C46.3264 51.8102 50.3621 57.141 56.0909 57.9161C58.8809 58.2935 61.5642 57.5259 63.681 55.9639C65.916 54.3147 67.5109 51.7859 67.9156 48.7944C68.7044 42.9644 64.6687 37.6336 58.9399 36.8585ZM44.1423 45.578C45.149 38.1364 51.9412 32.8843 59.3421 33.8856C66.7429 34.8869 71.8953 41.7549 70.8885 49.1966C70.4454 52.4723 68.8816 55.3225 66.6409 57.4014L71.9154 64.2628L69.5369 66.0912L64.2301 59.1878C61.7359 60.6397 58.7624 61.3048 55.6887 60.889C48.2879 59.8877 43.1355 53.0197 44.1423 45.578Z" fill="white"/>
    <path fill-rule="evenodd" clip-rule="evenodd" d="M23.4599 15.0031C24.1563 14.9811 24.7761 15.4416 24.9562 16.1146L27.7216 26.45L29.9936 22.1992C30.2709 21.6805 30.8257 21.3717 31.4127 21.4094C31.9997 21.4471 32.5104 21.8244 32.719 22.3743L35.2347 29.0066H36.6649L39.9247 22.2542C40.1734 21.7392 40.6932 21.4103 41.265 21.4063C41.8369 21.4023 42.3612 21.7238 42.6171 22.2352L44.7175 26.4342L47.78 16.0781C47.972 15.4287 48.5754 14.9885 49.2525 15.0038C49.9296 15.0192 50.5123 15.4864 50.6747 16.1439L53.8507 29.0066H56.5245C57.3529 29.0066 58.0245 29.6781 58.0245 30.5066C58.0245 31.335 57.3529 32.0066 56.5245 32.0066H52.676C51.9861 32.0066 51.3852 31.536 51.2198 30.8662L49.0882 22.2334L46.5159 30.9319C46.3412 31.5227 45.8231 31.9465 45.2095 32.0008C44.5959 32.055 44.0115 31.7286 43.7359 31.1776L41.2995 26.307L38.9573 31.1587C38.707 31.6771 38.1821 32.0066 37.6064 32.0066H34.1994C33.5762 32.0066 33.0179 31.6212 32.7969 31.0386L31.0842 26.5232L28.5772 31.2136C28.2869 31.7567 27.6943 32.0672 27.0826 31.9967C26.4709 31.9262 25.9644 31.4891 25.8053 30.8943L23.7147 23.0812L19.9523 41.7983C19.8171 42.4708 19.2429 42.966 18.5577 43.0008C17.8726 43.0355 17.2512 42.6011 17.0486 41.9457L12.9511 28.6908L11.8474 31.1258C11.6043 31.6621 11.07 32.0066 10.4812 32.0066H7.51074C6.68232 32.0066 6.01074 31.335 6.01074 30.5066C6.01074 29.6781 6.68232 29.0066 7.51074 29.0066H9.51416L11.8505 23.852C12.1077 23.2844 12.6891 22.935 13.311 22.9742C13.9328 23.0133 14.4658 23.4329 14.6498 24.0282L18.1732 35.426L22.0366 16.2067C22.1739 15.5236 22.7635 15.025 23.4599 15.0031Z" fill="white"/>
</svg>