<svg xmlns="http://www.w3.org/2000/svg" width="72" height="72" viewBox="0 0 72 72">
    <defs>
        <style>
            .cls-1 {
            fill: #fff;
            fill-rule: evenodd;
            }
        </style>
    </defs>
    <path id="Kształt_95_kopia" data-name="Kształt 95 kopia" class="cls-1" d="M1345,1464h-20v-4h18v-10h-18v-4h18v-10h-38v4h-4v-22h46v46h-2Zm-2-42h-38v10h38v-10Zm-32,6h-2v-2h2v2Zm4,0h-2v-2h2v2Zm4,0h-2v-2h2v2Zm-27,3.83-8.59,8.58-2.82-2.82,8.58-8.59H1284v-4h12v12h-4v-5.17Zm19,8.17h0Zm4,0h0Zm2,0h0Zm4,4v46h-46v-46h46Zm-4,4h-38v10h38v-10Zm0,14h-38v10h38v-10Zm0,14h-38v10h38v-10Zm-32,6h-2v-2h2v2Zm4,0h-2v-2h2v2Zm4,0h-2v-2h2v2Zm-8-14h-2v-2h2v2Zm4,0h-2v-2h2v2Zm4,0h-2v-2h2v2Zm-8-14h-2v-2h2v2Zm4,0h-2v-2h2v2Zm4,0h-2v-2h2v2Zm36.99,23.26,8.26-8.27,2.76,2.76-8.27,8.26H1338V1484h-12v-12h3.99v5.26Z" transform="translate(-1275 -1418)"/>
</svg>
