<svg xmlns="http://www.w3.org/2000/svg" width="72" height="71.97" viewBox="0 0 72 71.97">
    <defs>
        <style>
            .cls-1 {
            fill: #fff;
            fill-rule: evenodd;
            }
        </style>
    </defs>
    <path id="Kształt_85" data-name="Kształt 85" class="cls-1" d="M2310,2467v-4h4v4h-4Zm-30.91-2.38-1.09.36-1.09-.36s-7.95-3.25-15.64-12.09-15.27-23.44-15.27-45.88v-2.6h2.89c6.6,0,10.25-2.16,14.2-4.31s8.36-4.72,14.91-4.72,10.95,2.58,14.91,4.72,7.63,4.31,14.2,4.31H2310v2.6c0,22.52-7.59,37.16-15.27,45.97S2279.09,2464.62,2279.09,2464.62Zm11.45-60.63c-4.23-2.28-7.06-5-12.54-5s-8.31,2.71-12.54,5c-3.57,1.94-9.09,3.24-15.46,3.89,0.6,21.05,7.61,34.45,14.69,42.57,6.41,7.36,11.79,9.86,13.31,10.55,1.52-.68,6.91-3.12,13.31-10.45,7.08-8.1,14.09-21.54,14.69-42.67C2299.65,2407.23,2294.11,2405.92,2290.54,2403.99ZM2268,2425h2.99l0.01-4a7.518,7.518,0,0,1,15,0l0.01,4H2289v16h-21v-16Zm6,0h9v-4c0-2.86-2.42-3.92-4.5-3.92s-4.5,1.06-4.5,3.92v4Zm-28,42h-4v-4h4v4Zm23,0h-19v-4h13Zm37-4v4h-19l5-4h14Z" transform="translate(-2242 -2395.03)"/>
</svg>
