<svg width="72" height="72" viewBox="0 0 72 72" fill="none" xmlns="http://www.w3.org/2000/svg">
    <path d="M4 68V26H8V64H64V8H25V4H68V68H4ZM40.4 29.4L42.9 27.9L47.2 25.4C52.8 31.9 52.1 41.7 45.6 47.2C41.1 51.1 34.8 52.1 29.4 49.7L43.3 41.5C45.6 40.1 46.3 37 44.9 34.7C43.7 32.7 40.7344 31.6 38.8 32.6L35.2 34.6L31.1131 36.9136C30.5367 37.2634 29.8289 37.1211 29.6289 36.6211C29.6289 36.6211 29.5039 36.4023 29.5039 36.1602C29.5039 35.6602 29.8202 35.4099 30.3 35.1L34.2 32.8L40.4 29.4ZM44.1 22.6L28.7 31.6C26.2 32.6 24.9 35.5 26 38C27 40.5 29.9 41.8 32.4 40.7C32.6641 40.5838 33.0018 40.4234 33.2 40.3L39.5 36.8C39.793 36.6211 39.913 36.5473 40.2 36.3878C40.3527 36.3029 40.5578 36.241 40.7344 36.241C41.2344 36.241 41.7758 36.8516 41.6758 37.3516C41.6168 37.6465 41.4178 37.8672 41.1634 38.0302C40.9963 38.1372 40.9111 38.1959 40.7344 38.3047C40.6524 38.3551 40.5234 38.4297 40.4 38.5L27.4 46.1L25.4 47.3C18.8 41.8 18 32 23.5 25.5C28.7 19.5 37.5 18.2 44.1 22.6ZM16 4H20V8H16V4ZM8 9H12V13H8V9ZM8 0H12V4H8V0ZM8 21H4V17H8V21ZM0 9H4V13H0V9Z" fill="white"/>
    <path d="M50.0056 23.0063C50.0056 22.5023 50.0216 22.0663 50.0536 21.6983C50.0936 21.3303 50.1656 21.0063 50.2696 20.7263C50.3816 20.4383 50.5456 20.1823 50.7616 19.9583C50.9856 19.7263 51.2776 19.4983 51.6376 19.2743C51.8776 19.1303 52.1296 18.9863 52.3936 18.8423C52.6656 18.6903 52.9176 18.5343 53.1496 18.3743C53.3896 18.2063 53.5816 18.0223 53.7256 17.8223C53.8776 17.6223 53.9536 17.3943 53.9536 17.1383C53.9536 16.9543 53.9176 16.8103 53.8456 16.7063C53.7736 16.6023 53.6776 16.5263 53.5576 16.4783C53.4376 16.4303 53.3096 16.4063 53.1736 16.4063C52.9656 16.4063 52.7536 16.4503 52.5376 16.5383C52.3296 16.6183 52.1256 16.7223 51.9256 16.8503C51.7336 16.9783 51.5616 17.1183 51.4096 17.2703L50.0056 15.7463C50.1656 15.5623 50.3616 15.3903 50.5936 15.2303C50.8336 15.0703 51.1016 14.9263 51.3976 14.7983C51.7016 14.6703 52.0296 14.5703 52.3816 14.4983C52.7336 14.4263 53.1056 14.3903 53.4976 14.3903C54.1456 14.3903 54.6976 14.4943 55.1536 14.7023C55.6096 14.9103 55.9576 15.2103 56.1976 15.6023C56.4376 15.9863 56.5576 16.4463 56.5576 16.9823C56.5576 17.2863 56.5176 17.5663 56.4376 17.8223C56.3656 18.0783 56.2536 18.3183 56.1016 18.5423C55.9576 18.7583 55.7816 18.9583 55.5736 19.1423C55.3656 19.3263 55.1296 19.5023 54.8656 19.6703C54.5616 19.8623 54.3056 20.0263 54.0976 20.1623C53.8976 20.2903 53.7256 20.4023 53.5816 20.4983C53.4376 20.5863 53.3136 20.6703 53.2096 20.7503C53.1056 20.8223 53.0016 20.8943 52.8976 20.9663H56.5696V23.0063H50.0056Z" fill="white"/>
</svg>