<svg width="72" height="72" viewBox="0 0 72 72" fill="none" xmlns="http://www.w3.org/2000/svg">
<g clip-path="url(#clip0_2046_95)">
<g clip-path="url(#clip1_2046_95)">
<path d="M62.1674 54.6574C62.1308 59.3416 58.8767 63.1216 54.0744 63.7938C50.1088 64.3479 45.7916 62.0599 44.2644 57.5866C43.5304 55.4365 43.6682 53.3074 44.481 51.2022C46.7408 45.3494 44.8016 39.2576 39.6646 36.0162C37.9222 34.9179 35.969 34.4918 33.9847 34.1107C29.2555 33.2023 25.979 28.3071 26.8986 23.5835C27.8071 18.9218 31.7769 15.6987 36.5244 16.008C41.0371 16.302 44.2096 19.5377 44.976 23.4809C45.3458 25.3835 45.0407 27.2032 44.3207 28.9751C41.4097 36.1343 46.1853 44.434 53.8311 45.5083C58.2271 46.1257 61.3124 49.031 62.0436 53.2624C62.1224 53.7208 62.1308 54.1933 62.1702 54.6588L62.1674 54.6574Z" fill="white"/>
<path d="M35.4533 54.6574C35.4167 59.3416 32.1626 63.1216 27.3603 63.7938C23.3947 64.3479 19.0775 62.0599 17.5503 57.5866C16.8163 55.4365 16.9541 53.3074 17.7669 51.2022C20.0267 45.3494 18.0875 39.2576 12.9505 36.0162C11.2081 34.9179 9.25485 34.4918 7.27064 34.1107C2.53861 33.2023 -0.739358 28.3071 0.181735 23.5835C1.09017 18.9218 5.06001 15.6987 9.80751 16.008C14.3202 16.302 17.4927 19.5377 18.2591 23.4809C18.6289 25.3835 18.3238 27.2032 17.6038 28.9751C14.6928 36.1343 19.4684 44.434 27.1142 45.5083C31.5101 46.1257 34.5955 49.031 35.3267 53.2624C35.4055 53.7208 35.4139 54.1933 35.4533 54.6588V54.6574Z" fill="white"/>
<path d="M71.7932 25.181C71.7862 30.311 67.7207 34.3736 62.6147 34.354C57.5775 34.3343 53.4515 30.1929 53.46 25.1641C53.4684 20.1311 57.6633 15.9602 62.7018 15.9743C67.7362 15.9897 71.8017 20.1044 71.7932 25.181Z" fill="white"/>
</g>
</g>
<defs>
<clipPath id="clip0_2046_95">
<rect width="72" height="72" fill="white"/>
</clipPath>
<clipPath id="clip1_2046_95">
<rect width="71.9999" height="71.9999" fill="white"/>
</clipPath>
</defs>
</svg>